<?xml version="1.0" encoding="utf-8"?>
<!-- Generator: Adobe Illustrator 14.0.0, SVG Export Plug-In  -->
<!DOCTYPE svg PUBLIC "-//W3C//DTD SVG 1.1//EN" "http://www.w3.org/Graphics/SVG/1.1/DTD/svg11.dtd" [
	<!ENTITY ns_flows "http://ns.adobe.com/Flows/1.0/">
]>
<svg version="1.1"
	 xmlns="http://www.w3.org/2000/svg" xmlns:xlink="http://www.w3.org/1999/xlink" xmlns:a="http://ns.adobe.com/AdobeSVGViewerExtensions/3.0/"
	 x="0px" y="0px" width="100px" height="100px" viewBox="-3.057 -1.705 100 100" enable-background="new -3.057 -1.705 100 100"
	 xml:space="preserve">
<defs>
</defs>
<path fill-rule="evenodd" clip-rule="evenodd" fill="#FFFFFF" d="M48.376,3.213V0H37.607v2.748l5.326,5.756h-5.326v3.207h10.974
	V8.969l-5.326-5.755H48.376L48.376,3.213z M35.433,3.213V0H24.658v2.748l5.333,5.756h-5.333v3.207h10.977V8.969l-5.33-5.755H35.433
	L35.433,3.213z M22.612,3.345V0h-9.458v11.71h9.458v-3.34h-5.53V3.345H22.612L22.612,3.345z M30.831,86.769l25.281-6.977
	l5.622-62.737H0l5.616,62.744L30.831,86.769z M6.341,22.188H56.1l-4.804,53.606l-20.429,5.641l-20.492-5.737L6.341,22.188z
	 M22.37,52.616h18.04l-0.9,9.977l-8.594,2.313l-8.643-2.308l-0.549-6.137h-7.76c0,0,1.086,12.085,1.083,12.085l15.869,4.361
	l15.817-4.361l1.431-15.931l1.9-21.205l0.184-2.066H11.535l0,0l0.715,7.695h29.55l-0.709,7.881H21.675L22.37,52.616z"/>
</svg>
