<?xml version="1.0" encoding="utf-8"?>
<!-- Generator: Adobe Illustrator 14.0.0, SVG Export Plug-In  -->
<!DOCTYPE svg PUBLIC "-//W3C//DTD SVG 1.1//EN" "http://www.w3.org/Graphics/SVG/1.1/DTD/svg11.dtd" [
	<!ENTITY ns_flows "http://ns.adobe.com/Flows/1.0/">
]>
<svg version="1.1"
	 xmlns="http://www.w3.org/2000/svg" xmlns:xlink="http://www.w3.org/1999/xlink" xmlns:a="http://ns.adobe.com/AdobeSVGViewerExtensions/3.0/"
	 x="0px" y="0px" width="766px" height="88px" viewBox="0.33 0 766 88" enable-background="new 0.33 0 766 88" xml:space="preserve"
	>
<defs>
</defs>
<path d="M0,91.139l765.94-6.309l-0.277-48.654c-38.996-3.625-227.663,6.563-252.92-5.127c-12.336-4.158-24.465-6.653-36.108-7.347
	c-1.456-0.346-5.061,0.9-10.883,3.743c-6.723,3.257-17.395,9.079-32.157,17.396c-10.812,2.979-27.793,4.99-50.94,6.03
	c-19.893,0.9-32.921,0.9-39.021,0.068c-8.594-1.871-16.148-3.812-22.663-5.752c-5.961-1.871-10.258-3.259-12.96-4.089
	c-2.288-0.624-15.11-3.882-38.535-9.772c-32.852-2.357-51.773-3.536-56.764-3.536c-3.188,0-8.872-0.831-16.979-2.494l-11.299-2.426
	c-3.881-0.694-8.523-1.594-13.931-2.703c-10.742-2.356-19.821-4.783-27.376-7.415c-6.444-2.912-11.852-5.892-16.01-8.942
	c0,0,0,0-4.366-3.81C83.334,16.072,64.667,7.405,0,36.176C0.601,46.076,0,91.139,0,91.139z"/>
</svg>
