<?xml version="1.0" encoding="utf-8"?>
<!-- Generator: Adobe Illustrator 14.0.0, SVG Export Plug-In  -->
<!DOCTYPE svg PUBLIC "-//W3C//DTD SVG 1.1//EN" "http://www.w3.org/Graphics/SVG/1.1/DTD/svg11.dtd" [
	<!ENTITY ns_flows "http://ns.adobe.com/Flows/1.0/">
]>
<svg version="1.1"
	 xmlns="http://www.w3.org/2000/svg" xmlns:xlink="http://www.w3.org/1999/xlink" xmlns:a="http://ns.adobe.com/AdobeSVGViewerExtensions/3.0/"
	 x="0px" y="0px" width="766px" height="190px" viewBox="0 -6.349 766 190" enable-background="new 0 -6.349 766 190"
	 xml:space="preserve">
<defs>
</defs>
<path d="M0,189.718l765.94-6.309l-0.277-48.654c-38.996-3.625-227.663,6.563-252.92-5.127c-12.336-4.158-24.465-6.653-36.108-7.347
	c-1.456-0.346-5.061,0.9-10.883,3.743c-6.723,3.257-17.395,9.079-32.157,17.396c-10.812,2.979-27.793,4.99-50.94,6.03
	c-19.893,0.9-32.921,0.9-39.021,0.068c-8.594-1.871-16.148-3.812-22.663-5.752c-5.961-1.871-10.258-3.259-12.96-4.089
	c-2.288-0.624-15.11-3.882-38.535-9.772c-32.852-2.357-51.773-3.536-56.764-3.536c-3.188,0-8.872-0.831-16.979-2.494l-11.299-2.426
	c-3.881-0.694-8.523-1.594-13.931-2.703c-10.742-2.356-19.821-4.783-27.376-7.415c-6.444-2.912-11.852-5.892-16.01-8.942
	c0,0,0,0-4.366-3.81C83.334,114.652,64.667,105.985,0,134.755C0.601,144.656,0,189.718,0,189.718z"/>
<path d="M275.408,10.067c0,0,2.021,0.552,2.021,1.428c0,0.875-1.22,0.921-1.22,0.921s1.854,0.405,1.847,1.366
	c-0.008,0.961-0.382,0.776-0.382,0.776s-0.387,0.22,2.619,0.877c1.071,8.165,10.805,10.8,10.805,10.8s1.437-0.55,1.668,0.526
	c0.129,0.599-0.866,1.072-2.325,0.729c0.747,0.87-1.509,0.831-1.509,0.831s-0.027,0.819-1.278,1.004s-2.228-0.045-1.955-0.665
	c-6.492,9.426-6.417,15.585-7.179,18.578c-1.218,3.828-3.619,4.004-3.619,4.004s0.216,4.547-1.775,4.675
	c3.415,2.189,3.796,2.566,3.531,3.34c-0.265,0.774-4.161-1.443-4.161-1.443s3.157,2.988,2.297,3.835
	c-0.859,0.848-4.394-3.721-4.394-3.721s1.191,3.337,0.022,4.92c-1.541-1.931-1.541-1.931-1.541-1.931l-10.38,63.897l0.522,4.136
	l8.943-7.152l-6.334,8.75l7.806-3.718l-6.981,9.07l-13.584-4.424l-6.754-8.37l9.776,6.02l-2.754-9.21l4.365,9.699
	c0,0,11.308-65.46,11.497-66.554c-1.156-1.333,0-5.505,0-5.505s-5.853,3.245-6.212,2.544c-0.358-0.701,5.042-3.902,5.042-3.902
	s-7.476,1.938-7.577,1.021c-0.103-0.915,7.95-2.816,7.95-2.816s-1.629-1.367-0.02-5.262c-1.185-1.229-3.374-3.111-3.673-4.765
	c-0.298-1.653,2.317-10.927,0.358-19.364c-0.69,0.371-1.527-0.58-1.527-0.58l-0.194-1.298c0,0-1.012,1.011-1.747,0.905
	c-0.736-0.106-1.173-1.484-1.173-1.484s-1.649,1.739-2.548,0.981s0.131-1.147,0.131-1.147l-1.29-1.34l0.521-1.033l2.932,0.69
	c0,0,7.854-2.143,13.524-7.715c1.733,0.111,2.725-0.171,2.725-0.171s-0.47-0.374-0.098-0.927c0.371-0.554-0.137-0.213-0.137-0.213
	s-1.289-0.598-0.896-1.293c0.394-0.695,2.714-0.612,2.714-0.612l-0.567-0.798L276.678,0l-0.265,8.978L275.408,10.067z
	 M279.029,28.931c-1.347,0.463-1.728-1.739-1.728-1.739s-1.216,1.511-2.611,1.163c-1.153-0.287-1.647-2.886-1.642-2.826
	c0,0-1.793,2.231-3.316,1.883c-1.388-0.317-1.719-1.876-1.767-2.153c-0.015,0.001-0.028,0.002-0.041,0.003
	c-0.168,0.316-1.047,1.842-2.174,1.342c-0.351-0.156-0.77-0.484-0.967-0.646c-0.355,1.389-2.94,11.901-1.229,17.227
	c0.814,2.537,9.812,4.467,10.916,3.013C280.109,38.784,279.018,28.661,279.029,28.931z"/>
</svg>
