<?xml version="1.0" encoding="utf-8"?>
<!-- Generator: Adobe Illustrator 14.0.0, SVG Export Plug-In  -->
<!DOCTYPE svg PUBLIC "-//W3C//DTD SVG 1.1//EN" "http://www.w3.org/Graphics/SVG/1.1/DTD/svg11.dtd" [
	<!ENTITY ns_flows "http://ns.adobe.com/Flows/1.0/">
]>
<svg version="1.1"
	 xmlns="http://www.w3.org/2000/svg" xmlns:xlink="http://www.w3.org/1999/xlink" xmlns:a="http://ns.adobe.com/AdobeSVGViewerExtensions/3.0/"
	 x="0px" y="0px" width="766px" height="119px" viewBox="-0.11 -3.849 766 119" enable-background="new -0.11 -3.849 766 119"
	 xml:space="preserve">
<defs>
</defs>
<path opacity="0.5" d="M0,1.042c0,0,29.16-2.344,32.359,0c11,9.333,40.332,22,43.333,22s17.837-9.498,23.668-9.666
	s39.915,22.041,60.667,22.666c4.498-0.125,8.754-3.916,12.001-5.333s1.503-0.916,8-1.667c6.497-0.75,15.671-2.046,16.666-3.5
	s5.669-8.666,9-9.833s7.165,1.017,10-0.333s5.411-3.266,7-3.334s15.334-0.666,15.334-0.666s6-4.667,10-5.334
	c83,13,148.335,51.334,173.334,52.667s49.546-16.167,55.667-17.667s19.547,2.375,24.334,2s5.586-5.875,12.999-7s37.587-1.75,44-1
	s92.855,27.543,102.31,29.334s83,7.666,83,7.666h21.138v43.334H1.695"/>
</svg>
