<?xml version="1.0" encoding="utf-8"?>
<!-- Generator: Adobe Illustrator 14.0.0, SVG Export Plug-In . SVG Version: 6.00 Build 43363)  -->
<!DOCTYPE svg PUBLIC "-//W3C//DTD SVG 1.1//EN" "http://www.w3.org/Graphics/SVG/1.1/DTD/svg11.dtd">
<svg version="1.1" id="Layer_1" xmlns="http://www.w3.org/2000/svg" xmlns:xlink="http://www.w3.org/1999/xlink" x="0px" y="0px"
	 width="766px" height="119px" viewBox="0 0 766 119" enable-background="new 0 0 766 119" xml:space="preserve">
<path opacity="0.35" enable-background="new    " d="M0,1.042c0,0,29.16-2.344,32.359,0c11,9.333,40.332,22,43.333,22
	s17.837-9.498,23.668-9.666s39.915,22.041,60.667,22.666c4.498-0.125,8.754-3.916,12.001-5.333c3.247-1.417,1.503-0.916,8-1.667
	c6.497-0.75,15.671-2.046,16.666-3.5c0.995-1.454,5.669-8.666,9-9.833c3.331-1.167,7.165,1.017,10-0.333s5.411-3.266,7-3.334
	c1.589-0.068,15.334-0.666,15.334-0.666s6-4.667,10-5.334c83,13,148.335,51.334,173.334,52.667s49.546-16.167,55.667-17.667
	s19.547,2.375,24.334,2s5.586-5.875,12.999-7s37.587-1.75,44-1s92.854,27.543,102.31,29.334s83,7.666,83,7.666h21.138v43.334H1.695"
	/>
</svg>
