<?xml version="1.0" encoding="utf-8"?>
<!-- Generator: Adobe Illustrator 14.0.0, SVG Export Plug-In . SVG Version: 6.00 Build 43363)  -->
<!DOCTYPE svg PUBLIC "-//W3C//DTD SVG 1.1//EN" "http://www.w3.org/Graphics/SVG/1.1/DTD/svg11.dtd">
<svg version="1.1" id="Layer_1" xmlns="http://www.w3.org/2000/svg" xmlns:xlink="http://www.w3.org/1999/xlink" x="0px" y="0px"
	 width="100px" height="226.366px" viewBox="250 173.559 100 226.366" enable-background="new 250 173.559 100 226.366"
	 xml:space="preserve">
<g>
	<path fill-rule="evenodd" clip-rule="evenodd" d="M338.622,173.559c0.411,75.232,0.077,151.198,0.186,226.736
		c-4.258-0.123-9.008,0.247-12.957-0.185c0.034-46.307,0-91.626,0-138.448c0-9.317,0.243-18.726-0.74-27.023
		c-1.852-15.626-7.548-30.981-24.432-31.096c-16.996-0.115-22.365,15.787-24.432,31.096c-1.116,8.26-0.741,17.621-0.741,27.023
		c0,46.144-0.095,92.579-0.371,138.263c-4.565,0-9.131,0-13.696,0c0-75.455,0-150.913,0-226.366
		C287.167,173.559,312.896,173.559,338.622,173.559z M265.696,176.891c0.238-0.503,0.948-0.533,1.111-1.111
		c-0.684,0.118-1.844-0.239-2.221,0.186C265.073,176.157,265.209,176.699,265.696,176.891z M271.064,176.891
		c0.455-0.286,0.737-0.744,1.111-1.111c-0.741,0-1.481,0-2.221,0C270.096,176.378,270.466,176.749,271.064,176.891z
		 M278.098,176.891c0.368-0.373,0.875-0.605,1.11-1.111c-0.684,0.118-1.844-0.239-2.221,0.186
		C277.474,176.157,277.61,176.699,278.098,176.891z M283.28,176.891c0.681-0.122,0.922-0.683,1.296-1.111c-0.74,0-1.48,0-2.221,0
		C282.281,176.532,283.143,176.35,283.28,176.891z M292.165,175.78c-0.623,0.117-1.719-0.238-2.036,0.186
		C290.885,176.951,291.563,176.918,292.165,175.78z M296.236,176.891c0.681-0.122,0.922-0.683,1.296-1.111
		c-0.684,0.118-1.844-0.239-2.221,0.186C295.698,176.195,296.007,176.503,296.236,176.891z M305.861,175.78
		c-0.623,0.117-1.719-0.238-2.036,0.186C304.581,176.951,305.26,176.918,305.861,175.78z M309.934,176.891
		c0.681-0.122,0.922-0.683,1.295-1.111c-0.684,0.118-1.844-0.239-2.221,0.186C309.395,176.195,309.703,176.503,309.934,176.891z
		 M318.077,176.891c0.069-0.609,0.984-0.374,0.925-1.111c-0.622,0.117-1.718-0.238-2.035,0.186
		C317.454,176.157,317.59,176.699,318.077,176.891z M323.074,176.891c0.736-0.128,0.914-0.814,1.481-1.111c-0.741,0-1.481,0-2.222,0
		C322.301,176.43,322.959,176.389,323.074,176.891z M329.553,176.891c0.681-0.122,0.922-0.683,1.296-1.111c-0.679,0-1.357,0-2.036,0
		C328.779,176.43,329.438,176.389,329.553,176.891z M334.921,176.891c0.68-0.122,0.922-0.683,1.295-1.111
		c-0.684,0.118-1.844-0.239-2.221,0.186C334.382,176.195,334.691,176.503,334.921,176.891z M266.807,178.001
		c0.691,0.296,0.823,1.151,1.666,1.295C271.597,178.183,267.609,174.722,266.807,178.001z M279.208,178.001
		c0.667,0.382,0.999,1.099,1.666,1.48c0.382-0.667,1.099-0.999,1.48-1.666C281.353,176.376,279.902,176.008,279.208,178.001z
		 M292.165,177.631c0.255,0.917,1.14,1.204,1.666,1.851c0.366-0.745,1.326-0.896,1.666-1.666c-0.657-0.454-1.098-1.124-1.851-1.48
		C293.266,176.881,292.823,177.363,292.165,177.631z M305.861,178.001c0.672,0.438,1.108,1.113,1.851,1.48
		c0.218-0.831,1.201-0.896,1.48-1.666c-0.656-0.454-1.097-1.124-1.851-1.48C306.96,177.002,306.243,177.334,305.861,178.001z
		 M319.188,178.001c0.458,0.529,0.957,1.017,1.666,1.295C323.985,178.174,319.965,174.748,319.188,178.001z M330.849,177.631
		c0.72,1.927,2.288,2.055,3.146,0.185c-0.374-0.675-1.097-1.001-1.666-1.48C332.005,176.936,331.403,177.261,330.849,177.631z
		 M263.29,179.297c0.296-0.691,1.152-0.823,1.296-1.666c-0.51-0.354-0.971-0.756-1.48-1.111
		C263.225,177.388,262.863,178.737,263.29,179.297z M275.691,179.297c0.296-0.691,1.151-0.823,1.296-1.666
		c-0.564-0.3-0.798-0.929-1.481-1.111C275.626,177.388,275.264,178.737,275.691,179.297z M302.529,179.112
		c0.448-0.416,0.985-0.742,1.296-1.296c-0.606-0.319-0.874-0.977-1.48-1.296C302.464,177.327,302.103,178.613,302.529,179.112z
		 M315.486,179.112c0.723-0.264,1.216-0.758,1.48-1.481c-0.683-0.181-0.917-0.811-1.48-1.111
		C315.486,177.384,315.486,178.248,315.486,179.112z M327.517,179.112c0.213-0.651,1.05-0.678,1.296-1.296
		c-0.606-0.319-0.874-0.977-1.48-1.296C327.451,177.327,327.09,178.613,327.517,179.112z M288.647,178.927
		c0.763-0.101,1.119-0.609,1.481-1.111c-0.628-0.235-0.701-1.026-1.481-1.11C288.647,177.446,288.647,178.186,288.647,178.927z
		 M298.828,179.112c-0.119-0.745,0.241-1.968-0.185-2.406C297.464,177.585,297.497,178.387,298.828,179.112z M273.285,178.927
		c-0.187-0.616,0.409-2.014-0.37-2.036C271.883,177.62,271.958,178.506,273.285,178.927z M285.686,178.927
		c-0.186-0.616,0.41-2.014-0.37-2.036C284.285,177.62,284.359,178.506,285.686,178.927z M312.34,178.927
		c-0.118-0.624,0.238-1.719-0.186-2.036C311.168,177.646,311.2,178.325,312.34,178.927z M325.666,178.927
		c-0.115-0.687,0.301-1.905-0.37-2.036C324.265,177.62,324.339,178.506,325.666,178.927z M336.216,178.001
		c0.395,0.285,0.689,0.668,1.111,0.925c-0.118-0.624,0.237-1.719-0.186-2.036C337.004,177.432,336.143,177.249,336.216,178.001z
		 M264.031,180.222c0.325,0.785,0.88,1.341,1.666,1.666c0.633-0.477,1.188-1.033,1.666-1.666c-0.753-0.357-1.194-1.027-1.851-1.48
		C265.096,179.313,264.602,179.806,264.031,180.222z M289.388,180.222c0.31,0.739,1.148,0.95,1.481,1.666
		c0.827-0.221,1.085-1.012,1.851-1.295c-0.299-0.873-1.059-1.286-1.666-1.851C290.601,179.337,290.126,179.911,289.388,180.222z
		 M303.085,180.222c0.218,0.831,1.201,0.897,1.48,1.666c0.828-0.221,1.085-1.012,1.852-1.295c-0.3-0.873-1.06-1.286-1.666-1.851
		C304.298,179.337,303.823,179.911,303.085,180.222z M316.412,180.222c0.325,0.785,0.88,1.341,1.665,1.666
		c0.633-0.477,1.188-1.033,1.666-1.666c-0.84-0.27-1.143-1.078-1.851-1.48C317.477,179.313,316.982,179.806,316.412,180.222z
		 M328.072,180.592c0.746,0.18,1.043,0.809,1.48,1.295c0.881-0.168,0.993-1.104,1.851-1.295c-0.299-0.873-1.058-1.286-1.666-1.851
		C329.418,179.593,328.299,179.647,328.072,180.592z M269.213,180.592c0.01,0.142,1.485,1.51,1.851,1.481
		c0.628-0.05,1.102-1.453,1.481-1.851C272.034,178.345,269.121,179.329,269.213,180.592z M276.432,180.222
		c0.325,0.785,0.881,1.341,1.666,1.666c0.633-0.477,1.188-1.033,1.666-1.666C278.583,179.017,277.508,178.685,276.432,180.222z
		 M281.614,180.592c1.29,1.438,2.489,1.679,3.332-0.37C283.934,178.571,282.458,179.032,281.614,180.592z M296.421,182.073
		c0.4-0.649,1.021-1.078,1.666-1.481C296.959,177.278,293.083,180.873,296.421,182.073z M310.118,182.073
		c0.318-0.855,1.488-0.856,1.666-1.851C310.155,177.534,307.023,180.937,310.118,182.073z M321.594,180.592
		c0.011,0.142,1.485,1.51,1.852,1.481c0.628-0.05,1.101-1.453,1.48-1.851C324.414,178.345,321.502,179.329,321.594,180.592z
		 M335.105,182.073c0.362-0.811,1.379-0.966,1.666-1.851C334.651,177.622,332.144,181.034,335.105,182.073z M280.504,184.479
		c0.785-0.325,1.34-0.881,1.666-1.666c-0.667-0.382-0.999-1.099-1.666-1.48C278.987,182.491,278.987,183.321,280.504,184.479z
		 M305.861,183.184c0.592,0.396,1.103,0.872,1.666,1.296c0.503-0.546,1.272-0.825,1.48-1.666c-0.667-0.382-0.999-1.099-1.666-1.48
		C306.984,182.086,306.065,182.278,305.861,183.184z M268.103,184.479c0.785-0.325,1.34-0.881,1.666-1.666
		C268.3,180.184,265.316,183.168,268.103,184.479z M292.165,183.184c0.592,0.396,1.103,0.872,1.666,1.296
		c0.504-0.546,1.273-0.825,1.481-1.666C294.386,181.309,292.753,181.375,292.165,183.184z M320.483,184.479
		c0.785-0.325,1.34-0.881,1.666-1.666C320.682,180.184,317.697,183.168,320.483,184.479z M330.663,182.999
		c1.077,1.345,2.229,1.736,3.332,0.185C333.321,181.176,331.616,181.509,330.663,182.999z M263.29,184.294
		c1.202-0.913,1.569-1.987-0.185-2.591C263.225,182.509,262.864,183.795,263.29,184.294z M275.691,184.294
		c1.202-0.913,1.569-1.987-0.185-2.591C275.626,182.509,275.265,183.795,275.691,184.294z M297.532,182.813
		c0.18,0.746,0.809,1.042,1.295,1.481c-0.119-0.806,0.242-2.092-0.185-2.591C298.351,182.151,297.98,182.521,297.532,182.813z
		 M302.345,184.109c0.745-0.18,1.042-0.809,1.48-1.296c-0.683-0.181-0.917-0.811-1.48-1.11
		C302.345,182.505,302.345,183.307,302.345,184.109z M315.671,184.294c1.222-0.934,1.54-1.958-0.185-2.591
		C315.605,182.509,315.244,183.795,315.671,184.294z M327.517,184.109c0.394-0.286,0.689-0.668,1.111-0.926
		c-0.181-0.746-0.81-1.042-1.296-1.48C327.45,182.448,327.091,183.671,327.517,184.109z M271.99,182.813
		c0.203,0.661,0.634,1.093,1.295,1.296C273.566,182.074,272.963,181.471,271.99,182.813z M284.391,182.813
		c0.203,0.661,0.635,1.093,1.295,1.296C285.968,182.074,285.365,181.471,284.391,182.813z M288.647,184.109
		c0.661-0.203,1.093-0.635,1.296-1.296c-0.485-0.255-0.637-0.843-1.296-0.926C288.647,182.628,288.647,183.369,288.647,184.109z
		 M311.229,182.813c0.122,0.681,0.683,0.922,1.111,1.296c-0.119-0.684,0.239-1.844-0.186-2.222
		C311.925,182.275,311.616,182.584,311.229,182.813z M324.37,182.813c0.203,0.661,0.635,1.093,1.296,1.296
		c-0.129-0.735,0.322-2.05-0.37-2.222C325.066,182.275,324.757,182.584,324.37,182.813z M336.216,182.813
		c0.121,0.681,0.683,0.922,1.111,1.296c-0.118-0.684,0.239-1.844-0.186-2.222C336.912,182.275,336.604,182.584,336.216,182.813z
		 M264.216,185.22c0.867-0.12,2.216,0.242,2.776-0.185c-0.51-0.354-0.971-0.757-1.481-1.111
		C265.174,184.451,264.459,184.599,264.216,185.22z M269.583,185.22c0.806-0.119,2.092,0.242,2.591-0.185
		c-0.546-0.256-0.75-0.855-1.295-1.111C270.542,184.451,269.827,184.599,269.583,185.22z M276.617,185.22
		c0.867-0.12,2.216,0.242,2.776-0.185c-0.509-0.354-0.906-0.821-1.48-1.111C277.7,184.575,276.863,184.602,276.617,185.22z
		 M281.984,185.22c0.806-0.119,2.092,0.242,2.591-0.185c-0.546-0.256-0.75-0.855-1.296-1.111
		C283.034,184.542,282.197,184.569,281.984,185.22z M289.758,185.22c0.806-0.119,2.092,0.242,2.591-0.185
		C291.499,183.81,290.446,183.843,289.758,185.22z M295.126,185.22c0.806-0.119,2.092,0.242,2.591-0.185
		c-0.51-0.354-0.971-0.757-1.481-1.111C295.98,184.47,295.382,184.673,295.126,185.22z M303.455,185.22
		c0.807-0.119,2.093,0.242,2.591-0.185C305.196,183.81,304.143,183.843,303.455,185.22z M308.823,185.22
		c0.806-0.119,2.092,0.242,2.591-0.185c-0.51-0.354-0.971-0.757-1.48-1.111C309.678,184.47,309.078,184.673,308.823,185.22z
		 M316.596,185.22c0.807-0.119,2.094,0.242,2.592-0.185C318.337,183.81,317.284,183.843,316.596,185.22z M321.965,185.22
		c0.806-0.119,2.092,0.242,2.591-0.185c-0.563-0.3-0.799-0.93-1.481-1.111C322.818,184.47,322.22,184.673,321.965,185.22z
		 M328.442,185.22c0.806-0.119,2.092,0.242,2.592-0.185C330.183,183.81,329.13,183.843,328.442,185.22z M333.81,185.22
		c0.803,0,1.604,0,2.406,0c-0.148-0.715-0.904-0.823-1.295-1.296C334.665,184.47,334.065,184.673,333.81,185.22z M265.881,188.366
		c0.388-0.23,0.696-0.539,0.926-0.925c-0.624,0.117-1.719-0.238-2.036,0.185C265.273,187.741,265.232,188.399,265.881,188.366z
		 M272.175,187.441c-0.684,0.118-1.844-0.24-2.221,0.185C270.909,188.43,271.515,188.722,272.175,187.441z M278.283,188.366
		c0.387-0.23,0.696-0.539,0.925-0.925c-0.623,0.117-1.719-0.238-2.036,0.185C277.674,187.741,277.633,188.399,278.283,188.366z
		 M284.576,187.441c-0.684,0.118-1.844-0.24-2.221,0.185C283.353,188.386,283.886,188.753,284.576,187.441z M291.054,188.366
		c0.58-0.161,1.022-0.458,1.296-0.925c-0.623,0.117-1.719-0.238-2.036,0.185C290.64,187.793,290.887,188.04,291.054,188.366z
		 M297.717,187.441c-0.684,0.118-1.844-0.24-2.221,0.185C296.329,188.761,296.892,188.363,297.717,187.441z M304.751,188.366
		c0.58-0.161,1.021-0.458,1.295-0.925c-0.622,0.117-1.719-0.238-2.035,0.185C304.337,187.793,304.584,188.04,304.751,188.366z
		 M311.414,187.441c-0.685,0.118-1.844-0.24-2.222,0.185C310.025,188.761,310.588,188.363,311.414,187.441z M318.262,188.366
		c0.388-0.23,0.696-0.539,0.926-0.925c-0.623,0.117-1.719-0.238-2.035,0.185C317.653,187.741,317.612,188.399,318.262,188.366z
		 M323.63,188.551c0.191-0.487,0.734-0.623,0.926-1.11c-0.685,0.118-1.844-0.24-2.222,0.185
		C322.775,187.925,323.15,188.291,323.63,188.551z M329.737,188.366c0.659-0.082,0.812-0.67,1.297-0.925
		c-0.624,0.117-1.72-0.238-2.037,0.185C329.324,187.793,329.57,188.04,329.737,188.366z M336.401,187.441
		c-0.684,0.118-1.844-0.24-2.221,0.185C335.013,188.761,335.576,188.363,336.401,187.441z M263.476,190.772
		c1.372-1.002,1.338-1.928-0.186-2.776C263.41,188.863,263.048,190.212,263.476,190.772z M268.288,190.958
		c0.785-0.325,1.341-0.881,1.666-1.666C268.486,186.663,265.501,189.647,268.288,190.958z M275.876,190.772
		c1.372-1.002,1.338-1.928-0.185-2.776C275.811,188.863,275.449,190.212,275.876,190.772z M280.689,190.958
		c0.785-0.325,1.34-0.881,1.666-1.666C280.887,186.663,277.902,189.647,280.689,190.958z M292.35,189.662
		c0.766,0.283,1.023,1.075,1.851,1.296c0.296-0.691,1.151-0.823,1.295-1.666C294.543,187.815,292.939,187.853,292.35,189.662z
		 M306.046,189.662c0.767,0.283,1.023,1.075,1.852,1.296c0.296-0.691,1.151-0.823,1.295-1.666
		C308.268,187.788,306.635,187.854,306.046,189.662z M320.668,190.958c0.786-0.325,1.341-0.881,1.666-1.666
		C320.866,186.663,317.882,189.647,320.668,190.958z M327.517,190.772c0.477-0.326,0.799-0.805,1.296-1.111
		c-0.239-0.809-0.935-1.164-1.48-1.666C327.452,188.863,327.09,190.212,327.517,190.772z M331.034,189.662
		c0.637,0.35,0.901,1.073,1.665,1.296c0.504-0.545,1.272-0.825,1.481-1.666C333.227,187.815,331.623,187.853,331.034,189.662z
		 M288.833,190.587c0.746-0.18,1.042-0.809,1.48-1.296c-0.682-0.181-0.917-0.811-1.48-1.11
		C288.833,188.983,288.833,189.785,288.833,190.587z M302.345,190.772c0.81-0.239,1.163-0.934,1.666-1.481
		c-0.778-0.148-0.86-0.991-1.666-1.11C302.345,189.045,302.345,189.909,302.345,190.772z M315.855,190.772
		c1.202-0.913,1.57-1.987-0.185-2.591C315.79,188.987,315.43,190.273,315.855,190.772z M272.175,189.292
		c0.122,0.681,0.682,0.922,1.11,1.296c-0.118-0.684,0.24-1.844-0.185-2.221C272.871,188.753,272.562,189.062,272.175,189.292z
		 M284.576,189.292c0.122,0.681,0.683,0.922,1.11,1.296c-0.106-0.986,0.466-1.657-0.185-2.221
		C285.271,188.753,284.963,189.062,284.576,189.292z M297.717,189.292c0.203,0.661,0.635,1.093,1.296,1.296
		C299.294,188.552,298.691,187.949,297.717,189.292z M311.414,189.292c0.122,0.681,0.682,0.922,1.11,1.296
		c-0.118-0.684,0.239-1.844-0.185-2.221C312.109,188.753,311.801,189.062,311.414,189.292z M324.556,189.292
		c0.122,0.681,0.682,0.922,1.11,1.296c-0.118-0.684,0.239-1.844-0.186-2.221C325.251,188.753,324.942,189.062,324.556,189.292z
		 M336.401,189.292c0.064,0.614,0.555,0.803,0.926,1.11c-0.117-0.562,0.236-1.594-0.186-1.851
		C336.975,188.878,336.728,189.125,336.401,189.292z M264.031,192.068c0.708,0.402,1.01,1.211,1.851,1.481
		c0.357-0.753,1.276-0.945,1.481-1.851c-0.592-0.396-1.103-0.871-1.666-1.296C265.269,191.085,264.384,191.311,264.031,192.068z
		 M269.398,192.068c0.571,0.416,1.065,0.91,1.481,1.481c1.963-0.757,2.002-2.236,0.185-3.147
		C270.698,191.147,269.738,191.297,269.398,192.068z M276.432,192.068c0.708,0.402,1.011,1.211,1.851,1.481
		c0.357-0.753,1.276-0.945,1.48-1.851c-0.666-0.321-1.083-0.892-1.666-1.296C277.669,191.085,276.785,191.311,276.432,192.068z
		 M281.799,192.253c0.93,0.12,0.921,1.177,1.851,1.296c1.564-1.126,1.53-2.175-0.185-3.147
		C283.148,191.257,281.977,191.258,281.799,192.253z M289.573,192.253c0.843,0.144,0.975,1,1.666,1.296
		C294.617,192.232,290.554,188.744,289.573,192.253z M294.941,191.883c0.28,0.83,0.946,1.274,1.666,1.666
		c0.513-0.598,1.269-0.953,1.666-1.666c-0.626-0.484-1.173-1.048-1.851-1.481C296.006,190.973,295.512,191.467,294.941,191.883z
		 M305.861,191.328c-0.225-0.225-0.356-0.573-0.556-0.74c-0.606-0.512-2.042,1.353-2.035,1.48c0.02,0.471,1.126,0.735,1.665,1.481
		C306.173,192.404,306.79,192.256,305.861,191.328z M308.638,191.883c0.325,0.785,0.881,1.34,1.666,1.666
		c0.594-0.517,1.216-1.005,1.665-1.666c-0.626-0.484-1.173-1.048-1.851-1.481C309.703,190.973,309.209,191.467,308.638,191.883z
		 M318.262,193.549c0.382-0.667,1.1-0.999,1.481-1.666c-0.579-0.47-1.041-1.057-1.666-1.481
		C316.297,191.35,316.272,192.765,318.262,193.549z M321.779,192.068c0.524,0.585,1.055,1.167,1.851,1.481
		c1.626-1.112,1.519-2.337-0.37-3.147C322.878,191.069,322.161,191.401,321.779,192.068z M329.923,193.549
		c0.285-0.006,1.669-1.489,1.666-1.666c-0.012-0.678-0.296-0.112-0.74-0.556c-1.259-1.258-1.728-0.441-2.592,0.925
		C329.196,192.061,329.02,193.567,329.923,193.549z M333.625,191.883c0.325,0.785,0.881,1.34,1.665,1.666
		c0.329-0.721,1.372-0.727,1.481-1.666c-0.536-0.513-1.086-1.012-1.666-1.481C334.689,190.973,334.196,191.467,333.625,191.883z
		 M266.807,194.289c0.728,2.017,2.419,2.017,3.146,0c-0.843-0.144-0.975-1-1.666-1.295
		C267.838,193.47,267.311,193.868,266.807,194.289z M279.208,194.289c0.801,2.09,2.245,1.842,3.332,0.185
		c-0.677-0.433-1.224-0.997-1.851-1.48C280.331,193.561,279.676,193.832,279.208,194.289z M292.165,194.659
		c0.84,0.271,1.143,1.079,1.851,1.481c0.382-0.667,1.099-0.999,1.48-1.666C294.399,192.864,293.1,192.897,292.165,194.659z
		 M305.861,194.659c1.705,1.475,2.054,1.708,3.331-0.185C308.097,192.864,306.796,192.897,305.861,194.659z M319.188,194.659
		c0.667,0.382,0.999,1.099,1.666,1.481c0.382-0.667,1.099-0.999,1.48-1.666C321.333,193.034,319.881,192.666,319.188,194.659z
		 M330.849,194.659c0.766,0.283,1.023,1.074,1.851,1.296C335.801,194.672,331.849,191.527,330.849,194.659z M263.476,195.77
		c0.235-0.628,1.026-0.701,1.11-1.48c-0.546-0.256-0.75-0.855-1.296-1.11C263.41,193.985,263.049,195.271,263.476,195.77z
		 M275.876,195.77c0.235-0.628,1.026-0.701,1.111-1.48c-0.546-0.256-0.75-0.855-1.296-1.11
		C275.811,193.985,275.45,195.271,275.876,195.77z M302.345,195.77c0.723-0.264,1.216-0.757,1.48-1.48
		c-0.51-0.354-0.906-0.821-1.48-1.11C302.345,194.042,302.345,194.906,302.345,195.77z M315.855,195.77
		c0.236-0.628,1.027-0.701,1.111-1.48c-0.546-0.256-0.75-0.855-1.296-1.11C315.79,193.985,315.43,195.271,315.855,195.77z
		 M327.332,195.77c0.723-0.264,1.217-0.757,1.48-1.48c-0.51-0.354-0.972-0.756-1.48-1.11
		C327.332,194.042,327.332,194.906,327.332,195.77z M273.285,195.585c-0.118-0.684,0.24-1.844-0.185-2.221
		C272.091,194.153,271.724,195.103,273.285,195.585z M289.018,195.77c0.235-0.628,1.027-0.701,1.111-1.48
		c-0.487-0.253-0.702-0.779-1.295-0.925C288.952,194.109,288.592,195.332,289.018,195.77z M298.643,193.364
		c-1.225,0.851-1.152,1.863,0.37,2.406C298.813,195.044,299.441,193.49,298.643,193.364z M312.524,195.77
		c-0.119-0.745,0.24-1.968-0.185-2.406C311.161,194.243,311.194,195.045,312.524,195.77z M325.666,195.585
		c-0.118-0.684,0.239-1.844-0.186-2.221C324.471,194.153,324.104,195.103,325.666,195.585z M284.576,194.659
		c0.186,0.493,0.747,0.61,1.11,0.926c-0.15-0.942,0.562-1.752-0.37-2.036C285.201,194.051,284.543,194.009,284.576,194.659z
		 M337.327,195.585c-0.118-0.624,0.237-1.72-0.186-2.036C336.156,194.305,336.188,194.983,337.327,195.585z M289.758,196.88
		c0.867-0.12,2.216,0.242,2.776-0.185c-0.606-0.319-0.875-0.977-1.481-1.296C290.735,196.006,290.078,196.274,289.758,196.88z
		 M303.455,196.88c0.867-0.12,2.216,0.242,2.776-0.185c-0.606-0.319-0.874-0.977-1.48-1.296
		C304.432,196.006,303.774,196.274,303.455,196.88z M328.442,196.88c0.867-0.12,2.216,0.242,2.776-0.185
		c-0.606-0.319-0.874-0.977-1.481-1.296C329.419,196.006,328.762,196.274,328.442,196.88z M264.216,196.88
		c0.929-0.12,2.34,0.243,2.961-0.185c-0.624-0.302-0.79-1.061-1.666-1.11C265.298,196.235,264.462,196.263,264.216,196.88z
		 M269.583,196.88c0.867-0.12,2.216,0.242,2.776-0.185C271.485,195.378,270.405,195.63,269.583,196.88z M276.617,196.88
		c0.928-0.12,2.34,0.243,2.961-0.185C278.663,195.275,277.496,195.681,276.617,196.88z M281.984,196.88
		c0.867-0.12,2.216,0.242,2.777-0.185C283.823,195.316,282.901,195.725,281.984,196.88z M295.126,196.88
		c0.867-0.12,2.216,0.242,2.776-0.185C297.047,195.463,295.777,195.46,295.126,196.88z M308.823,196.88
		c0.866-0.12,2.216,0.242,2.775-0.185C310.744,195.463,309.475,195.46,308.823,196.88z M316.596,196.88
		c0.929-0.12,2.341,0.243,2.963-0.185C318.653,195.445,317.353,195.516,316.596,196.88z M321.965,196.88
		c0.866-0.12,2.216,0.242,2.775-0.185C323.896,195.409,322.73,195.574,321.965,196.88z M333.81,196.88
		c0.868-0.12,2.217,0.242,2.777-0.185C335.731,195.463,334.461,195.46,333.81,196.88z M265.696,200.397
		c0.327-0.167,0.573-0.414,0.741-0.74c-0.494,0-0.987,0-1.481,0C264.979,200.128,265.226,200.375,265.696,200.397z M271.805,199.657
		c-0.502,0.115-1.469-0.235-1.666,0.185C270.771,200.635,271.327,200.604,271.805,199.657z M277.913,200.767
		c0.277-0.401,0.926-0.431,0.925-1.11c-0.617,0-1.234,0-1.851,0C277.052,200.271,277.542,200.46,277.913,200.767z M283.28,200.767
		c0.278-0.401,0.927-0.431,0.926-1.11c-0.679,0-1.357,0-2.036,0C282.233,200.333,282.803,200.504,283.28,200.767z M290.499,200.397
		c0.217-0.276,0.769-0.218,0.74-0.74c-0.502,0.115-1.469-0.235-1.666,0.185C290.01,199.899,289.918,200.485,290.499,200.397z
		 M295.866,200.583c0.033-0.522,0.88-0.231,0.741-0.926c-0.556,0-1.111,0-1.666,0C294.91,200.305,295.592,200.24,295.866,200.583z
		 M304.195,200.583c0.613-0.065,0.804-0.555,1.11-0.926c-0.562,0.116-1.594-0.237-1.851,0.185
		C303.632,200.159,304.069,200.215,304.195,200.583z M309.748,200.583c0.387-0.23,0.695-0.539,0.926-0.926
		c-0.623,0.117-1.72-0.238-2.036,0.185C309.14,199.957,309.098,200.615,309.748,200.583z M318.077,200.583
		c0.125-0.43,0.615-0.496,0.741-0.926c-0.563,0.116-1.595-0.237-1.852,0.185C317.373,200.052,317.581,200.461,318.077,200.583z
		 M323.074,200.583c0.614-0.065,0.803-0.555,1.111-0.926c-0.562,0.116-1.595-0.237-1.852,0.185
		C322.66,200.009,322.907,200.256,323.074,200.583z M330.478,199.657c-0.383,0.11-1.215-0.229-1.295,0.185
		C329.526,200.314,330.33,200.309,330.478,199.657z M334.921,200.397c0.542-0.012,0.688-0.423,0.926-0.74
		c-0.443,0.113-1.344-0.232-1.481,0.185C334.632,199.945,334.816,200.131,334.921,200.397z M266.807,201.693
		c0.691,0.296,0.823,1.151,1.666,1.296c0.38-0.483,0.991-0.737,1.295-1.296C269.197,199.822,267.378,199.822,266.807,201.693z
		 M291.609,201.693c0.691,0.296,0.823,1.151,1.666,1.296c0.433-0.493,1.155-0.696,1.296-1.481
		C293.79,199.859,292.201,199.881,291.609,201.693z M327.146,202.618c0.724-0.264,1.217-0.757,1.481-1.48
		c-0.629-0.235-0.701-1.026-1.481-1.111C327.146,200.891,327.146,201.754,327.146,202.618z M330.849,201.507
		c0.567,0.358,0.929,0.923,1.48,1.296c0.746-0.303,1.371-0.727,1.666-1.48C333.266,199.648,331.504,200.015,330.849,201.507z
		 M263.29,202.803c1.356-0.758,1.483-2.073-0.185-2.591C263.225,201.018,262.864,202.304,263.29,202.803z M279.023,201.878
		c0.691,0.296,0.823,1.151,1.666,1.295C283.821,202.051,279.8,198.624,279.023,201.878z M288.093,202.803
		c0.358-0.444,1.039-0.565,1.11-1.296c-0.354-0.509-0.786-0.941-1.296-1.295C288.026,201.018,287.666,202.304,288.093,202.803z
		 M305.491,201.878c0.691,0.296,0.822,1.151,1.666,1.295c0.503-0.545,1.271-0.825,1.48-1.666
		C307.448,200.268,306.211,199.938,305.491,201.878z M320.668,203.173c0.45-0.476,0.978-0.875,1.481-1.295
		C321.126,198.547,317.356,202.01,320.668,203.173z M275.321,202.989c1.802-0.573,1.401-1.866,0-2.592
		C275.321,201.261,275.321,202.125,275.321,202.989z M301.974,202.433c0.552-0.066,0.939-0.295,1.297-0.555
		c-0.265-0.723-0.758-1.217-1.481-1.481C301.85,201.078,301.631,202.036,301.974,202.433z M315.301,202.803
		c0.83-0.157,1.323-0.651,1.48-1.48c-0.632-0.17-0.717-0.887-1.48-0.926C315.301,201.199,315.301,202.001,315.301,202.803z
		 M337.327,202.433c-0.117-0.964,0.429-1.505-0.186-2.036C336.156,201.153,336.188,201.832,337.327,202.433z M272.175,201.323
		c0.122,0.68,0.682,0.922,1.11,1.295c-0.187-0.616,0.409-2.013-0.37-2.036C272.748,200.909,272.501,201.155,272.175,201.323z
		 M296.977,201.693c0.197,0.419,0.562,0.672,1.11,0.74C298.517,200.507,297.358,200.223,296.977,201.693z M285.501,202.803
		c-0.118-0.623,0.238-1.719-0.186-2.036C284.068,201.36,284.142,202.358,285.501,202.803z M310.674,201.693
		c0.565,0.175,0.579,0.9,1.295,0.925c-0.177-0.563,0.397-1.877-0.37-1.851C311.517,201.301,310.803,201.205,310.674,201.693z
		 M324.37,201.507c0.143,0.599,0.512,0.969,1.11,1.111c-0.178-0.563,0.396-1.877-0.37-1.851
		C324.943,201.094,324.697,201.34,324.37,201.507z M264.031,204.284c0.604,0.322,0.926,0.925,1.666,1.111
		c0.523-0.402,1.114-0.737,1.481-1.295c-0.229-0.882-1.033-1.188-1.666-1.666C265.154,203.187,264.235,203.378,264.031,204.284z
		 M328.257,204.099c0.691,0.296,0.823,1.151,1.666,1.295C332.945,204,329.229,200.884,328.257,204.099z M333.625,204.099
		c0.31,0.554,0.847,0.88,1.296,1.295c0.827-0.221,1.085-1.012,1.851-1.295C336.143,202.274,334.178,202.17,333.625,204.099z
		 M269.398,203.914c0.28,0.831,0.947,1.275,1.666,1.666c0.358-0.567,1.013-0.838,1.481-1.296
		C271.956,202.475,270.351,202.438,269.398,203.914z M288.833,204.284c0.326,0.167,0.573,0.415,0.74,0.741
		c0.765-0.408,1.679-0.666,2.221-1.295c-0.628-0.235-0.701-1.027-1.48-1.111C289.81,203.164,289.041,203.443,288.833,204.284z
		 M316.412,204.284c0.309,0.554,0.847,0.881,1.295,1.296c0.8-0.187,1.216-0.758,1.666-1.296
		C318.802,202.413,316.982,202.413,316.412,204.284z M276.247,204.099c0.325,0.785,0.88,1.34,1.666,1.666
		c0.552-0.374,0.914-0.938,1.48-1.296C278.771,202.627,277.282,202.706,276.247,204.099z M281.614,204.469
		c0.691,0.296,0.823,1.151,1.666,1.296c0.547-0.502,1.242-0.856,1.481-1.666c-0.583-0.404-1-0.975-1.666-1.296
		C282.776,203.534,281.79,203.596,281.614,204.469z M308.823,203.729c0.869,0.112,1.622,1.138,2.405,0.74
		C310.934,203.484,309.251,201.929,308.823,203.729z M321.594,204.284c0.668,0.382,0.999,1.1,1.666,1.481
		c0.409-0.702,1.241-0.98,1.666-1.666C324.013,202.607,322.358,202.652,321.594,204.284z M332.515,207.801
		c0.6-0.387,1.245-0.729,1.48-1.481C332.639,203.579,329.28,206.938,332.515,207.801z M266.807,206.69
		c0.401,0.586,0.901,1.074,1.666,1.296c0.433-0.493,1.154-0.696,1.295-1.48C269.116,205.021,267.227,204.965,266.807,206.69z
		 M319.002,206.875c0.639,0.35,0.902,1.072,1.666,1.295c0.434-0.493,1.155-0.696,1.297-1.481
		C321.206,205.02,319.6,205.058,319.002,206.875z M327.146,207.616c0.725-0.201,1.233-0.618,1.481-1.296
		c-0.629-0.235-0.701-1.026-1.481-1.11C327.146,206.012,327.146,206.814,327.146,207.616z M263.29,207.801
		c0.425-0.316,0.795-0.686,1.111-1.111c-0.203-0.661-0.635-1.093-1.295-1.295C263.224,206.14,262.865,207.363,263.29,207.801z
		 M278.838,206.875c0.691,0.296,0.823,1.151,1.666,1.295c0.723-0.264,1.217-0.758,1.48-1.481
		C281.028,205.219,279.708,205.356,278.838,206.875z M336.216,206.69c0.502,0.115,0.461,0.773,1.111,0.741
		c-0.118-0.624,0.237-1.719-0.186-2.036C336.967,205.96,336.241,205.975,336.216,206.69z M273.285,207.616
		c-0.187-0.616,0.409-2.014-0.37-2.036C271.883,206.308,271.958,207.195,273.285,207.616z M275.321,207.986
		c0.661-0.203,1.093-0.635,1.296-1.296c-0.477-0.326-0.8-0.805-1.296-1.11C275.321,206.382,275.321,207.184,275.321,207.986z
		 M315.301,207.616c0.574,0.439,0.971-0.536,1.48-0.74c-0.26-0.666-0.621-1.229-1.48-1.296
		C315.301,206.258,315.301,206.937,315.301,207.616z M324.37,206.875c0.314,0.364,0.567,0.789,1.11,0.925
		C325.9,205.877,324.833,205.25,324.37,206.875z M284.206,206.875c0.373,0.429,0.674,0.93,1.296,1.11
		c-0.187-0.616,0.409-2.013-0.37-2.036C285.002,206.438,284.289,206.341,284.206,206.875z M328.442,208.911c0.863,0,1.728,0,2.592,0
		C330.563,207.256,328.883,207.242,328.442,208.911z M264.216,208.911c0.864,0,1.728,0,2.591,0
		C266.391,207.257,264.77,207.638,264.216,208.911z M269.769,208.911c0.745-0.119,1.968,0.241,2.406-0.185
		c-0.337-0.464-0.84-0.764-1.295-1.11C270.642,208.18,269.77,208.111,269.769,208.911z M333.81,208.911c0.803,0,1.604,0,2.406,0
		C336.131,207.176,333.986,207.501,333.81,208.911z M276.617,209.281c0.802,0,1.604,0,2.406,0c-0.18-0.746-0.809-1.042-1.295-1.48
		C277.557,208.494,276.465,208.266,276.617,209.281z M316.596,208.911c1.143,0.05,1.324,0.133,2.406,0
		C318.717,207.423,317.009,207.792,316.596,208.911z M321.965,208.911c0.596,0.268,1.552,0.175,2.405,0.186
		C324.036,207.603,322.536,207.672,321.965,208.911z M281.984,209.281c0.802,0,1.604,0,2.406,0
		C284.098,207.814,282.23,207.714,281.984,209.281z M264.771,210.762c0.326,0.167,0.573,0.414,0.74,0.741
		c0.614-0.065,0.803-0.555,1.111-0.926C266.061,210.566,264.975,210.018,264.771,210.762z M269.954,210.762
		c0.339,0.216,0.626,0.484,0.926,0.741c0.613-0.065,0.803-0.555,1.11-0.926C271.303,210.658,270.235,209.959,269.954,210.762z
		 M322.89,211.317c0.613-0.065,0.803-0.554,1.11-0.925c-0.562,0.116-1.594-0.237-1.851,0.185
		C322.476,210.744,322.722,210.991,322.89,211.317z M329.923,211.317c0.387-0.229,0.696-0.538,0.926-0.925
		c-0.623,0.117-1.72-0.239-2.036,0.185C329.314,210.692,329.273,211.35,329.923,211.317z M335.29,211.503
		c0.192-0.487,0.734-0.624,0.926-1.111c-0.679,0-1.356,0-2.035,0C334.197,211.115,334.928,211.125,335.29,211.503z M319.188,212.243
		c0.68,1.748,1.644,1.733,2.777,0.37C321.564,211.164,319.646,210.31,319.188,212.243z M330.849,212.428
		c0.708,0.34,0.814,1.283,1.666,1.48c0.547-0.502,1.241-0.856,1.48-1.666C332.987,210.775,331.765,210.958,330.849,212.428z
		 M266.807,212.613c0.845,1.688,2.418,1.539,3.146-0.185C268.972,211.06,267.552,210.952,266.807,212.613z M327.146,213.724
		c0.724-0.264,1.217-0.757,1.481-1.48c-0.629-0.235-0.701-1.027-1.481-1.111C327.146,211.996,327.146,212.86,327.146,213.724z
		 M263.29,213.909c1.202-0.913,1.569-1.987-0.185-2.591C263.225,212.124,262.864,213.41,263.29,213.909z M277.913,212.243
		c0.369-0.248,0.802-0.432,0.925-0.926c-0.617,0-1.234,0-1.851,0C277.069,211.853,277.377,212.162,277.913,212.243z
		 M325.296,213.354c-0.086-0.994,0.339-1.414-0.186-2.036C324.124,212.074,324.157,212.752,325.296,213.354z M271.99,212.613
		c0.565,0.175,0.58,0.901,1.295,0.925c-0.117-0.624,0.239-1.719-0.185-2.036C272.944,212.087,272.146,212.029,271.99,212.613z
		 M336.216,212.243c0.121,0.68,0.683,0.921,1.111,1.295c-0.117-0.964,0.429-1.504-0.186-2.036
		C336.996,211.912,336.494,211.966,336.216,212.243z M279.023,213.168c0.325,0.785,0.881,1.34,1.666,1.666
		c0.069-0.857,0.802-1.049,0.925-1.851c-0.191-0.487-0.734-0.624-0.925-1.11C279.846,212.017,279.714,212.873,279.023,213.168z
		 M275.506,214.649c0.492-0.434,1.067-0.784,1.295-1.48c-0.563-0.3-0.798-0.93-1.48-1.111
		C275.44,212.864,275.08,214.15,275.506,214.649z M321.594,215.02c0.438,0.487,0.735,1.115,1.48,1.295
		c0.646-0.403,1.267-0.832,1.666-1.48c-0.753-0.357-0.945-1.276-1.851-1.481C322.673,214.124,321.685,214.123,321.594,215.02z
		 M265.696,216.5c0.547-0.502,1.242-0.856,1.481-1.666C265.827,212.092,262.504,215.672,265.696,216.5z M331.403,214.834
		c-0.017-0.317-1.291-1.369-1.851-1.296c-0.553,0.072-0.833,1.169-1.296,1.296C328.564,217.036,331.477,216.176,331.403,214.834z
		 M333.625,215.205c0.601,0.386,0.863,1.111,1.665,1.295c0.382-0.667,1.1-0.999,1.481-1.666
		C335.781,213.396,334.227,213.383,333.625,215.205z M272.545,215.02c-0.072-1.453-2.873-1.641-3.147,0.37
		C269.92,217.114,272.61,216.333,272.545,215.02z M276.247,216.13c1.018,1.465,2.424,1.33,3.146-0.37
		C278.613,214.133,276.765,214.426,276.247,216.13z M266.807,217.795c0.691,0.296,0.823,1.152,1.666,1.296
		c0.29-0.574,1.021-0.706,1.295-1.296C269.178,215.944,267.37,215.933,266.807,217.795z M330.849,217.241
		c0.325,0.785,0.88,1.34,1.666,1.666C335.371,217.881,332.327,214.836,330.849,217.241z M263.29,218.906
		c0.238-0.564,1.109-0.496,1.111-1.295c-0.354-0.51-0.786-0.942-1.295-1.296C263.225,217.121,262.864,218.407,263.29,218.906z
		 M327.146,218.721c1.633-0.482,1.633-1.924,0-2.406C327.146,217.117,327.146,217.919,327.146,218.721z M324.186,217.241
		c0.121,0.68,0.683,0.922,1.11,1.295c-0.15-0.942,0.561-1.751-0.37-2.036C324.759,216.826,324.512,217.073,324.186,217.241z
		 M336.216,217.425c0.143,0.599,0.513,0.969,1.111,1.11c-0.052-0.898,0.429-1.504-0.186-2.036
		C336.912,216.887,336.604,217.196,336.216,217.425z M272.175,217.795c0.308,0.372,0.497,0.86,1.11,0.926
		C273.705,216.797,272.638,216.171,272.175,217.795z M275.506,219.647c0.358-0.444,1.039-0.566,1.111-1.296
		c-0.374-0.428-0.616-0.989-1.296-1.11C275.44,217.985,275.081,219.208,275.506,219.647z M323.074,219.832c0.371,0,0.74,0,1.111,0
		c-0.203-0.661-0.635-1.093-1.296-1.296C322.519,218.904,322.948,219.417,323.074,219.832z M328.442,219.832
		c0.806-0.119,2.092,0.242,2.592-0.185C330.183,218.422,329.13,218.455,328.442,219.832z M333.81,219.832c0.803,0,1.604,0,2.406,0
		c-0.084-0.78-0.84-0.888-1.295-1.296C334.665,219.083,334.065,219.285,333.81,219.832z M264.216,220.017c0.864,0,1.728,0,2.591,0
		C266.415,218.322,264.745,218.718,264.216,220.017z M269.583,220.017c0.806-0.119,2.092,0.242,2.591-0.185
		C271.481,218.451,270.174,218.736,269.583,220.017z M276.432,220.757c0.556,0,1.11,0,1.666,0c0.117-0.692,0.292-1.06-0.37-1.296
		C277.391,219.988,276.675,220.137,276.432,220.757z M265.696,223.163c0.278-0.401,0.926-0.431,0.926-1.11c-0.617,0-1.234,0-1.851,0
		C264.836,222.666,265.326,222.856,265.696,223.163z M269.954,222.423c0.73-0.051,0.566,0.792,1.296,0.74
		c0.115-0.501,0.773-0.46,0.74-1.11C271.232,222.098,270.205,221.873,269.954,222.423z M329.923,222.978
		c0.187-0.369,0.818-0.292,0.74-0.925c-0.562,0.116-1.595-0.237-1.851,0.185C329.314,222.353,329.273,223.011,329.923,222.978z
		 M335.29,222.978c0.277-0.34,0.773-0.461,0.926-0.925c-0.622,0.117-1.719-0.238-2.035,0.185
		C334.682,222.353,334.641,223.011,335.29,222.978z M332.515,225.569c0.503-0.545,1.272-0.825,1.48-1.666
		C332.497,221.198,329.441,224.476,332.515,225.569z M263.105,225.385c1.802-0.573,1.4-1.866,0-2.592
		C263.105,223.657,263.105,224.521,263.105,225.385z M266.807,223.903c0.325,0.786,0.881,1.341,1.666,1.666
		c0.571-0.416,1.065-0.909,1.48-1.48C269.048,222.86,267.785,222.527,266.807,223.903z M327.146,225.199
		c0.859-0.066,1.221-0.63,1.481-1.296c-0.333-0.532-0.81-0.918-1.481-1.11C327.146,223.595,327.146,224.397,327.146,225.199z
		 M336.216,224.089c0.401,0.277,0.432,0.926,1.111,0.925c-0.097-0.854,0.518-1.593-0.371-1.851
		C336.831,223.593,336.341,223.659,336.216,224.089z M272.175,224.274c0.308,0.371,0.497,0.86,1.11,0.925
		c-0.177-0.563,0.396-1.877-0.37-1.851C272.729,223.717,272.097,223.641,272.175,224.274z M275.506,225.939
		c1.201-0.912,1.569-1.987-0.185-2.591C275.44,224.154,275.08,225.441,275.506,225.939z M325.296,225.199
		c-0.178-0.563,0.396-1.877-0.37-1.851C324.01,223.807,324.571,224.893,325.296,225.199z M328.257,226.68
		c0.311,0.554,0.848,0.88,1.296,1.295c2.159-0.548,1.857-2.116,0.185-2.961C329.41,225.735,328.367,225.741,328.257,226.68z
		 M264.031,226.495c0.325,0.785,0.88,1.34,1.666,1.666c0.547-0.502,1.242-0.856,1.481-1.666
		C266.159,225.033,265.156,225.239,264.031,226.495z M269.398,226.865c1.097,1.611,2.358,1.539,3.147-0.37
		c-0.583-0.404-1-0.975-1.666-1.296C270.523,225.893,269.704,226.122,269.398,226.865z M333.625,226.68
		c0.416,0.571,0.909,1.064,1.48,1.48c0.504-0.545,1.272-0.825,1.481-1.666C335.983,224.916,334.135,225.078,333.625,226.68z
		 M330.849,228.901c0.325,0.785,0.88,1.34,1.666,1.666c1.833-0.849,1.357-2.266-0.371-2.961
		C331.995,228.32,331.239,228.428,330.849,228.901z M266.807,229.271c0.319,0.607,0.976,0.875,1.295,1.481
		c0.785-0.325,1.34-0.88,1.666-1.666C268.899,227.773,267.452,227.535,266.807,229.271z M263.105,230.382
		c0.661-0.203,1.093-0.635,1.295-1.295c-0.251-0.551-0.836-0.769-1.295-1.111C263.105,228.778,263.105,229.58,263.105,230.382z
		 M327.146,230.197c0.859-0.066,1.221-0.63,1.481-1.295c-0.615-0.188-0.58-1.025-1.481-0.926
		C327.146,228.716,327.146,229.457,327.146,230.197z M336.216,228.901c0.068,0.733,0.537,1.067,1.111,1.295
		c-0.118-0.623,0.237-1.719-0.186-2.036C336.996,228.57,336.494,228.624,336.216,228.901z M272.175,229.457
		c0.221,0.458,0.634,0.724,1.11,0.925C273.705,228.458,272.638,227.832,272.175,229.457z M275.506,230.752
		c-0.134-0.819,0.665-2.023-0.185-2.406C275.44,229.091,275.081,230.314,275.506,230.752z M328.442,231.493
		c0.806-0.12,2.092,0.241,2.592-0.186C330.432,230.018,328.891,230.07,328.442,231.493z M333.81,231.493
		c0.806-0.12,2.093,0.241,2.592-0.186c-0.564-0.3-0.798-0.929-1.48-1.11C334.665,230.743,334.065,230.946,333.81,231.493z
		 M264.401,231.677c0.802,0,1.604,0,2.406,0C266.663,230.072,264.572,230.161,264.401,231.677z M269.769,231.677
		c0.802,0,1.604,0,2.406,0C271.852,230.181,270.058,230.154,269.769,231.677z M329.923,234.454c0.317-0.238,0.729-0.382,0.74-0.925
		c-0.562,0.116-1.595-0.237-1.851,0.185C329.12,234.023,329.297,234.463,329.923,234.454z M334.181,233.898
		c0.326,0.167,0.573,0.414,0.74,0.741c0.586-0.154,0.94-0.54,1.295-0.926C335.846,233.478,334.276,233.281,334.181,233.898z
		 M265.696,234.639c0.387-0.23,0.696-0.539,0.926-0.926c-0.617,0-1.234,0-1.851,0C264.853,234.249,265.161,234.557,265.696,234.639z
		 M271.064,234.824c0.138-0.541,0.999-0.358,0.926-1.11c-0.623,0.117-1.719-0.238-2.036,0.185
		C270.441,234.09,270.577,234.633,271.064,234.824z M330.849,235.75c0.468,0.458,1.123,0.728,1.48,1.295
		c0.746-0.303,1.371-0.727,1.666-1.48c-0.505-0.544-1.009-1.088-1.666-1.481C331.947,234.75,331.23,235.083,330.849,235.75z
		 M266.807,235.935c0.691,0.296,0.823,1.151,1.666,1.296c0.433-0.493,1.154-0.696,1.295-1.481
		C269.011,234.079,267.404,234.118,266.807,235.935z M327.146,236.86c0.75-0.114,0.943-0.784,1.481-1.11
		c-0.265-0.723-0.758-1.217-1.481-1.48C327.146,235.132,327.146,235.996,327.146,236.86z M263.29,237.045
		c0.389-0.536,1.131-0.72,1.296-1.48c-0.628-0.235-0.701-1.027-1.48-1.111C263.225,235.26,262.864,236.546,263.29,237.045z
		 M337.327,236.675c-0.052-0.899,0.429-1.504-0.186-2.036C336.156,235.395,336.188,236.074,337.327,236.675z M272.175,235.564
		c0.122,0.681,0.682,0.922,1.11,1.295c-0.187-0.615,0.409-2.013-0.37-2.036C272.748,235.15,272.501,235.397,272.175,235.564z
		 M264.031,238.526c1.075,1.372,2.234,1.35,3.146-0.185c-0.229-0.881-1.033-1.188-1.666-1.666
		C265.154,237.428,264.235,237.62,264.031,238.526z M328.257,238.341c0.691,0.296,0.823,1.151,1.666,1.296
		c0.382-0.667,1.099-0.999,1.48-1.666C330.451,236.495,328.847,236.531,328.257,238.341z M333.625,238.341
		c0.31,0.554,0.847,0.88,1.296,1.296c0.746-0.241,1.212-0.762,1.666-1.296c-0.24-0.81-0.935-1.164-1.481-1.666
		C334.603,237.22,333.833,237.5,333.625,238.341z M269.398,238.156c0.28,0.83,0.947,1.275,1.666,1.666
		c0.465-0.583,1.257-0.841,1.481-1.666C271.573,236.74,270.429,236.804,269.398,238.156z M330.849,240.747
		c0.851,1.612,2.482,1.638,3.146-0.185C333.023,239.129,331.623,239.135,330.849,240.747z M266.807,240.932
		c0.441,0.545,0.81,1.164,1.666,1.295c0.433-0.493,1.154-0.696,1.295-1.48C269.102,239.277,267.237,239.197,266.807,240.932z
		 M327.146,241.857c0.816-0.11,1.196-0.655,1.481-1.295c-0.629-0.235-0.701-1.027-1.481-1.111
		C327.146,240.253,327.146,241.056,327.146,241.857z M263.29,242.042c0.425-0.315,0.795-0.686,1.111-1.11
		c-0.203-0.661-0.635-1.093-1.295-1.295C263.224,240.381,262.865,241.604,263.29,242.042z M336.216,240.562
		c0.121,0.68,0.683,0.921,1.111,1.295c-0.118-0.684,0.239-1.844-0.186-2.221C336.912,240.024,336.604,240.332,336.216,240.562z
		 M273.285,241.857c-0.187-0.616,0.409-2.013-0.37-2.036C271.883,240.55,271.958,241.437,273.285,241.857z M328.442,243.153
		c0.896-0.091,2.236,0.262,2.592-0.37c-0.564-0.3-0.799-0.929-1.481-1.111C329.317,242.301,328.526,242.374,328.442,243.153z
		 M264.216,243.153c0.864,0,1.728,0,2.591,0C266.383,241.491,264.81,241.918,264.216,243.153z M269.769,243.153
		c0.745-0.119,1.968,0.241,2.406-0.185c-0.337-0.465-0.84-0.764-1.295-1.111C270.642,242.422,269.77,242.353,269.769,243.153z
		 M333.81,243.153c0.803,0,1.604,0,2.406,0C336.084,241.473,334.036,241.752,333.81,243.153z M266.622,245.004
		c-0.623,0.117-1.719-0.239-2.036,0.185C265.342,246.175,266.021,246.143,266.622,245.004z M271.064,246.115
		c0.192-0.487,0.734-0.624,0.926-1.11c-0.684,0.118-1.844-0.24-2.221,0.185C270.256,245.442,270.47,245.968,271.064,246.115z
		 M268.473,248.521c0.296-0.691,1.151-0.823,1.295-1.666C267.819,244.119,265.215,247.776,268.473,248.521z M330.108,246.485
		c0.125-0.43,0.615-0.496,0.74-0.926c-0.623,0.118-1.72-0.238-2.036,0.186C329.292,245.943,329.5,246.414,330.108,246.485z
		 M336.216,245.559c-0.622,0.118-1.719-0.238-2.035,0.186C334.937,246.73,335.615,246.698,336.216,245.559z M262.92,248.151
		c0.633,0.3,1.188-0.848,1.666-1.296c-0.777-0.148-0.86-0.991-1.666-1.11C262.92,246.546,262.92,247.349,262.92,248.151z
		 M271.99,246.855c0.121,0.681,0.682,0.922,1.11,1.296c-0.116-0.964,0.429-1.505-0.185-2.036
		C272.769,246.524,272.268,246.578,271.99,246.855z M327.517,248.891c1.371-1.003,1.338-1.928-0.185-2.776
		C327.452,246.982,327.09,248.331,327.517,248.891z M331.034,247.595c0.318,0.606,0.976,0.875,1.295,1.481
		c0.779-0.393,1.568-0.776,1.852-1.666C333.151,246.183,331.754,245.815,331.034,247.595z M336.216,247.78
		c0.716,0.025,0.73,0.751,1.296,0.925c-0.118-0.684,0.24-1.843-0.185-2.221C337.122,247.083,336.36,247.122,336.216,247.78z
		 M263.846,249.631c0.571,0.416,1.065,0.91,1.48,1.48c1.963-0.757,2.002-2.236,0.185-3.146
		C265.146,248.71,264.186,248.861,263.846,249.631z M270.694,248.151c-0.678,0.076-0.786,1.451-1.48,1.48
		c0.464,0.522,0.958,1.016,1.48,1.48C272.838,250.773,272.726,247.923,270.694,248.151z M328.257,250.372
		c1.259,1.424,2.345,1.28,3.146-0.555c-0.637-0.35-0.901-1.072-1.666-1.295C329.381,249.274,328.462,249.466,328.257,250.372z
		 M333.625,250.001c0.145,0.843,1,0.975,1.296,1.666c0.745-0.426,1.552-0.792,1.851-1.666c-0.624-0.425-1.03-1.067-1.666-1.48
		C334.689,249.092,334.196,249.585,333.625,250.001z M266.622,251.853c0.299,0.873,1.059,1.286,1.666,1.851
		c0.313-0.613,0.997-0.854,1.481-1.295c-0.3-0.873-1.059-1.286-1.666-1.851C267.778,251.157,267.177,251.482,266.622,251.853z
		 M262.92,253.333c0.723-0.264,1.217-0.757,1.481-1.48c-0.615-0.188-0.58-1.024-1.481-0.926
		C262.92,251.729,262.92,252.531,262.92,253.333z M271.805,252.223c0.601,0.202,0.765,0.838,1.295,1.11
		c-0.151-1.031,0.449-1.672-0.185-2.221C272.677,251.615,271.967,251.645,271.805,252.223z M330.849,252.778
		c0.657,0.391,0.975,1.123,1.851,1.295c0.429-0.559,1.159-0.815,1.481-1.48c-0.709-0.402-1.011-1.21-1.852-1.481
		C331.947,251.779,331.23,252.111,330.849,252.778z M327.517,253.889c0.337-0.527,1.053-0.675,1.296-1.296
		c-0.606-0.319-0.874-0.977-1.48-1.296C327.451,252.103,327.09,253.39,327.517,253.889z M337.512,253.889
		c-0.118-0.746,0.241-1.968-0.185-2.406C336.148,252.362,336.181,253.164,337.512,253.889z M264.031,254.444
		c0.867-0.12,2.216,0.242,2.776-0.185C265.964,252.785,264.885,253.35,264.031,254.444z M269.583,254.444
		c0.806-0.12,2.092,0.241,2.591-0.185C271.324,253.035,270.271,253.066,269.583,254.444z M328.442,254.999
		c0.867-0.12,2.216,0.242,2.776-0.185C330.396,253.549,329.094,253.578,328.442,254.999z M333.81,254.999c0.864,0,1.728,0,2.592,0
		C335.931,253.382,334.354,253.685,333.81,254.999z M265.696,257.775c0.387-0.23,0.696-0.539,0.926-0.925
		c-0.623,0.117-1.719-0.239-2.036,0.185C265.087,257.15,265.046,257.808,265.696,257.775z M271.99,256.85
		c-0.623,0.117-1.719-0.239-2.036,0.185C270.71,258.021,271.388,257.988,271.99,256.85z M328.997,257.59
		c0.327,0.167,0.573,0.414,0.74,0.74c0.599-0.142,0.969-0.512,1.111-1.11C330.207,257.319,329.093,256.945,328.997,257.59z
		 M334.181,257.59c0.501,0.115,0.46,0.773,1.109,0.74c0.372-0.308,0.861-0.497,0.926-1.11
		C335.529,257.335,334.312,256.919,334.181,257.59z M268.103,260.367c0.785-0.325,1.34-0.881,1.666-1.666
		C268.327,256.098,265.307,259.046,268.103,260.367z M263.29,260.181c0.319-0.606,0.977-0.874,1.296-1.48
		c-0.624-0.302-0.79-1.061-1.666-1.11C263.012,258.486,262.658,259.827,263.29,260.181z M271.99,258.701
		c0.142,0.599,0.512,0.969,1.11,1.11c-0.161-0.919,0.518-1.592-0.37-1.851C272.563,258.287,272.316,258.534,271.99,258.701z
		 M327.517,260.737c1.371-1.003,1.338-1.928-0.185-2.776C327.452,258.828,327.09,260.177,327.517,260.737z M331.034,259.441
		c0.858,1.727,2.38,1.484,3.146-0.185C333.33,257.945,331.604,257.625,331.034,259.441z M337.512,260.551
		c-0.118-0.684,0.24-1.843-0.185-2.221C335.992,259.032,336.313,259.872,337.512,260.551z M263.846,261.477
		c0.753,0.357,0.945,1.276,1.851,1.481c0.357-0.754,1.276-0.945,1.481-1.851c-0.764-0.223-1.028-0.946-1.666-1.296
		C265.083,260.494,264.199,260.72,263.846,261.477z M269.213,261.477c0.571,0.416,1.065,0.91,1.48,1.481
		c1.963-0.757,2.002-2.236,0.186-3.147C270.525,260.568,269.642,260.795,269.213,261.477z M328.257,261.662
		c0.728,2.017,2.42,2.017,3.146,0C330.386,260.2,329.383,260.407,328.257,261.662z M333.625,261.847
		c0.279,0.831,0.946,1.275,1.665,1.666c0.357-0.753,1.276-0.945,1.481-1.851c-0.562-0.424-1.074-0.9-1.666-1.295
		C334.689,260.938,334.196,261.432,333.625,261.847z M266.622,263.698c0.727,2.017,2.419,2.017,3.146,0
		c-0.843-0.145-0.975-1-1.666-1.295C267.745,262.97,267.089,263.241,266.622,263.698z M262.92,264.994
		c0.547,0.267,1.242-0.664,1.481-1.295c-0.628-0.235-0.701-1.027-1.481-1.111C262.92,263.39,262.92,264.192,262.92,264.994z
		 M271.99,264.068c0.221,0.458,0.633,0.724,1.11,0.925c-0.116-0.963,0.429-1.504-0.185-2.036
		C272.777,263.499,271.916,263.316,271.99,264.068z M330.849,264.438c0.33,0.658,1.107,0.867,1.48,1.481
		c0.681-0.368,1.404-0.694,1.666-1.481C333.174,262.704,331.791,262.966,330.849,264.438z M327.517,265.734
		c0.246-0.618,1.083-0.645,1.296-1.296c-0.606-0.319-0.874-0.977-1.48-1.295C327.451,263.949,327.09,265.235,327.517,265.734z
		 M336.216,264.253c0.203,0.661,0.635,1.093,1.296,1.295c-0.118-0.684,0.24-1.844-0.185-2.221
		C337.019,263.699,336.83,264.188,336.216,264.253z M264.216,266.29c0.867-0.12,2.216,0.242,2.776-0.185
		C266.146,264.972,264.803,264.774,264.216,266.29z M269.583,266.29c0.806-0.119,2.092,0.242,2.591-0.185
		C271.324,264.88,270.271,264.912,269.583,266.29z M328.442,266.845c0.867-0.12,2.216,0.242,2.776-0.185
		c-0.606-0.319-0.874-0.977-1.481-1.295C329.419,265.97,328.762,266.238,328.442,266.845z M333.81,266.845c0.864,0,1.728,0,2.592,0
		C335.977,265.182,334.339,265.546,333.81,266.845z M265.326,269.436c0.574-0.228,1.197-0.408,1.296-1.111c-0.679,0-1.357,0-2.036,0
		C264.553,268.975,265.211,268.934,265.326,269.436z M271.064,269.436c0.278-0.401,0.926-0.431,0.926-1.111
		c-0.679,0-1.357,0-2.036,0C270.096,268.924,270.466,269.294,271.064,269.436z M268.103,272.027c0.873-0.3,1.286-1.059,1.851-1.666
		c-0.84-0.27-1.143-1.078-1.851-1.48C266.586,270.039,266.586,270.87,268.103,272.027z M329.923,269.991
		c0.278-0.401,0.927-0.431,0.926-1.11c-0.617,0-1.233,0-1.852,0C329.062,269.494,329.552,269.684,329.923,269.991z M335.105,269.991
		c0.599-0.142,0.969-0.512,1.11-1.11c-0.679,0-1.356,0-2.035,0C334.18,269.56,334.828,269.59,335.105,269.991z M263.105,271.842
		c0.523-0.464,1.1-0.875,1.48-1.481c-0.638-0.35-0.902-1.072-1.666-1.295C263.04,269.933,262.678,271.282,263.105,271.842z
		 M271.99,270.732c0.649-0.033,0.608,0.625,1.11,0.74c-0.086-0.994,0.339-1.414-0.185-2.036
		C272.74,270.001,272.014,270.016,271.99,270.732z M331.034,271.102c0.416,0.632,1.064,1.032,1.665,1.48
		c0.383-0.667,1.1-0.999,1.481-1.666c-0.709-0.402-1.011-1.21-1.852-1.48C332.033,270.127,331.178,270.259,331.034,271.102z
		 M327.332,272.212c0.723-0.264,1.217-0.758,1.48-1.48c-0.78-0.084-0.853-0.876-1.48-1.111
		C327.332,270.485,327.332,271.349,327.332,272.212z M337.512,272.027c-0.187-0.616,0.409-2.013-0.37-2.036
		C336.11,270.72,336.185,271.606,337.512,272.027z M263.846,273.138c0.657,0.453,1.097,1.123,1.851,1.48
		c0.357-0.753,1.276-0.945,1.481-1.851C266.084,271.17,264.692,271.548,263.846,273.138z M270.694,274.619
		c1.963-0.757,2.002-2.236,0.186-3.146C269.205,272.485,269.1,273.463,270.694,274.619z M328.072,273.693
		c0.93,0.12,0.921,1.177,1.851,1.296c0.547-0.502,1.242-0.856,1.48-1.666C330.31,271.588,329.035,272.251,328.072,273.693z
		 M333.44,273.693c-0.004-0.063,1.494,1.506,1.85,1.481c0.715-0.05,1.055-1.45,1.481-1.852c-0.638-0.35-0.902-1.072-1.666-1.295
		C334.862,272.982,333.386,272.801,333.44,273.693z M266.622,275.729c0.567,0.358,0.929,0.922,1.48,1.296
		c0.785-0.325,1.34-0.881,1.666-1.666C268.733,273.965,267.244,273.887,266.622,275.729z M263.29,276.839
		c0.235-0.628,1.027-0.701,1.111-1.48c-0.628-0.235-0.701-1.026-1.481-1.11C263.012,275.144,262.658,276.484,263.29,276.839z
		 M271.99,275.359c0.121,0.681,0.682,0.922,1.11,1.296c-0.07-1.023,0.374-1.565-0.185-2.222
		C272.685,274.821,272.377,275.129,271.99,275.359z M332.329,277.58c0.825-0.285,1.217-1.003,1.852-1.481
		C332.801,273.339,329.424,276.056,332.329,277.58z M327.517,277.395c1.223-0.933,1.541-1.958-0.185-2.591
		C327.451,275.61,327.09,276.896,327.517,277.395z M336.216,275.915c0.203,0.66,0.635,1.093,1.296,1.295
		c-0.118-0.684,0.24-1.844-0.185-2.221C336.933,275.274,336.637,275.657,336.216,275.915z M264.031,277.95
		c0.928-0.12,2.34,0.243,2.961-0.185C266.19,276.458,264.716,276.557,264.031,277.95z M269.583,277.95
		c0.806-0.12,2.092,0.241,2.591-0.185C271.416,276.632,270.129,276.431,269.583,277.95z M328.442,278.505
		c0.867-0.12,2.216,0.242,2.776-0.185c-0.606-0.319-0.874-0.977-1.481-1.295C329.5,277.712,328.483,277.621,328.442,278.505z
		 M333.81,278.505c0.864,0,1.728,0,2.592,0C336.009,276.81,334.339,277.207,333.81,278.505z M265.696,280.912
		c0.277-0.34,0.772-0.461,0.926-0.925c-0.623,0.117-1.719-0.238-2.036,0.185C265.087,280.287,265.046,280.945,265.696,280.912z
		 M271.99,279.986c-0.623,0.117-1.719-0.238-2.036,0.185C270.71,281.157,271.388,281.125,271.99,279.986z M330.108,281.467
		c0.115-0.501,0.773-0.46,0.74-1.11c-0.623,0.117-1.72-0.238-2.036,0.185C329.378,280.716,329.393,281.442,330.108,281.467z
		 M335.29,281.467c0.372-0.308,0.861-0.497,0.926-1.11c-0.679,0-1.356,0-2.035,0C334.322,280.955,334.692,281.325,335.29,281.467z
		 M268.103,283.503c0.873-0.299,1.286-1.059,1.851-1.666C268.305,279.339,265.318,282.03,268.103,283.503z M262.92,283.318
		c0.81-0.239,1.164-0.934,1.666-1.481c-0.624-0.301-0.79-1.061-1.666-1.11C262.92,281.59,262.92,282.454,262.92,283.318z
		 M271.99,282.207c0.407,0.21,0.615,0.619,1.11,0.741c-0.086-0.994,0.339-1.414-0.185-2.036
		C272.74,281.477,272.014,281.492,271.99,282.207z M327.517,283.873c1.371-1.002,1.338-1.928-0.185-2.776
		C327.452,281.964,327.09,283.313,327.517,283.873z M330.849,282.578c0.03,0.43,0.541,0.418,0.926,0.74
		c1.413,1.186,1.14-0.132,2.406-0.555C333.874,280.538,330.745,281.12,330.849,282.578z M337.512,283.503
		c-0.117-0.623,0.238-1.719-0.185-2.036C336.107,282.031,336.112,283.098,337.512,283.503z M265.696,286.094
		c0.357-0.753,1.276-0.945,1.481-1.851c-0.592-0.395-1.103-0.871-1.666-1.295C263.731,283.896,263.707,285.311,265.696,286.094z
		 M269.213,284.614c0.571,0.416,1.065,0.909,1.48,1.48c1.963-0.757,2.002-2.236,0.186-3.146
		C270.451,283.63,269.567,283.856,269.213,284.614z M328.257,284.798c0.728,2.018,2.42,2.018,3.146,0
		C330.412,283.363,329.332,283.493,328.257,284.798z M333.625,285.169c0.399,0.649,1.02,1.077,1.665,1.48
		c0.357-0.753,1.276-0.945,1.481-1.851c-0.583-0.404-1-0.975-1.666-1.295C334.853,284.299,333.767,284.262,333.625,285.169z
		 M266.622,286.834c0.325,0.785,0.88,1.341,1.666,1.666c0.547-0.502,1.242-0.856,1.481-1.666c-0.764-0.223-1.029-0.945-1.666-1.295
		C267.653,286.015,267.126,286.414,266.622,286.834z M262.92,288.315c0.723-0.264,1.217-0.757,1.481-1.48
		c-0.628-0.235-0.701-1.026-1.481-1.11C262.92,286.588,262.92,287.452,262.92,288.315z M271.805,287.205
		c0.594,0.146,0.809,0.672,1.295,0.926c-0.07-1.023,0.374-1.565-0.185-2.221C272.934,286.73,271.954,286.552,271.805,287.205z
		 M330.849,287.76c0.745,0.18,1.042,0.809,1.48,1.295c0.878-0.233,1.137-1.084,1.852-1.481
		C333.197,286.078,331.6,285.813,330.849,287.76z M327.517,288.871c0.319-0.606,0.977-0.875,1.296-1.48
		c-0.683-0.182-0.917-0.811-1.48-1.111C327.451,287.085,327.09,288.372,327.517,288.871z M336.216,287.39
		c0.203,0.661,0.635,1.093,1.296,1.295c-0.118-0.684,0.24-1.843-0.185-2.221C337.105,286.922,336.692,287.188,336.216,287.39z
		 M264.031,289.426c0.928-0.12,2.34,0.243,2.961-0.185C266.07,287.882,264.874,288.184,264.031,289.426z M269.583,289.426
		c0.806-0.119,2.092,0.242,2.591-0.185C271.381,288.074,270.187,287.964,269.583,289.426z M328.442,289.981
		c0.867-0.12,2.216,0.242,2.776-0.185c-0.606-0.319-0.874-0.977-1.481-1.296C329.478,289.166,328.674,289.287,328.442,289.981z
		 M333.81,289.981c0.864,0,1.728,0,2.592,0C335.977,288.318,334.339,288.683,333.81,289.981z M265.696,292.387
		c0.387-0.229,0.696-0.538,0.926-0.925c-0.623,0.117-1.719-0.239-2.036,0.185C265.087,291.762,265.046,292.42,265.696,292.387z
		 M271.064,292.572c0.192-0.487,0.734-0.623,0.926-1.11c-0.679,0-1.357,0-2.036,0C270.017,292.139,270.587,292.309,271.064,292.572z
		 M329.737,292.942c0.614-0.065,0.804-0.554,1.111-0.925c-0.559-0.007-1.586-0.498-2.036,0
		C329.2,292.247,329.508,292.555,329.737,292.942z M335.29,292.942c0.388-0.229,0.696-0.538,0.926-0.925
		c-0.649-0.091-1.205-0.276-2.035-0.185C334.322,292.43,334.692,292.8,335.29,292.942z M266.622,293.683
		c0.745,0.18,1.042,0.809,1.48,1.295c0.785-0.325,1.34-0.88,1.666-1.666C268.844,291.809,267.21,291.875,266.622,293.683z
		 M263.29,294.793c0.319-0.606,0.977-0.874,1.296-1.481c-0.624-0.301-0.79-1.061-1.666-1.11
		C263.012,293.098,262.658,294.438,263.29,294.793z M271.99,293.312c0.121,0.681,0.682,0.922,1.11,1.296
		c-0.118-0.684,0.24-1.844-0.185-2.221C272.685,292.774,272.377,293.083,271.99,293.312z M327.517,295.349
		c1.371-1.003,1.338-1.928-0.185-2.776C327.452,293.44,327.09,294.789,327.517,295.349z M331.034,294.053
		c0.452,0.596,0.928,1.17,1.665,1.481c0.383-0.667,1.1-0.999,1.481-1.666C333.31,292.537,331.647,292.282,331.034,294.053z
		 M336.216,294.053c0.546,0.256,0.75,0.855,1.296,1.111c-0.118-0.684,0.24-1.844-0.185-2.221
		C337.17,293.526,336.373,293.469,336.216,294.053z M263.846,296.089c0.708,0.402,1.01,1.211,1.851,1.481
		c0.357-0.753,1.276-0.945,1.481-1.851c-0.843-0.144-0.975-1-1.666-1.295C265.146,295.168,264.186,295.319,263.846,296.089z
		 M269.213,296.274c0.93,0.119,0.921,1.176,1.851,1.295c1.564-1.126,1.531-2.175-0.185-3.146
		C270.52,295.236,269.451,295.339,269.213,296.274z M328.257,296.645c1.086,1.622,2.366,1.531,3.146-0.37
		C330.43,294.721,329.021,295.011,328.257,296.645z M333.625,296.459c0.279,0.83,0.946,1.275,1.665,1.666
		c0.357-0.753,1.276-0.945,1.481-1.851c-0.666-0.321-1.083-0.892-1.666-1.296C334.689,295.55,334.196,296.043,333.625,296.459z
		 M266.622,298.311c0.727,2.017,2.419,2.017,3.146,0c-0.843-0.145-0.975-1-1.666-1.296
		C267.745,297.582,267.089,297.853,266.622,298.311z M262.92,299.791c0.723-0.264,1.217-0.757,1.481-1.48
		c-0.628-0.235-0.701-1.027-1.481-1.111C262.92,298.063,262.92,298.927,262.92,299.791z M271.99,298.68
		c0.308,0.371,0.497,0.86,1.11,0.926c-0.116-0.964,0.429-1.505-0.185-2.036C272.777,298.111,271.916,297.928,271.99,298.68z
		 M330.849,299.051c0.465,0.522,0.958,1.016,1.48,1.48c0.794-0.317,1.391-0.831,1.852-1.48
		C333.112,297.544,331.891,297.406,330.849,299.051z M327.517,300.346c0.319-0.606,0.977-0.875,1.296-1.48
		c-0.78-0.084-0.853-0.875-1.48-1.111C327.451,298.561,327.09,299.847,327.517,300.346z M337.512,300.161
		c-0.118-0.684,0.24-1.844-0.185-2.221C336.317,298.73,335.95,299.679,337.512,300.161z M264.216,300.902
		c0.867-0.121,2.216,0.242,2.776-0.186C266.146,299.584,264.803,299.386,264.216,300.902z M269.583,300.902
		c0.806-0.12,2.092,0.241,2.591-0.186C271.324,299.492,270.271,299.524,269.583,300.902z M328.442,301.457
		c0.867-0.12,2.216,0.242,2.776-0.185c-0.606-0.319-0.874-0.977-1.481-1.296C329.419,300.583,328.762,300.851,328.442,301.457z
		 M333.81,301.457c0.864,0,1.728,0,2.592,0C335.977,299.794,334.339,300.158,333.81,301.457z M265.696,304.048
		c0.069-0.609,0.984-0.374,0.926-1.111c-0.679,0-1.357,0-2.036,0C264.649,303.614,265.22,303.785,265.696,304.048z M271.064,304.048
		c0.278-0.401,0.926-0.431,0.926-1.111c-0.679,0-1.357,0-2.036,0C270.096,303.536,270.466,303.906,271.064,304.048z
		 M268.473,306.639c0.382-0.667,1.099-0.999,1.48-1.666c-0.677-0.433-1.225-0.997-1.851-1.481
		C266.492,304.589,266.563,305.851,268.473,306.639z M329.923,304.603c0.278-0.401,0.927-0.431,0.926-1.11
		c-0.623,0.117-1.72-0.238-2.036,0.186C329.3,303.869,329.436,304.412,329.923,304.603z M335.29,304.603
		c0.278-0.401,0.927-0.431,0.926-1.11c-0.679,0-1.356,0-2.035,0C334.244,304.17,334.813,304.34,335.29,304.603z M263.105,306.269
		c0.746-0.18,1.042-0.809,1.48-1.295c-0.691-0.296-0.823-1.152-1.666-1.295C263,304.523,262.733,305.716,263.105,306.269z
		 M271.99,305.344c0.649-0.033,0.608,0.625,1.11,0.74c-0.086-0.994,0.339-1.414-0.185-2.036
		C272.74,304.614,272.014,304.628,271.99,305.344z M331.034,305.714c0.666,0.382,0.998,1.099,1.665,1.48
		c0.383-0.667,1.1-0.999,1.481-1.666C333.178,304.088,331.728,303.72,331.034,305.714z M327.332,306.824
		c0.723-0.264,1.217-0.757,1.48-1.48c-0.51-0.354-0.972-0.757-1.48-1.111C327.332,305.097,327.332,305.961,327.332,306.824z
		 M337.512,306.639c-0.187-0.615,0.409-2.013-0.37-2.036C336.11,305.332,336.185,306.218,337.512,306.639z M264.031,307.75
		c0.4,0.649,1.021,1.077,1.666,1.48c0.357-0.753,1.276-0.945,1.481-1.851C266.224,305.904,264.62,305.94,264.031,307.75z
		 M270.694,309.23c2.017-0.727,2.017-2.419,0-3.146C269.201,307.265,269.161,308.056,270.694,309.23z M328.257,307.935
		c0.325,0.786,0.881,1.341,1.666,1.666c0.547-0.502,1.242-0.856,1.48-1.666C330.439,306.527,329.251,306.547,328.257,307.935z
		 M333.44,308.305c1.289,1.438,2.488,1.679,3.331-0.371c-0.757-0.292-0.8-1.298-1.851-1.295
		C334.769,307.536,333.855,307.672,333.44,308.305z M266.622,310.341c0.567,0.358,0.929,0.923,1.48,1.296
		c0.785-0.325,1.34-0.881,1.666-1.666C268.777,308.533,267.223,308.52,266.622,310.341z M262.92,311.452
		c0.723-0.264,1.217-0.757,1.481-1.481c-0.628-0.235-0.701-1.026-1.481-1.11C262.92,309.724,262.92,310.588,262.92,311.452z
		 M271.99,309.971c0.121,0.681,0.682,0.922,1.11,1.296c-0.115-1.067,0.357-1.581-0.185-2.221
		C272.685,309.433,272.377,309.741,271.99,309.971z M332.329,312.192c0.785-0.326,1.341-0.881,1.666-1.666
		C332.527,307.897,329.543,310.881,332.329,312.192z M327.332,311.822c0.746-0.18,1.042-0.809,1.48-1.295
		c-0.563-0.3-0.798-0.929-1.48-1.111C327.332,310.218,327.332,311.02,327.332,311.822z M336.216,310.526
		c0.203,0.661,0.635,1.093,1.296,1.295c-0.118-0.684,0.24-1.844-0.185-2.221C336.933,309.886,336.637,310.269,336.216,310.526z
		 M264.216,312.562c0.867-0.12,2.216,0.242,2.776-0.185c-0.691-0.296-0.823-1.151-1.666-1.295
		C265.188,311.807,264.235,311.718,264.216,312.562z M269.583,312.562c0.806-0.119,2.092,0.242,2.591-0.185
		C271.542,311.171,270.009,311.053,269.583,312.562z M328.442,312.933c0.554,0.372,1.746,0.104,2.592,0.185
		c0.059-0.985-0.893-0.959-1.297-1.481C329.492,312.255,328.655,312.282,328.442,312.933z M334.181,313.118c0.74,0,1.48,0,2.221,0
		c-0.18-0.746-0.809-1.042-1.296-1.481C334.947,312.243,333.755,312.511,334.181,313.118z M265.696,315.524
		c0.387-0.23,0.696-0.539,0.926-0.926c-0.623,0.117-1.719-0.238-2.036,0.185C265.087,314.898,265.046,315.557,265.696,315.524z
		 M271.99,314.598c-0.684,0.118-1.844-0.239-2.221,0.185C270.659,315.652,271.371,315.838,271.99,314.598z M266.622,316.634
		c0.571,0.416,1.064,0.909,1.48,1.48c0.785-0.325,1.34-0.88,1.666-1.666C268.827,314.994,267.451,315.073,266.622,316.634z
		 M330.108,316.079c0.125-0.43,0.615-0.495,0.74-0.925c-0.623,0.117-1.72-0.239-2.036,0.185
		C329.405,315.424,329.465,316.043,330.108,316.079z M336.216,315.154c-0.622,0.117-1.719-0.239-2.035,0.185
		C334.937,316.324,335.615,316.292,336.216,315.154z M262.92,317.745c0.633,0.301,1.188-0.848,1.666-1.296
		c-0.674-0.25-0.915-0.936-1.666-1.11C262.92,316.141,262.92,316.943,262.92,317.745z M271.99,316.449
		c0.121,0.681,0.682,0.922,1.11,1.296c-0.116-0.963,0.429-1.505-0.185-2.036C272.769,316.118,272.268,316.172,271.99,316.449z
		 M327.517,318.485c1.371-1.002,1.338-1.928-0.185-2.776C327.452,316.576,327.09,317.925,327.517,318.485z M331.034,317.189
		c0.318,0.606,0.976,0.875,1.295,1.481c0.802-0.248,1.161-0.937,1.852-1.296C333.626,315.694,331.623,315.321,331.034,317.189z
		 M336.401,317.189c0.291,0.448,0.662,0.818,1.11,1.111c-0.118-0.685,0.24-1.844-0.185-2.222
		C337.258,316.688,336.343,316.452,336.401,317.189z M263.846,319.226c0.753,0.357,0.945,1.276,1.851,1.48
		c0.357-0.753,1.276-0.945,1.481-1.851c-0.764-0.223-1.028-0.946-1.666-1.295C265.146,318.305,264.186,318.455,263.846,319.226z
		 M269.213,319.226c0.666,0.445,0.933,1.288,1.851,1.48C273.979,319.203,270.596,316.421,269.213,319.226z M328.257,319.596
		c0.892,1.837,2.404,1.765,3.146-0.185C330.355,317.848,329.282,318.23,328.257,319.596z M333.625,319.596
		c0.325,0.786,0.881,1.34,1.665,1.666c0.438-0.487,0.735-1.116,1.481-1.296c-0.299-0.873-1.059-1.286-1.666-1.851
		C334.689,318.686,334.196,319.18,333.625,319.596z M266.622,321.447c0.817,1.851,1.867,1.958,3.146,0.555
		c-0.3-0.873-1.059-1.286-1.666-1.851C267.79,320.764,267.106,321.005,266.622,321.447z M263.29,322.927
		c0.235-0.629,1.027-0.701,1.111-1.48c-0.615-0.188-0.58-1.024-1.481-0.926C262.998,321.369,262.682,322.61,263.29,322.927z
		 M271.99,321.632c0.142,0.598,0.512,0.968,1.11,1.11c-0.116-0.963,0.429-1.505-0.185-2.036
		C272.685,321.094,272.377,321.402,271.99,321.632z M330.849,322.002c0.152,0.896,1.064,1.033,1.48,1.666
		c0.794-0.317,1.391-0.831,1.852-1.481c-0.709-0.402-1.011-1.21-1.852-1.481C331.949,321.252,331.507,321.734,330.849,322.002z
		 M327.517,323.482c0.246-0.618,1.083-0.645,1.296-1.295c-0.606-0.319-0.874-0.977-1.48-1.296
		C327.451,321.698,327.09,322.983,327.517,323.482z M337.512,323.482c-0.118-0.745,0.241-1.968-0.185-2.406
		C336.148,321.956,336.181,322.758,337.512,323.482z M264.031,324.038c0.925,0,1.851,0,2.776,0
		C266.189,322.32,264.835,322.913,264.031,324.038z M269.583,324.038c0.806-0.12,2.092,0.241,2.591-0.186
		C271.324,322.628,270.271,322.661,269.583,324.038z M328.442,324.593c0.867-0.12,2.216,0.242,2.776-0.185
		C330.396,323.143,329.094,323.172,328.442,324.593z M333.81,324.593c0.864,0,1.728,0,2.592,0
		C335.931,322.976,334.354,323.28,333.81,324.593z M264.771,327c0.43,0.125,0.496,0.615,0.925,0.74
		c0.138-0.541,0.999-0.358,0.926-1.111C265.98,326.728,264.866,326.354,264.771,327z M270.509,327
		c0.326,0.167,0.573,0.414,0.741,0.74c0.598-0.142,0.968-0.512,1.11-1.111C271.718,326.728,270.604,326.354,270.509,327z
		 M328.997,327.37c0.267,0.104,0.452,0.289,0.556,0.555c0.535-0.082,0.844-0.391,0.925-0.925
		C329.919,327.057,329.039,326.793,328.997,327.37z M334.365,327.185c-0.397,0.647,1.834,1.196,1.666-0.185
		C335.451,327.037,334.672,326.875,334.365,327.185z M268.658,330.331c0.596-0.452,1.17-0.928,1.481-1.666
		C268.285,325.803,265.612,329.631,268.658,330.331z M262.92,329.96c0.859-0.066,1.221-0.63,1.481-1.295
		c-0.683-0.181-0.917-0.811-1.481-1.11C262.92,328.357,262.92,329.159,262.92,329.96z M272.73,328.665
		c0.142,0.599,0.512,0.969,1.11,1.111c-0.177-0.563,0.396-1.877-0.37-1.851C273.448,328.396,273.201,328.643,272.73,328.665z
		 M327.702,330.331c0.301-0.377,0.601-0.756,0.74-1.295c-0.401-0.278-0.431-0.927-1.11-0.926
		C327.461,328.845,327.009,330.16,327.702,330.331z M332.515,330.701c0.596-0.453,1.169-0.928,1.48-1.666
		C332.824,326.389,329.449,330.128,332.515,330.701z M336.401,329.036c0.081,0.535,0.39,0.843,0.926,0.925
		c-0.153-0.464,0.359-1.593-0.371-1.48C336.99,328.884,336.805,329.069,336.401,329.036z M263.846,331.626
		c0.582,0.59,1.108,1.236,2.036,1.481c0.732-0.441,1.151-1.193,1.481-2.036C266.643,329.94,264.025,330.154,263.846,331.626z
		 M271.25,333.107c0.885-0.349,1.409-1.059,1.851-1.851C271.397,328.974,268.333,332.085,271.25,333.107z M333.625,331.997
		c0.546,0.503,0.825,1.273,1.665,1.481C337.913,331.987,334.734,329.155,333.625,331.997z M329.368,333.478
		c0.886-0.349,1.409-1.059,1.851-1.851C330.115,329.146,326.888,332.374,329.368,333.478z M262.92,335.329
		c0.639-0.225,1.116-0.611,1.481-1.111c-0.535-0.329-0.607-1.12-1.481-1.11C262.92,333.848,262.92,334.588,262.92,335.329z
		 M266.807,334.588c0.88,1.154,3.125,1.248,3.332-0.555C269.446,332.785,266.9,332.816,266.807,334.588z M272.73,334.403
		c0.221,0.458,0.634,0.724,1.11,0.926c-0.186-0.616,0.41-2.014-0.37-2.036C273.599,334.038,272.691,333.747,272.73,334.403z
		 M330.849,334.773c0.756,0.293,0.8,1.298,1.851,1.296C335.406,334.867,331.328,331.835,330.849,334.773z M327.332,335.514
		c0.598-0.142,0.969-0.512,1.11-1.111c-0.745,0.128-0.454-0.779-1.11-0.74C327.332,334.279,327.332,334.896,327.332,335.514z
		 M336.216,334.403c0.143,0.599,0.513,0.969,1.111,1.111c-0.167-0.513,0.38-1.738-0.371-1.666
		C336.905,334.228,336.462,334.217,336.216,334.403z M264.401,336.624c0.802,0,1.604,0,2.406,0
		C266.612,335.293,264.596,335.293,264.401,336.624z M270.324,336.624c0.74,0,1.481,0,2.221,0
		C272.082,335.379,270.75,335.336,270.324,336.624z M333.995,336.994c0.623-0.117,1.72,0.238,2.036-0.185
		c-0.572-0.168-0.499-0.982-1.296-0.925C334.863,336.628,333.956,336.338,333.995,336.994z M328.628,336.994c0.74,0,1.48,0,2.221,0
		C330.87,335.764,328.605,335.764,328.628,336.994z M264.771,339.4c0.656-0.1,0.455,0.656,1.11,0.556
		c0.057-0.437,0.643-0.345,0.556-0.926C265.838,339.11,264.836,338.787,264.771,339.4z M270.509,339.4
		c0.407,0.21,0.615,0.619,1.111,0.74c0.115-0.502,0.773-0.46,0.74-1.11C271.718,339.129,270.604,338.755,270.509,339.4z
		 M328.997,339.771c0.267,0.104,0.452,0.289,0.556,0.555c0.535-0.082,0.844-0.39,0.925-0.925
		C329.919,339.458,329.039,339.195,328.997,339.771z M334.365,339.771c0.267,0.104,0.451,0.289,0.556,0.555
		c0.534-0.082,0.844-0.39,0.926-0.925C335.287,339.458,334.406,339.195,334.365,339.771z M266.992,341.437
		c0.764,0.223,1.028,0.946,1.666,1.295c0.42-0.567,1.168-0.806,1.666-1.295C269.654,339.569,267.402,339.106,266.992,341.437z
		 M262.92,342.362c1.632-0.482,1.632-1.924,0-2.406C262.92,340.757,262.92,341.56,262.92,342.362z M331.034,341.437
		c0.694,1.995,2.112,1.593,2.961,0c-0.979-0.07-0.774-1.323-1.852-1.296C332.093,340.891,331.341,340.942,331.034,341.437z
		 M272.73,341.066c0.142,0.598,0.512,0.968,1.11,1.11c-0.116-0.562,0.237-1.594-0.185-1.851
		C273.509,340.735,273.008,340.789,272.73,341.066z M327.702,342.732c0.301-0.378,0.601-0.756,0.74-1.295
		c-0.401-0.277-0.431-0.926-1.11-0.926C327.461,341.246,327.009,342.561,327.702,342.732z M337.327,342.547
		c-0.178-0.563,0.396-1.877-0.371-1.851C336.254,341.256,336.33,342.346,337.327,342.547z M264.031,343.842
		c0.457,0.469,0.698,1.153,1.295,1.481c0.987-0.062,1.202-0.896,2.036-1.111C266.803,342.124,264.957,342.202,264.031,343.842z
		 M269.769,344.028c0.714,0.396,0.973,1.248,1.851,1.48c0.402-0.708,1.21-1.01,1.48-1.851
		C272.423,342.447,270.091,342.503,269.769,344.028z M328.442,344.398c0.046,0.628,0.721,1.001,1.48,1.296
		C332.946,343.964,328.236,341.577,328.442,344.398z M333.625,344.398c0.864,1.849,2.244,1.336,2.962-0.37
		C336.008,342.778,333.865,342.92,333.625,344.398z M262.92,347.729c1.217,0.509,1.59-2.419,0-2.406
		C262.92,346.125,262.92,346.928,262.92,347.729z M268.473,348.1c0.645-0.403,1.266-0.832,1.666-1.481
		C269.317,343.515,265.165,347.228,268.473,348.1z M331.034,346.804c0.694,1.995,2.112,1.593,2.961,0
		c-0.979-0.07-0.774-1.323-1.852-1.296C332.093,346.259,331.341,346.31,331.034,346.804z M273.84,347.729c0-0.679,0-1.357,0-2.036
		C272.263,345.733,272.787,347.495,273.84,347.729z M327.702,348.1c0.301-0.378,0.601-0.756,0.74-1.295
		c-0.401-0.277-0.431-0.926-1.11-0.926C327.461,346.614,327.009,347.929,327.702,348.1z M336.216,346.804
		c0.143,0.598,0.513,0.969,1.111,1.11c-0.178-0.563,0.396-1.877-0.371-1.851C336.934,346.535,336.687,346.782,336.216,346.804z
		 M264.401,349.025c0.745-0.119,1.968,0.241,2.406-0.185c-0.659-0.205-0.61-1.117-1.481-1.11
		C265.426,348.569,264.34,348.224,264.401,349.025z M270.139,349.025c0.802,0,1.604,0,2.406,0
		C272.56,347.751,270.16,347.829,270.139,349.025z M333.995,349.396c0.684-0.119,1.844,0.24,2.221-0.185
		C335.819,348.134,334.244,348.113,333.995,349.396z M328.628,349.396c0.74,0,1.48,0,2.221,0
		C330.87,348.166,328.605,348.166,328.628,349.396z M264.956,351.802c0.267,0.104,0.452,0.289,0.555,0.555
		c0.536-0.082,0.844-0.39,0.926-0.925C265.877,351.489,264.997,351.226,264.956,351.802z M270.694,351.802
		c0.267,0.104,0.452,0.289,0.556,0.555c0.491-0.187,1.053-0.304,1.11-0.925C271.761,351.511,270.759,351.188,270.694,351.802z
		 M328.997,352.172c0.349,0.524,1.538,0.514,1.48-0.37C329.919,351.859,329.039,351.596,328.997,352.172z M334.365,352.172
		c0.267,0.104,0.451,0.289,0.556,0.555c0.534-0.082,0.844-0.391,0.926-0.925C335.287,351.859,334.406,351.596,334.365,352.172z
		 M262.92,354.763c0.777-0.21,1.138-0.837,1.481-1.481c-0.835,0.033-0.457-1.147-1.481-0.926
		C262.92,353.159,262.92,353.961,262.92,354.763z M266.992,353.467c0.304,1.824,2.888,1.414,3.332,0
		C269.649,352.302,267.533,351.91,266.992,353.467z M272.73,353.282c0.122,0.681,0.683,0.922,1.11,1.296
		c-0.186-0.616,0.41-2.014-0.37-2.036C273.448,353.013,273.201,353.26,272.73,353.282z M331.034,354.022
		c0.69,0.296,0.822,1.152,1.665,1.296c1.317-0.444,0.976-2.229,0-2.776C331.953,352.845,331.329,353.269,331.034,354.022z
		 M327.332,354.948c0.66-0.203,1.093-0.635,1.296-1.296c-0.762,0.021-0.616-0.865-1.296-0.925
		C327.332,353.467,327.332,354.208,327.332,354.948z M337.327,354.948c-0.178-0.563,0.396-1.877-0.371-1.851
		C336.254,353.657,336.33,354.747,337.327,354.948z M269.769,356.244c0.338,1.589,2.525,1.525,3.332,0.37
		C272.503,354.557,270.733,354.619,269.769,356.244z M264.031,356.059c0.325,0.785,0.88,1.341,1.666,1.666
		c0.486-0.501,1.259-0.715,1.296-1.666C266.395,354.583,264.75,354.961,264.031,356.059z M331.034,356.429
		c-0.258-3.012-4.737,0.508-1.297,1.666C330.459,357.548,331.12,357.442,331.034,356.429z M333.625,356.799
		c0.691,0.296,0.822,1.152,1.665,1.295C338.255,357.056,334.271,353.806,333.625,356.799z M262.92,360.13
		c0.777-0.21,1.138-0.836,1.481-1.48c-0.676-0.126-0.902-0.702-1.481-0.926C262.92,358.526,262.92,359.329,262.92,360.13z
		 M266.807,358.835c0.509,0.663,1.094,1.25,1.851,1.666c0.382-0.667,1.099-0.999,1.481-1.666
		C269.433,357.639,267.458,357.388,266.807,358.835z M273.84,360.13c-0.194-0.67,0.42-2.147-0.37-2.221
		C272.578,358.522,272.655,359.83,273.84,360.13z M333.995,359.206c-0.119-1.2-2.772-1.602-3.146,0
		C331.147,361.193,334.135,360.606,333.995,359.206z M327.702,360.5c0.301-0.377,0.601-0.756,0.74-1.295
		c-0.401-0.278-0.431-0.927-1.11-0.926C327.461,359.014,327.009,360.33,327.702,360.5z M337.327,360.316
		c-0.178-0.563,0.396-1.877-0.371-1.851C336.254,359.024,336.33,360.115,337.327,360.316z M264.216,361.426
		c0.867-0.12,2.216,0.242,2.776-0.185c-0.51-0.354-0.906-0.821-1.481-1.111C265.265,360.749,264.429,360.775,264.216,361.426z
		 M270.139,361.426c0.802,0,1.604,0,2.406,0c-0.084-0.78-0.84-0.888-1.295-1.296C271.028,360.712,270.228,360.713,270.139,361.426z
		 M328.442,361.796c0.745-0.119,1.968,0.241,2.406-0.185c-0.321-0.481-0.786-0.818-1.296-1.111
		C329.332,361.082,328.532,361.083,328.442,361.796z M333.995,361.796c0.684-0.118,1.844,0.24,2.221-0.185
		C335.819,360.535,334.244,360.514,333.995,361.796z M264.771,364.018c0.43,0.125,0.496,0.615,0.925,0.74
		c0.138-0.541,0.999-0.358,0.926-1.11C265.98,363.746,264.866,363.373,264.771,364.018z M270.509,364.018
		c0.326,0.167,0.573,0.414,0.741,0.74c0.598-0.142,0.968-0.512,1.11-1.11C271.718,363.746,270.604,363.373,270.509,364.018z
		 M328.997,364.388c0.267,0.104,0.452,0.289,0.556,0.555c0.535-0.082,0.844-0.39,0.925-0.925
		C329.919,364.075,329.039,363.812,328.997,364.388z M334.365,364.203c-0.397,0.647,1.834,1.196,1.666-0.185
		C335.451,364.056,334.672,363.893,334.365,364.203z M268.658,367.349c0.596-0.453,1.17-0.928,1.481-1.666
		C268.285,362.821,265.612,366.65,268.658,367.349z M262.92,366.979c0.859-0.066,1.221-0.631,1.481-1.295
		c-0.683-0.181-0.917-0.811-1.481-1.111C262.92,365.375,262.92,366.177,262.92,366.979z M272.73,365.684
		c0.142,0.598,0.512,0.968,1.11,1.11c-0.177-0.563,0.396-1.877-0.37-1.851C273.448,365.414,273.201,365.661,272.73,365.684z
		 M327.702,367.349c0.301-0.378,0.601-0.756,0.74-1.295c-0.401-0.278-0.431-0.926-1.11-0.926
		C327.461,365.863,327.009,367.178,327.702,367.349z M332.515,367.719c0.596-0.453,1.169-0.928,1.48-1.666
		C332.824,363.407,329.449,367.146,332.515,367.719z M336.401,366.054c0.081,0.535,0.39,0.843,0.926,0.925
		c-0.153-0.464,0.359-1.594-0.371-1.481C336.99,365.902,336.805,366.087,336.401,366.054z M263.846,368.645
		c0.582,0.59,1.108,1.236,2.036,1.48c0.732-0.441,1.151-1.193,1.481-2.036C266.643,366.958,264.025,367.172,263.846,368.645z
		 M271.25,370.125c0.885-0.349,1.409-1.059,1.851-1.851C271.397,365.992,268.333,369.104,271.25,370.125z M333.625,369.015
		c0.546,0.503,0.825,1.272,1.665,1.48C337.913,369.005,334.734,366.173,333.625,369.015z M328.257,369.015
		c0.864,1.848,2.245,1.336,2.962-0.37C330.641,367.395,328.497,367.537,328.257,369.015z M262.92,372.347
		c0.639-0.225,1.116-0.611,1.481-1.111c-0.535-0.329-0.607-1.12-1.481-1.11C262.92,370.866,262.92,371.606,262.92,372.347z
		 M266.807,371.606c0.88,1.154,3.125,1.247,3.332-0.555C269.446,369.803,266.9,369.834,266.807,371.606z M272.73,371.421
		c0.221,0.457,0.634,0.724,1.11,0.925c-0.186-0.616,0.41-2.013-0.37-2.036C273.599,371.056,272.691,370.765,272.73,371.421z
		 M330.849,371.792c0.756,0.292,0.8,1.298,1.851,1.296C335.406,371.885,331.328,368.854,330.849,371.792z M327.332,372.532
		c0.598-0.142,0.969-0.512,1.11-1.11c-0.745,0.128-0.454-0.78-1.11-0.741C327.332,371.298,327.332,371.915,327.332,372.532z
		 M336.216,371.421c0.143,0.598,0.513,0.968,1.111,1.11c-0.167-0.513,0.38-1.737-0.371-1.666
		C336.905,371.246,336.462,371.235,336.216,371.421z M264.401,373.642c0.802,0,1.604,0,2.406,0
		C266.612,372.312,264.596,372.312,264.401,373.642z M270.324,373.642c0.74,0,1.481,0,2.221,0
		C272.082,372.397,270.75,372.354,270.324,373.642z M333.995,374.012c0.623-0.117,1.72,0.238,2.036-0.185
		c-0.572-0.169-0.499-0.982-1.296-0.926C334.863,373.647,333.956,373.356,333.995,374.012z M328.628,374.012c0.74,0,1.48,0,2.221,0
		C330.87,372.783,328.605,372.783,328.628,374.012z M264.771,376.418c0.656-0.1,0.455,0.656,1.11,0.556
		c0.057-0.437,0.643-0.345,0.556-0.926C265.838,376.128,264.836,375.805,264.771,376.418z M270.509,376.418
		c0.407,0.21,0.615,0.619,1.111,0.74c0.115-0.502,0.773-0.46,0.74-1.11C271.718,376.147,270.604,375.773,270.509,376.418z
		 M328.997,376.789c0.267,0.104,0.452,0.289,0.556,0.555c0.535-0.081,0.844-0.39,0.925-0.925
		C329.919,376.476,329.039,376.213,328.997,376.789z M334.365,376.789c0.267,0.104,0.451,0.289,0.556,0.555
		c0.534-0.081,0.844-0.39,0.926-0.925C335.287,376.476,334.406,376.213,334.365,376.789z M266.992,378.455
		c0.764,0.223,1.028,0.946,1.666,1.295c0.42-0.567,1.168-0.806,1.666-1.295C269.654,376.587,267.402,376.125,266.992,378.455z
		 M262.92,379.38c1.632-0.482,1.632-1.924,0-2.406C262.92,377.776,262.92,378.578,262.92,379.38z M331.034,378.455
		c0.694,1.995,2.112,1.593,2.961,0c-0.979-0.07-0.774-1.323-1.852-1.296C332.093,377.91,331.341,377.96,331.034,378.455z
		 M272.73,378.084c0.142,0.599,0.512,0.969,1.11,1.11c-0.116-0.562,0.237-1.594-0.185-1.851
		C273.509,377.753,273.008,377.807,272.73,378.084z M327.702,379.75c0.301-0.377,0.601-0.756,0.74-1.295
		c-0.401-0.277-0.431-0.926-1.11-0.925C327.461,378.264,327.009,379.579,327.702,379.75z M337.327,379.565
		c-0.178-0.562,0.396-1.877-0.371-1.851C336.254,378.274,336.33,379.364,337.327,379.565z M264.031,380.861
		c0.457,0.469,0.698,1.152,1.295,1.481c0.987-0.062,1.202-0.896,2.036-1.111C266.803,379.142,264.957,379.22,264.031,380.861z
		 M269.769,381.046c0.714,0.396,0.973,1.248,1.851,1.48c0.402-0.708,1.21-1.01,1.48-1.851
		C272.423,379.465,270.091,379.521,269.769,381.046z M328.442,381.416c0.046,0.628,0.721,1.001,1.48,1.296
		C332.946,380.983,328.236,378.595,328.442,381.416z M333.625,381.416c0.864,1.849,2.244,1.336,2.962-0.37
		C336.008,379.796,333.865,379.938,333.625,381.416z M262.92,384.748c1.217,0.509,1.59-2.419,0-2.406
		C262.92,383.144,262.92,383.946,262.92,384.748z M268.473,385.118c0.645-0.403,1.266-0.832,1.666-1.48
		C269.317,380.533,265.165,384.246,268.473,385.118z M331.034,383.822c0.694,1.995,2.112,1.593,2.961,0
		c-0.979-0.07-0.774-1.323-1.852-1.296C332.093,383.277,331.341,383.328,331.034,383.822z M273.84,384.748c0-0.679,0-1.357,0-2.036
		C272.263,382.751,272.787,384.513,273.84,384.748z M327.702,385.118c0.301-0.378,0.601-0.756,0.74-1.295
		c-0.401-0.277-0.431-0.926-1.11-0.925C327.461,383.632,327.009,384.947,327.702,385.118z M336.216,383.822
		c0.143,0.598,0.513,0.969,1.111,1.111c-0.178-0.563,0.396-1.877-0.371-1.851C336.934,383.553,336.687,383.8,336.216,383.822z
		 M264.401,386.043c0.745-0.119,1.968,0.24,2.406-0.186c-0.659-0.204-0.61-1.117-1.481-1.11
		C265.426,385.587,264.34,385.242,264.401,386.043z M270.139,386.043c0.802,0,1.604,0,2.406,0
		C272.56,384.769,270.16,384.847,270.139,386.043z M333.995,386.414c0.684-0.118,1.844,0.24,2.221-0.185
		C335.819,385.152,334.244,385.131,333.995,386.414z M328.628,386.414c0.74,0,1.48,0,2.221,0
		C330.87,385.184,328.605,385.184,328.628,386.414z M264.956,388.82c0.267,0.104,0.452,0.289,0.555,0.555
		c0.536-0.082,0.844-0.39,0.926-0.925C265.877,388.507,264.997,388.244,264.956,388.82z M270.694,388.82
		c0.267,0.104,0.452,0.289,0.556,0.555c0.491-0.188,1.053-0.304,1.11-0.925C271.761,388.529,270.759,388.206,270.694,388.82z
		 M328.997,389.19c0.349,0.524,1.538,0.514,1.48-0.37C329.919,388.877,329.039,388.614,328.997,389.19z M334.365,389.19
		c0.267,0.104,0.451,0.289,0.556,0.555c0.534-0.082,0.844-0.39,0.926-0.925C335.287,388.877,334.406,388.614,334.365,389.19z
		 M262.92,391.781c0.777-0.21,1.138-0.837,1.481-1.481c-0.835,0.033-0.457-1.147-1.481-0.925
		C262.92,390.177,262.92,390.979,262.92,391.781z M266.992,390.485c0.304,1.825,2.888,1.414,3.332,0
		C269.649,389.32,267.533,388.928,266.992,390.485z M272.73,390.3c0.122,0.681,0.683,0.922,1.11,1.296
		c-0.186-0.616,0.41-2.014-0.37-2.036C273.557,390.14,273.005,390.082,272.73,390.3z M331.034,391.041
		c0.69,0.296,0.822,1.152,1.665,1.296c1.317-0.444,0.976-2.229,0-2.776C331.953,389.863,331.329,390.287,331.034,391.041z
		 M327.332,391.966c0.66-0.203,1.093-0.635,1.296-1.296c-0.762,0.021-0.616-0.865-1.296-0.925
		C327.332,390.485,327.332,391.226,327.332,391.966z M337.327,391.966c-0.178-0.563,0.396-1.877-0.371-1.851
		C336.254,390.675,336.33,391.765,337.327,391.966z M269.769,393.262c0.338,1.589,2.525,1.525,3.332,0.37
		C272.503,391.576,270.733,391.637,269.769,393.262z M264.031,393.077c0.325,0.785,0.88,1.341,1.666,1.666
		c0.486-0.501,1.259-0.716,1.296-1.666C266.395,391.602,264.75,391.979,264.031,393.077z M331.034,393.447
		c-0.258-3.012-4.737,0.508-1.297,1.666C330.459,394.566,331.12,394.46,331.034,393.447z M333.625,393.817
		c0.691,0.296,0.822,1.151,1.665,1.295C338.255,394.074,334.271,390.824,333.625,393.817z M262.92,397.149
		c0.777-0.21,1.138-0.837,1.481-1.481c-0.676-0.126-0.902-0.702-1.481-0.925C262.92,395.544,262.92,396.347,262.92,397.149z
		 M266.807,395.853c0.509,0.663,1.094,1.25,1.851,1.666c0.382-0.667,1.099-0.999,1.481-1.666
		C269.433,394.657,267.458,394.407,266.807,395.853z M273.84,397.149c-0.194-0.67,0.42-2.147-0.37-2.221
		C272.578,395.541,272.655,396.848,273.84,397.149z M330.849,396.408c1.126,1.564,2.175,1.531,3.146-0.185
		C333.3,395.038,331.213,394.675,330.849,396.408z M327.702,397.519c0.301-0.378,0.601-0.757,0.74-1.295
		c-0.401-0.278-0.431-0.926-1.11-0.926C327.461,396.033,327.009,397.348,327.702,397.519z M337.327,397.334
		c-0.178-0.563,0.396-1.877-0.371-1.851C336.254,396.042,336.33,397.133,337.327,397.334z M264.216,398.444
		c0.867-0.12,2.216,0.242,2.776-0.185c-0.51-0.354-0.906-0.821-1.481-1.11C265.265,397.767,264.429,397.793,264.216,398.444z
		 M270.139,398.444c0.802,0,1.604,0,2.406,0c-0.084-0.78-0.84-0.887-1.295-1.295C271.028,397.73,270.228,397.731,270.139,398.444z
		 M328.442,398.814c0.745-0.119,1.968,0.241,2.406-0.185c-0.321-0.481-0.786-0.818-1.296-1.11
		C329.332,398.1,328.532,398.102,328.442,398.814z M333.995,398.814c0.684-0.118,1.844,0.24,2.221-0.185
		C335.819,397.554,334.244,397.532,333.995,398.814z"/>
</g>
<rect x="250" y="173.559" fill-rule="evenodd" clip-rule="evenodd" width="11.439" height="226.366"/>
<rect x="338.561" y="173.559" fill-rule="evenodd" clip-rule="evenodd" width="11.439" height="226.883"/>
</svg>
