<?xml version="1.0" encoding="utf-8"?>
<!-- Generator: Adobe Illustrator 14.0.0, SVG Export Plug-In . SVG Version: 6.00 Build 43363)  -->
<!DOCTYPE svg PUBLIC "-//W3C//DTD SVG 1.1//EN" "http://www.w3.org/Graphics/SVG/1.1/DTD/svg11.dtd">
<svg version="1.1" id="Layer_1" xmlns="http://www.w3.org/2000/svg" xmlns:xlink="http://www.w3.org/1999/xlink" x="0px" y="0px"
	 width="100px" height="171.333px" viewBox="250 257.5 100 171.333" enable-background="new 250 257.5 100 171.333"
	 xml:space="preserve">
<g>
	<g>
		<defs>
			<rect id="SVGID_1_" x="250" y="259.888" width="100" height="168.945"/>
		</defs>
		<clipPath id="SVGID_2_">
			<use xlink:href="#SVGID_1_"  overflow="visible"/>
		</clipPath>
		<g clip-path="url(#SVGID_2_)">
			<path d="M266.977,227.46c0.057,0.989-0.688,2.349-1.598,2.677c-0.229,0.082-0.493,0.083-0.76,0.08
				c0.086,0.888-0.333,1.787-0.998,1.718c-0.925-0.096-0.931-3.009-0.6-3.955c0.461,0.218,0.774,0.584,1.038,0.999
				C264.906,228.347,265.738,227.7,266.977,227.46z"/>
			<path d="M245.125,231.256c0.898,0.59,1.977,2.09,1.238,3.436c0.652,0.071,1.935,2.065,0.24,1.917
				c-1.169-0.102-2.355-0.986-2.996-1.598c0.38-0.232,0.848-0.377,1.438-0.399C244.776,233.672,244.74,232.093,245.125,231.256z"/>
			<path d="M239.812,238.846c0.844,0.575,1.677,2.409,0.838,3.555c0.461,0.38,1.069,0.989,0.759,1.878
				c-0.809,0.317-1.537-0.216-2.076-0.56c-0.587-0.373-1.185-0.828-1.479-1.398c0.433-0.113,0.886-0.207,1.438-0.2
				C239.239,240.958,239.37,239.645,239.812,238.846z"/>
			<path d="M244.166,241.682c0.029,0.468-0.176,0.703-0.279,1.039c0.467-0.119,0.825-0.347,1.438-0.32
				c-0.257,0.978-1.062,2.523-2.437,2.517c-0.572-0.003-1.407-0.443-0.839-1.039C241.269,242.494,242.67,241.413,244.166,241.682z"
				/>
			<path d="M233.58,246.875c1.532,0.146,2.828,0.527,3.036,1.998c0.772-0.16,1.946,0.122,1.838,0.879
				c-0.107,0.743-2.21,1.122-3.116,1.118c-0.229,0-0.528-0.071-0.72-0.08c0.217-0.477,0.523-0.862,0.88-1.198
				C234.673,248.871,233.879,248.121,233.58,246.875z"/>
			<path d="M332.45,262.015c1.007,0.121,2.192,0.757,2.996,1.358c0.175,0.131,0.691,0.679,0.72,0.679
				c0.094-0.001,0.543-0.66,0.639-0.759c0.269-0.28,0.449-0.461,0.759-0.599c0.24,0.813,0.331,1.771,0.24,2.916
				c-0.063,0.795-0.29,2.203-0.92,2.317c-0.809,0.147-1.565-1.223-1.317-2.237C333.443,265.55,332.82,263.909,332.45,262.015z"/>
			<path d="M360.454,271.443c0.651,0.12,1.264,0.28,1.797,0.52c-0.71,0.881-2.377,2.087-3.875,2.197
				c-1.904,0.14-0.641-2.385,0.359-2.477c-0.88-1.875,0.428-3.767,1.559-4.634C360.859,268.086,360.765,270.197,360.454,271.443z"/>
			<path d="M344.954,271.723c0.515-0.298,1.043-0.581,1.718-0.719c-0.349-0.317-0.846-0.486-1.119-0.879
				c0.832-1.289,3.824-1.64,3.875,0.56c1.009,0.161,0.471,1.356,0,1.757C348.253,273.445,345.55,272.624,344.954,271.723z"/>
			<path d="M367.724,281.43c0.629,0.09,1.34,0.099,1.837,0.32c-0.287,0.644-0.917,1.161-1.557,1.638
				c-0.723,0.539-1.586,1.171-2.796,1.039c-0.677-0.883,0.148-2.237,0.878-2.517c-1.164-1.471-0.08-3.941,0.959-4.794
				C367.646,278.157,367.863,279.779,367.724,281.43z"/>
			<path d="M259.626,280.591c0.477,0.718-0.071,1.558-0.399,2.117c-0.357,0.61-0.746,1.283-1.318,1.558
				c-0.105-0.454-0.28-0.838-0.24-1.438c-1.144,0.19-2.523,0.055-3.355-0.32c0.576-0.866,2.306-1.814,3.556-0.999
				C258.177,280.947,258.724,280.428,259.626,280.591z"/>
			<path d="M361.532,280.87c2.04-0.237,3.7,1.047,2.717,2.917c0.576,0.622-0.011,1.255-0.76,1.358
				c-1.997,0.275-2.987-1.952-3.435-3.275c0.709-0.097,1.34,0.23,1.877,0.439C361.778,281.85,361.542,281.474,361.532,280.87z"/>
			<path d="M375.034,287.821c-0.442,1.542-1.346,2.623-2.437,3.516c0.365,0.539,0.862,0.948,1.078,1.638
				c-1.088,0.163-2.333,0.042-3.396-0.32c-0.633-0.215-1.418-0.596-1.478-1.078c-0.111-0.885,1.235-1.405,2.276-1.119
				C371.472,288.653,372.899,287.884,375.034,287.821z"/>
			<path d="M257.229,291.377c1.445-0.062,3.186,0.727,2.517,2.277c-0.146,0.028-0.304,0.069-0.44,0
				c-0.97,0.93-2.32-0.007-2.396-1.159c0.187-0.126,0.636-0.089,0.88-0.04C257.716,292.141,257.296,291.829,257.229,291.377z"/>
			<path d="M268.694,293.933c1.604,0.086,2.851,0.532,3.075,1.998c0.825-0.222,1.873,0.135,1.838,0.799
				c-0.04,0.756-1.927,1.102-2.756,1.159c-0.336,0.023-0.738-0.014-1.039-0.04c0.065-0.456,0.493-0.891,0.839-1.198
				C269.812,295.931,269.061,295.125,268.694,293.933z"/>
			<path d="M259.786,294.093c0.469,1.138-0.214,2.583-0.72,3.275c-0.301-0.245-0.423-0.668-0.56-1.078
				c-0.747,0.271-1.81,0.585-2.796,0.359c0.495-0.872,1.277-1.854,2.717-1.518C258.604,294.532,258.992,293.943,259.786,294.093z"/>
			<path d="M262.942,296.889c-0.654-0.052-1.073-0.339-1.519-0.599c0.144,0.764,0.172,1.806-0.08,2.477
				c-0.982-0.426-2.21-2.89-0.68-3.595c-0.001-0.564,0.093-1.099,0.52-1.119c0.442-0.021,0.923,0.732,1.158,1.159
				C262.664,295.792,262.883,296.362,262.942,296.889z"/>
			<path d="M373.956,297.209c0.134-0.092,0.438-0.014,0.639-0.04C374.461,297.261,374.156,297.183,373.956,297.209z"/>
			<path d="M259.905,299.086c0.227,1.764-2.041,1.69-2.916,0.959c0.171-0.375,0.521-0.572,0.8-0.839
				c-0.57-0.017-1.026-0.146-1.438-0.32c0.393-0.554,1.497-1.446,2.796-1.278C259.862,297.701,260.916,298.652,259.905,299.086z"/>
			<path d="M265.778,298.807c-0.508,0.278-0.986,0.585-1.719,0.639c0.062,0.23,0.333,0.322,0.52,0.479
				c0.526,0.442,1.104,1.044,1.398,1.757c-1.903,0.244-4.1-0.656-3.556-2.477c-0.301-0.325-0.657-0.593-0.599-1.278
				C262.903,297.197,265.14,298.171,265.778,298.807z"/>
			<path d="M262.901,302.402c-0.554-0.059-0.98-0.245-1.358-0.479c-0.225,0.375-0.372,0.827-0.639,1.158
				c0.928,0.59,1.493,1.543,1.678,2.876c-0.587-0.092-1.031-0.327-1.438-0.599c0.009,0.364,0.067,1.025,0.04,1.558
				c1.451-0.42,2.979,0.308,3.875,0.959c-0.426,0.387-1.051,0.574-1.717,0.719c0.603,0.607,1.553,1.217,1.916,2.197
				c-1.992,0.209-3.978-0.533-3.555-2.477c-0.247-0.205-0.455-0.451-0.56-0.799c-0.069,0.076-0.085,0.208-0.119,0.319
				c-1.046-0.496-2.168-2.832-0.68-3.635c0-0.106,0-0.213,0-0.319c-0.201,0.119-0.467,0.518-0.799,0.639
				c-0.175,0.757-0.362,1.502-0.879,1.917c-0.181-0.352-0.387-0.679-0.479-1.119c-0.723,0.329-1.813,0.582-2.797,0.399
				c0.461-0.896,1.361-1.905,2.716-1.518c0.147-0.625,0.511-1.034,1.198-1.119c0.005-0.115-0.021-0.261,0.041-0.319
				c-0.519-0.251-0.662,0.299-1.158,0.359c-0.884,0.108-1.346-0.659-1.599-1.558c0.164-0.146,0.691-0.083,0.919-0.04
				c-0.191-0.382-0.527-0.619-0.6-1.119c1.313,0.058,2.358,0.385,2.637,1.478c0.267-0.333,0.481-0.717,0.958-0.839
				c-0.609-0.877-0.127-2.637,0.92-1.718C262.135,299.951,262.747,301.349,262.901,302.402z"/>
			<path d="M278.481,304.439c0.014,0.201-0.011,0.362-0.08,0.479c0.822,1.001,0.072,2.459-1.118,2.517
				c0.293,0.286,0.578,1.21,0.159,1.598c-0.154,0.007-0.295,0.001-0.399-0.04c-0.923,0.956-2.337,0.036-2.357-1.199
				c0.302-0.063,0.564-0.021,0.879,0c-0.114-0.286-0.512-0.633-0.599-1.079c0.16,0,0.32,0,0.479,0
				c0.159-0.745,0.469-1.616,0.998-2.117C276.88,304.188,277.909,303.822,278.481,304.439z M276.164,306.876
				c0.219,0.008,0.319,0.133,0.52,0.16c-0.012-0.171,0.195-0.506,0.04-0.559C276.577,306.65,276.275,306.667,276.164,306.876z"/>
			<path d="M282.755,305.758c-0.4,0.198-0.837,0.361-1.358,0.439c0.303,0.861,0.402,2.345,0.121,3.315
				c-1.002-0.53-2.118-1.95-1.438-3.396c-0.698-0.221-1.193-0.644-1.158-1.598c0.157-0.24,0.501-0.286,0.959-0.24
				C280.962,304.389,282.386,305.182,282.755,305.758z"/>
			<path d="M259.187,308.195c0.066,0.482-0.171,0.999-0.479,1.238c0.299,0.247,0.626,0.466,0.759,0.879
				c0.084-0.076,0.205-0.115,0.32-0.16c-0.596-0.802-0.158-2.676,0.918-1.717c0.701,0.624,1.329,2.035,1.479,3.076
				c-0.567-0.045-0.977-0.248-1.358-0.479c-0.359,0.759-0.763,1.475-1.318,2.038c-0.152,0.806-0.379,1.538-0.879,1.997
				c-0.174-0.359-0.403-0.661-0.479-1.118c-0.731,0.312-1.736,0.544-2.796,0.399c0.438-0.912,1.356-1.92,2.717-1.518
				c0.019-0.607,0.571-0.68,0.599-1.278c-0.998,0.565-2.042-0.345-2.117-1.438c0.334-0.041,0.538-0.023,0.879,0
				c-0.1-0.447-0.7-0.738-1.158-0.959c0.157-0.361,0.494-0.543,0.759-0.799c-0.508-0.091-1.024-0.174-1.438-0.359
				c0.453-0.517,1.505-1.419,2.796-1.279C259.132,306.798,260.202,307.762,259.187,308.195z"/>
			<path d="M276.803,312.749c-0.236-0.309-0.435-0.657-0.519-1.119c-0.755,0.29-1.73,0.551-2.796,0.4
				c0.436-0.933,1.269-1.859,2.676-1.558c0.214-0.562,0.579-1.174,1.358-1.039C278.031,310.561,277.337,312.018,276.803,312.749z"/>
			<path d="M280.679,312.27c-0.583-0.124-1.084-0.328-1.479-0.64c0.105,0.776,0.139,1.804-0.08,2.477
				c-1.077-0.415-2.184-2.848-0.679-3.596c-0.043-0.672,0.135-1.19,0.679-1.078c0.396,0.082,0.774,0.795,0.999,1.198
				C280.431,311.191,280.668,311.717,280.679,312.27z"/>
			<path d="M262.542,314.586c-0.582-0.123-1.084-0.328-1.479-0.639c0.115,0.744,0.146,1.836-0.079,2.477
				c-1.068-0.435-2.176-2.836-0.68-3.595c-0.033-0.666,0.142-1.181,0.68-1.079c0.406,0.077,0.772,0.792,0.999,1.198
				C262.29,313.502,262.553,314.021,262.542,314.586z"/>
			<path d="M283.594,312.749c-0.15,0.714-0.536,1.193-0.918,1.677c1.046-0.062,2.141,0.069,2.916,0.399
				c-0.639,1.19-3.726,2.193-4.354,0.32c-0.516-0.043-1.101-0.152-1.198-0.519c-0.179-0.675,0.862-1.132,1.357-1.358
				C282.164,312.918,282.831,312.732,283.594,312.749z"/>
			<path d="M279.32,316.024c0.059,0.193,0.052,0.449-0.08,0.559c1.008,1.204-0.154,2.708-1.678,2.597
				c-0.014-0.401,0.005-0.767,0.12-1.039c-0.384,0.11-0.805,0.527-1.398,0.559C276.361,317.125,277.623,315.071,279.32,316.024z"/>
			<path d="M283.635,317.423c-0.412,0.187-0.86,0.339-1.358,0.439c0.272,0.891,0.431,2.384,0.079,3.316
				c-0.941-0.576-2.049-1.871-1.438-3.356c-0.662-0.059-1.88-1.825-0.56-1.917C281.524,315.823,283.111,316.758,283.635,317.423z"/>
			<path d="M259.466,317.502c-0.06,0.1-0.168,0.151-0.279,0.2c0.137,1.285-1.485,1.3-2.197,0.759
				c0.081-0.305,0.323-0.448,0.56-0.599c-0.323-0.143-0.816-0.115-1.079-0.319C256.929,316.753,259.252,315.941,259.466,317.502z"/>
			<path d="M263.541,317.502c-0.353,0.233-0.727,0.445-1.278,0.479c0.5,0.538,1.162,0.916,1.438,1.678
				c-1.45,0.112-2.922-0.295-2.676-1.877c-0.246-0.204-0.527-0.552-0.399-0.999C261.638,316.423,262.935,316.946,263.541,317.502z"
				/>
			<path d="M261.384,320.219c-0.371-0.082-0.71-0.195-0.999-0.359c-0.281,0.479-0.551,0.966-0.68,1.598
				c-0.136,0.007-0.285,0.133-0.399,0.04c-0.399,0.269-0.707,0.639-1.237,0.639c-0.857,0-1.421-0.882-1.638-1.598
				c0.245-0.128,0.616-0.128,0.998-0.12c-0.249-0.417-0.705-0.626-0.839-1.159c0.88-0.117,1.833-0.008,2.357,0.36
				c0.26-0.113,0.352-0.393,0.679-0.439c-0.383-0.458-0.317-1.619,0.399-1.478c0.356,0.07,0.681,0.721,0.879,1.079
				C261.177,319.271,261.398,319.741,261.384,320.219z"/>
			<path d="M276.803,319.22c1.403-0.063,3.228,0.721,2.518,2.277c-0.121,0.054-0.319,0.054-0.439,0
				c-0.945,0.927-2.36,0.019-2.357-1.198c0.273-0.063,0.601-0.041,0.879,0C277.279,320.022,276.892,319.665,276.803,319.22z"/>
			<path d="M262.263,326.89c-1.216-0.444-2.839-2.691-1.318-3.915c0.108,0.025,0.316-0.051,0.359,0.04
				c-0.3-0.221-0.655-1.744,0-1.917c0.572-0.151,1.272,0.736,1.558,1.119c0.451,0.602,0.746,1.175,0.879,1.757
				c-0.968,0.01-1.578-0.339-2.156-0.719C262.125,324.13,262.447,325.542,262.263,326.89z"/>
			<path d="M259.506,325.692c-0.348-0.291-0.578-0.7-0.759-1.159c-0.81,0.458-1.827,0.912-3.036,0.839
				c0.453-1.133,1.128-2.253,2.757-2.077c-0.1-0.847,1.491-2.188,1.678-0.679C260.275,323.671,259.92,325.03,259.506,325.692z"/>
			<path d="M279.359,321.937c0.474,1.1-0.139,2.625-0.759,3.276c-0.198-0.321-0.419-0.619-0.479-1.079
				c-0.767,0.281-1.732,0.546-2.797,0.399c0.427-0.939,1.267-1.864,2.677-1.558C278.193,322.392,278.575,321.795,279.359,321.937z"
				/>
			<path d="M282.516,324.733c-0.643-0.049-1.068-0.317-1.478-0.599c0.002,0.383,0.095,0.677,0.08,1.079
				c0.526-0.112,0.955-0.323,1.637-0.28c-0.15,0.714-0.53,1.2-0.918,1.678c1.15-0.045,2.133,0.078,2.916,0.399
				c-0.617,1.193-3.743,2.209-4.354,0.319c-0.574,0.016-0.929-0.19-1.198-0.479c-0.067-0.719,0.464-0.841,0.839-1.119
				c-0.632-0.624-0.78-2.457,0.24-2.756c-0.073-0.569,0.116-1.161,0.679-1.039c0.157,0.035,0.476,0.367,0.599,0.52
				C282,323.003,282.438,324.031,282.516,324.733z"/>
			<path d="M259.146,329.247c-0.336-0.695-0.625-3.257,0.6-3.036c0.478,0.086,0.854,0.691,0.879,1.158
				C260.674,328.34,259.75,328.991,259.146,329.247z"/>
			<path d="M276.724,331.404c-0.013-0.413,0-0.799,0.12-1.079c-0.383,0.111-0.794,0.538-1.398,0.559
				c0.085-1.567,1.343-3.625,3.036-2.677c0.07,0.212,0.028,0.458-0.08,0.6C279.448,330.018,278.17,331.46,276.724,331.404z"/>
			<path d="M282.796,329.606c-0.409,0.191-0.848,0.351-1.358,0.439c0.272,0.891,0.431,2.384,0.08,3.315
				c-0.948-0.571-2.05-1.871-1.438-3.355c-0.509-0.285-1.268-0.697-1.158-1.478c0.051-0.364,0.433-0.458,0.998-0.399
				C280.969,328.236,282.43,329.028,282.796,329.606z"/>
			<path d="M262.103,332.922c-1.011-0.173-2.182-1.937-1.238-2.796c0.066-0.06,0.14-0.099,0.319-0.08
				C261.894,330.123,262.127,331.922,262.103,332.922z"/>
			<path d="M275.925,333.282c-0.178-0.329-0.698-0.661-0.839-1.159c1.703-0.233,3.705,0.42,3.115,2.197
				c-0.12,0.053-0.305,0.041-0.479,0.04c-0.757,1.232-2.64,0.307-2.797-0.958C275.163,333.292,275.649,333.221,275.925,333.282z"/>
			<path d="M344.074,333.761c1.426-1.128,3.889,0.163,4.555,1.318c-1.044,0.488-2.825,0.717-4.194,0.399
				c-0.059,0.7-0.169,1.35-0.36,1.918c-0.569-0.302-1.132-1.026-1.597-1.838c-0.389-0.678-0.98-1.716-0.84-2.557
				C341.84,331.803,344.082,332.906,344.074,333.761z"/>
			<path d="M282.236,337.436c-0.721,0.002-1.214-0.225-1.718-0.439c0.188,0.786,0.451,1.826,0.239,2.757
				c-1.226-0.43-2.817-2.8-1.277-3.955c-0.117-0.699,0.01-1.333,0.639-1.238c0.203,0.03,0.516,0.287,0.679,0.439
				C281.4,335.562,282.072,336.626,282.236,337.436z"/>
			<path d="M278.201,338.195c1.563,0.513,0.792,2.752-0.519,3.076c-0.405-0.737-0.458-2.327,0.079-2.956
				c-0.195-0.284-0.38-0.578-0.519-0.919c-0.832,0.46-1.706,0.877-3.036,0.839c0.446-1.125,1.223-2.299,2.756-2.077
				c0.066-0.472,0.558-1.618,1.318-1.398c0.311,0.09,0.396,0.777,0.4,1.159C278.688,336.753,278.443,337.652,278.201,338.195z"/>
			<path d="M279.04,347.623c-0.814-0.583-1.465-1.331-1.518-2.676c-0.226-0.012-0.355,0.071-0.6,0.04
				c0.061-1.059,0.486-2.566,1.599-2.637c-0.327-0.731-0.062-1.988,0.599-2.037c0.872-0.065,1.299,2.104,1.358,2.916
				c0.021,0.279-0.012,0.635-0.04,0.879c-0.581-0.204-0.981-0.589-1.398-0.959c0.162,0.209-0.049,0.592-0.04,0.799
				c0.011,0.236,0.146,0.492,0.2,0.76C279.379,345.603,279.387,346.798,279.04,347.623z"/>
			<path d="M344.954,346.824c-0.128,0.631-0.523,0.995-0.799,1.478c0.341-0.077,0.835-0.127,1.158,0
				c-0.022,1.444-1.722,2.918-2.956,1.558c-0.15,0.059-0.449,0.059-0.6,0C340.913,347.911,343.016,346.767,344.954,346.824z"/>
			<path d="M278.002,351.618c-0.679-0.416-1.764-1.574-1.518-2.917c0.062-0.344,0.551-1.213,1.158-1.039
				C278.412,347.885,278.358,350.818,278.002,351.618z"/>
			<path d="M330.333,350.259c-0.433,1.551-1.342,2.626-2.437,3.515c0.368,0.537,0.868,0.942,1.078,1.638
				c-1.189,0.199-2.329,0.009-3.396-0.359c-0.593-0.206-1.454-0.505-1.478-1.119c-0.031-0.818,1.263-1.327,2.316-1.039
				C326.761,351.054,328.225,350.335,330.333,350.259z"/>
			<path d="M343.396,351.857c1.747-0.54,2.985,0.894,3.437,2.037c-1.266,0.164-2.601-0.092-3.476-0.56
				c-0.203,0.517-0.381,1.058-0.68,1.479c-0.563-0.552-1.109-1.919-1.198-3.076c-0.043-0.565-0.031-1.34,0.479-1.358
				C342.692,350.353,343.286,351.151,343.396,351.857z"/>
			<path d="M340.56,351.817c1.905,0.958,0.506,4.178-0.839,4.833c-0.327-0.823-0.286-2.261-0.12-3.235
				c-0.518,0.214-1.097,0.713-1.917,0.759c0.134-1.038,0.879-2.864,1.678-3.515C340.092,350.062,340.663,350.773,340.56,351.817z"/>
			<path d="M346.072,356.811c-0.508,0.238-1.099,0.394-1.798,0.44c0.209,0.325,0.809,0.603,0.959,1.119
				c-1.156,0.999-3.983,0.974-3.715-1.279c-1.19-0.522,0.02-1.792,0.879-1.958C344.033,354.817,345.515,356.076,346.072,356.811z"/>
			<path d="M338.363,357.21c0.505,2.623-2.031,3.585-4.555,3.315c0.541-1.271,1.542-2.08,2.517-2.917
				c-0.896-0.155-1.64-0.464-2.237-0.919c0.775-0.668,2.537-1.649,4.194-1.518c0.212,0.017,0.596,0.094,0.72,0.24
				C339.499,355.998,338.672,356.902,338.363,357.21z"/>
			<path d="M345.753,360.326c-0.063,1.401-1.779,2.977-2.956,1.518c-0.103,0.097-0.316,0.083-0.52,0.08
				c-0.031,0.191,0.062,0.257,0.04,0.439c0.819,0.179,1.36,0.637,1.478,1.519c1.762-0.53,2.896,0.825,3.476,1.997
				c-1.28,0.24-2.651-0.081-3.515-0.52c-0.188,0.533-0.375,1.063-0.68,1.478c-0.597-0.588-0.845-1.525-1.078-2.477
				c-0.35-0.304-0.702-0.603-0.999-0.958c-0.058,0.108,0.02,0.265-0.04,0.439c1.923,0.955,0.519,4.187-0.838,4.833
				c-0.037-0.15-0.091-0.283-0.121-0.44c-0.154,0.445-0.419,0.78-0.719,1.079c0.469,2.602-1.919,3.554-4.554,3.316
				c0.531-1.28,1.535-2.086,2.517-2.916c-0.893-0.16-1.643-0.462-2.237-0.919c0.784-0.729,2.681-1.662,4.234-1.519
				c0.271,0.025,0.438,0.125,0.68,0.24c-0.104-0.681,0.013-1.438,0.079-2.077c-0.496,0.223-1.093,0.691-1.877,0.759
				c0.286-1.685,0.887-3.055,2.157-3.755c-0.274-0.511-0.591-0.981-0.759-1.598c-0.547,0.266-1.045,0.58-1.798,0.639
				c0.28-1.505,1.007-3.437,2.077-4.234c1.26-0.94,1.7,1.533,0.959,2.396c0.541,0.245,0.927,0.645,1.198,1.159
				c0.422-1.375,1.651-1.944,3.436-1.958c-0.184,0.59-0.529,1.016-0.839,1.478C344.885,360.239,345.437,360.195,345.753,360.326z"/>
			<path d="M321.744,367.197c0.213,0,0.427,0,0.64,0c-0.139,0.62-0.525,0.993-0.8,1.478c0.366-0.071,0.811-0.112,1.159,0
				c-0.041,1.438-1.728,2.939-2.957,1.558c-0.138,0.061-0.363,0.035-0.559,0.039c-0.533-0.528-0.185-1.689,0.239-2.077
				c-1.387-0.134-2.664-1.977-1.397-3.276c-0.536-0.786,0.307-1.226,1.118-1.159C320.734,363.89,321.572,365.908,321.744,367.197z
				 M320.186,367.636c0.277-0.057,0.502-0.164,0.72-0.279c-0.311-0.102-0.6-0.438-0.879-0.439
				C320.132,367.105,320.159,367.371,320.186,367.636z"/>
			<path d="M315.912,366.398c0.88,1.76-0.609,3.841-1.837,4.554c-0.393-1.295-0.243-3.18,0.119-4.394
				c-0.615-0.184-1.253-0.345-1.758-0.64c0.363-0.544,1.082-0.948,1.878-1.318c0.63-0.293,2.913-1.261,3.075-0.12
				C317.521,365.402,316.573,366.27,315.912,366.398z"/>
			<path d="M346.991,368.915c-0.52,0.226-1.099,0.393-1.798,0.439c0.211,0.295,0.742,0.616,0.959,1.038
				c-0.227,0.28-0.619,0.394-0.959,0.56c-0.205,0.248-0.39,0.517-0.56,0.799c0.316-0.057,0.846-0.069,1.159,0
				c-0.113,1.231-1.285,2.806-2.677,1.798c-0.066,0.745,0.722,0.982,0.76,1.758c1.758-0.511,2.851,0.859,3.475,1.998
				c-1.212,0.306-2.617-0.089-3.515-0.479c-0.236,0.496-0.388,1.078-0.72,1.478c-0.321-0.375-0.505-0.763-0.68-1.198
				c-0.177-0.445-0.199-0.976-0.398-1.438c-0.182-0.421-0.644-0.79-0.919-1.239c-0.297-0.483-0.512-0.957-0.68-1.478
				c-0.547,0.265-1.048,0.576-1.798,0.639c0.125-1.267,1.019-3.25,1.879-4.074c0.194-0.186,0.652-0.49,1.038-0.319
				c0.663,0.293,0.587,2.036,0.119,2.556c0.113,0.088,0.268,0.132,0.399,0.2c0.253-0.44,0.532-0.853,0.999-1.079
				c-0.342-0.431-0.684-0.861-0.64-1.678c-0.271-0.205-0.601-0.239-0.519-0.759c0.114-0.729,0.953-1.199,1.758-1.238
				C345.16,367.125,346.535,368.247,346.991,368.915z"/>
			<path d="M317.989,372.23c1.92,0.999,0.481,4.163-0.879,4.794c-0.258-0.859-0.271-2.284-0.079-3.236
				c-0.521,0.213-1.096,0.717-1.918,0.759c0.121-1.039,0.88-2.875,1.678-3.515C317.539,370.431,318.092,371.18,317.989,372.23z"/>
			<path d="M320.825,372.23c1.735-0.497,2.905,0.812,3.436,2.037c-1.261,0.185-2.619-0.087-3.476-0.559
				c-0.213,0.506-0.392,1.046-0.679,1.478c-0.535-0.565-1.533-2.613-1.198-3.955c0.042-0.167,0.174-0.298,0.279-0.439
				C320.234,370.771,320.617,371.414,320.825,372.23z"/>
			<path d="M341.039,375.307c1.907,0.931,0.498,4.195-0.879,4.793c-0.263-0.863-0.263-2.276-0.08-3.235
				c-0.475,0.258-1.139,0.672-1.877,0.799c0.025-1.046,0.83-2.856,1.598-3.516C340.544,373.509,341.148,374.202,341.039,375.307z"/>
			<path d="M314.474,378.382c-0.723,2.483-4.769,1.198-5.593-0.4c0.979-0.432,2.226-0.598,3.676-0.559
				c-0.406-0.539-0.933-1.305-1.159-2.157c-0.007-0.035,0.017-0.038,0.04-0.04c0.033-0.007,0.04-0.04,0.08-0.04
				c0.88,0.024,1.737,0.294,2.716,0.759c0.692,0.328,1.837,0.868,1.719,1.678C315.872,378.17,315.152,378.336,314.474,378.382z"/>
			<path d="M320.706,383.136c-0.742-0.11-1.205-0.5-1.758-0.799c0.097,0.437,0.191,0.874,0.159,1.438
				c-1.902,0.094-3.53-1.898-2.157-3.395c-0.408-0.653,0.076-1.132,0.839-1.158C319.665,379.156,320.54,381.449,320.706,383.136z"/>
			<path d="M314.793,381.898c0.92,1.715-0.63,3.778-1.757,4.514c-0.508-1.141-0.295-3.287,0.079-4.394
				c-0.643-0.156-1.28-0.317-1.757-0.639c0.817-0.895,2.241-1.765,3.795-1.917c0.364-0.037,0.807-0.058,0.998,0.159
				c0.432,0.488-0.162,1.514-0.52,1.838C315.402,381.667,315.11,381.782,314.793,381.898z"/>
			<path d="M345.912,381.578c-0.35,0.222-0.829,0.316-1.357,0.359c0.105,0.215,0.531,0.454,0.679,0.759
				c-0.673,0.881-3.019,0.79-2.756-0.839c-0.965-0.624,0.157-1.608,1.238-1.518C344.693,380.422,345.528,381.151,345.912,381.578z"
				/>
			<path d="M340.64,380.62c0.138,0.593-0.216,0.999-0.52,1.278c0.354,1.997-1.485,2.648-3.395,2.517
				c0.337-1.006,1.141-1.548,1.837-2.197c-0.64-0.133-1.198-0.347-1.638-0.68C337.583,380.853,339.534,380.009,340.64,380.62z"/>
			<path d="M341.918,383.735c0.281,0.171,0.607,0.297,0.719,0.639c0.726-0.454,1.999-0.716,3.156-0.479
				c-0.272,0.593-0.704,1.028-1.119,1.479c0.507-0.001,0.968,0.043,1.318,0.199c-0.326,0.811-0.85,1.92-1.837,2.078
				c-0.856,0.135-1.289-0.39-1.798-0.799c-0.233,0.02-0.415-0.012-0.56-0.08c-0.213-0.222-0.098-0.507-0.16-0.759
				c-0.12-0.493-0.592-0.831-0.639-1.358c-0.438,0.175-0.831,0.395-1.358,0.479c0.144-1.057,0.729-2.505,1.438-3.116
				C342.116,381.124,342.467,383.01,341.918,383.735z"/>
			<path d="M320.066,383.815c-0.186,0.573-0.51,1.008-0.839,1.438c0.351-0.044,0.854-0.074,1.198,0
				c-0.043,1.452-1.743,2.945-2.996,1.558c-0.137,0.096-0.376,0.094-0.559,0.04C315.969,384.851,318.199,383.694,320.066,383.815z"
				/>
			<path d="M338.603,394.002c-0.349-1.747,0.134-3.763,0.839-4.834c-0.658,0.434-1.579,0.951-2.757,0.999
				c0.113-0.77,0.512-1.558,1.078-2.356c0.35-0.493,1.323-1.747,2.038-1.479c0.719,0.271,0.47,2.112-0.08,2.477
				c0.566-0.221,1.106,0.503,1.238,1.039C341.425,391.734,339.671,393.357,338.603,394.002z"/>
			<path d="M318.469,388.809c1.84-0.451,2.898,0.835,3.476,2.037c-1.287,0.232-2.604-0.117-3.516-0.52
				c-0.179,0.541-0.384,1.055-0.68,1.479c-0.585-0.778-1.319-2.32-1.198-3.715C316.681,386.608,318.553,387.814,318.469,388.809z"/>
			<path d="M343.316,389.209c2.157-0.198,2.989,1.268,3.555,2.796c-1.666,0.015-2.783-0.519-3.835-1.119
				c-0.287,0.552-0.525,1.151-0.999,1.518c-0.513-0.93-0.944-2.559-0.799-4.034c0.042-0.418,0.204-0.961,0.6-0.999
				C342.684,387.29,343.278,388.381,343.316,389.209z"/>
			<path d="M312.796,391.166c0.149-1.208,0.812-2.763,1.599-3.476c0.763-0.691,1.403,0.081,1.238,1.079
				c1.276,0.447,1.11,2.806,0.319,3.676c0.423,0.361,1.147,0.652,1.078,1.317c-0.058,0.557-0.791,0.783-1.518,0.799
				c-0.681,2.508-4.756,1.2-5.553-0.398c0.963-0.409,2.309-0.647,3.675-0.52c-0.38-0.592-0.982-1.308-1.158-2.237
				c0.751-0.077,1.483,0.188,2.077,0.399c0.074-0.472,0.021-1.07,0.16-1.479C314.165,390.697,313.583,391.034,312.796,391.166z"/>
			<path d="M342.478,397.118c-0.821-0.368-1.912-1.299-1.838-2.517c0.035-0.587,0.734-1.755,1.558-1.479
				C343.176,393.451,342.924,396.349,342.478,397.118z"/>
			<path d="M321.744,399.314c-0.718-0.121-1.194-0.483-1.718-0.799c0.006,0.335,0.26,0.956,0.12,1.438
				c-1.878,0.082-3.465-1.867-2.157-3.396c-0.371-0.728,0.156-1.136,0.879-1.158C320.709,395.341,321.629,397.598,321.744,399.314z"
				/>
			<path d="M315.872,398.076c0.882,1.729-0.604,3.836-1.838,4.515c-0.376-1.293-0.268-3.233,0.16-4.395
				c-0.677-0.136-1.281-0.343-1.798-0.64c0.883-0.829,2.385-1.93,4.034-1.957C318.239,395.57,316.918,398.048,315.872,398.076z"/>
			<path d="M338.762,402.031c-0.075-1.262,0.212-3.554,1.158-3.874c0.51-0.173,0.874,0.886,0.879,1.277
				C340.815,400.776,339.64,401.583,338.762,402.031z"/>
			<path d="M322.224,400.953c-0.2,0.665-0.728,1.003-1.079,1.518c0.493-0.014,0.968-0.008,1.279,0.16
				c-0.166,1.55-2.426,3.028-3.476,1.278c-0.667,0.163-0.917-0.204-0.839-0.959C318.27,401.384,320.408,400.592,322.224,400.953z"/>
			<path d="M316.631,405.826c1.964,1.446,0.009,4.603-1.558,5.232c-0.358-1.117,0.008-2.643,0.279-3.635
				c-0.571,0.215-1.339,0.578-2.236,0.6c0.308-1.198,1.419-3.237,2.517-3.756C316.541,403.841,316.859,404.904,316.631,405.826z"/>
			<path d="M319.786,406.266c2.029-0.222,3.01,1.271,3.556,2.797c-1.685,0.033-2.792-0.511-3.834-1.119
				c-0.213,0.399-0.379,0.848-0.68,1.159c0.661,0.838,0.612,3,0.12,3.994c-0.734-0.381-1.715-1.115-1.838-2.157
				c-0.112-0.951,0.439-1.555,1.159-1.877c-0.419-1.164-0.955-3.299-0.24-4.515C319.117,404.308,319.689,405.253,319.786,406.266z"
				/>
			<path d="M317.829,414.535c0.851-0.146,1.296,0.777,1.599,1.438c0.296,0.646,0.53,1.329,0.479,2.037
				c-0.297,0.017-0.534-0.025-0.76-0.08c-0.062,1.632-0.855,2.87-1.957,3.595c-0.333-1.037-0.478-2.703-0.2-3.994
				c0.064-0.297,0.27-0.583,0.279-0.839c0.013-0.295-0.259-0.767-0.079-1.078c-0.479,0.36-1.022,1.001-1.758,1.238
				c-0.114-1.612,0.228-3.669,0.959-4.635C317.392,410.897,318.574,413.318,317.829,414.535z"/>
			<path d="M318.628,426.839c-0.025,0-0.053,0-0.079,0c-0.145-0.43-0.281-0.953-0.319-1.518c-0.088-1.292,0.045-3.608,0.839-3.756
				c0.704-0.13,1.313,0.869,1.397,1.479c0.251,1.816-0.971,2.911-1.758,3.675C318.698,426.775,318.643,426.786,318.628,426.839z"/>
			<path d="M259.945,227.341c0.026,0,0.054,0,0.08,0c1.246,0.525,2.55,1.205,2.517,2.876c0.379,0.669,0.739,1.927,0.319,2.796
				c0.368-0.112,0.775-0.53,1.318-0.599c0.029,0.668-0.067,1.211-0.199,1.718c0.302-0.217,0.488-0.896,0.919-1.119
				c-1.525-0.373,0.29-2.378,1.438-1.478c0.102-0.177,0.116-0.442,0.199-0.639c0.547,0.358,0.978,0.833,1.278,1.438
				c0.377-0.968,0.662-2.027,1.438-2.597c0.658,1.1,0.771,3.653-0.559,4.075c-0.103,0.498-0.319,0.88-0.56,1.238
				c0.037,0.122,0.222,0.098,0.279,0.2c0.486-1.325,1.344-2.278,2.557-2.876c0.067,0.421,0.055,1.014,0,1.438
				c1.251,0.16,2.469,0.354,3.156,1.078c-0.726,0.651-2.87,1.217-3.636,0.2c-0.362,0.374-0.879,0.793-1.638,0.639
				c0.034,0.192,0.129,0.324,0.199,0.479c1.548-0.331,1.958,1.144,1.679,2.517c-0.232-0.034-0.399-0.133-0.599-0.199
				c0.301,0.776,0.678,1.479,0.998,2.237c0.377-0.018,0.659,0.06,0.918,0.16c0.169-0.205,0.294-0.453,0.44-0.679
				c0.35,0.315,0.592,0.739,0.759,1.238c0.273,0.14,0.515,0.311,0.759,0.479c0.688-0.83,1.308-1.729,2.357-2.197
				c0.377,2.102-0.175,4.222-1.679,4.833c0.056,0.118,0.185,0.162,0.24,0.28c0.799-0.466,1.573-0.957,2.676-1.119
				c-0.088,0.724-0.281,1.343-0.559,1.877c0.318,0.148,0.696,0.235,0.999,0.399c0.802-0.33,1.485-0.777,2.637-0.759
				c-0.162,0.69-0.511,1.194-0.88,1.678c1.124-0.032,2.165,0.019,2.917,0.359c-0.737,0.782-1.645,1.57-2.996,1.438
				c-0.277-0.027-0.499-0.223-0.799-0.28c-0.5-0.096-1.029,0.011-1.479-0.12c-0.038,0.285,0.319,0.14,0.439,0.16
				c1.154,0.194,2.226,0.693,2.956,1.358c-0.349,0.278-0.831,0.42-1.357,0.52c0.223,0.758,0.437,2.298,0.159,3.315
				c-0.706-0.279-1.071-0.898-1.479-1.478c0.147,0.786,0.378,1.487,0.521,2.277c0.407-0.047,0.796-0.453,1.357-0.479
				c0.011,1.023-0.261,1.763-0.6,2.437c1.004-0.257,2.521-0.7,3.915-0.439c-0.763,1.367-1.737,2.523-3.595,2.796
				c-0.01,0.169,0.036,0.283,0.079,0.399c0.665,0.202,1.379,0.352,1.918,0.679c-0.396,0.509-0.971,0.84-1.598,1.119
				c0.155,0.351,0.368,0.644,0.52,0.999c0.995,0.189,1.92,0.45,2.517,1.039c-0.472,0.315-0.973,0.599-1.678,0.679
				c0.054,0.236,0.334,0.325,0.519,0.479c0.531,0.442,1.076,1.029,1.438,1.678c-1.368,0.241-2.783-0.092-3.396-0.918
				c-0.107-0.145-0.129-0.332-0.24-0.479c-0.136-0.183-0.349-0.273-0.519-0.439c-0.531-0.518-0.887-1.138-0.999-1.958
				c-0.298,0.39-0.541,1.019-0.999,1.119c0.154,1.065-0.369,1.783-1.478,1.718c0.25,0.615,0.781,0.949,1.158,1.438
				c0.212-0.428,0.453-0.826,0.959-0.958c-0.479-0.667-0.361-2.49,0.679-1.918c0.756,0.416,1.24,1.681,1.598,2.477
				c0.081,0.065,0.201-0.171,0.359-0.16c0.241,0.637,0.303,1.625,0.2,2.477c0.992-0.579,2.063-1.426,3.556-1.638
				c-0.194,1.324-0.872,2.712-1.798,3.436c-0.422,0.329-0.953,0.546-1.718,0.519c-0.047,0.128,0.207,0.298,0.319,0.399
				c0.826-0.199,1.996-0.345,2.956-0.16c-0.285,0.633-0.717,1.12-1.158,1.598c0.272,0.234,0.558,0.455,0.799,0.719
				c0.883-0.118,2.017-0.13,2.717,0.16c-0.329,0.563-0.853,0.932-1.398,1.278c0.981,0.336,1.914,0.723,2.597,1.358
				c-0.896,0.682-3.309,0.862-3.915-0.2c-0.983-0.335-1.808-0.829-2.197-1.758c-0.021,0.461-0.375,0.88-0.438,1.358
				c-0.044,0.327,0.099,0.628,0.079,0.958c-0.019,0.339-0.202,0.546-0.239,0.879c-0.323-0.091-0.469,0.29-0.839,0.28
				c0.023,0.083,0.083,0.129,0.119,0.2c0.499-0.141,1.16-0.465,1.838-0.56c-0.26-0.277-0.76-1.295-0.279-1.837
				c0.823-0.142,1.577,0.492,2.077,0.959c0.479,0.447,0.908,0.965,1.118,1.478c-0.396,0.123-1.033,0.097-1.438,0
				c-0.083,0.463-0.098,0.994-0.24,1.398c1.068,0.196,2.168,0.362,2.957,0.839c-0.916,1.322-4.631,2.445-5.673,0.399
				c-0.075-0.147,0.01-0.379-0.24-0.439c0.101,0.3,0.43,0.715,0.399,1.278c0.945,0.599,2.105,0.984,2.677,1.958
				c-0.558,0.215-1.128,0.417-1.878,0.439c0.062,0.35,0.166,0.66,0.16,1.079c0.261,0.192,0.581,0.325,0.799,0.559
				c0.838-0.72,1.801-1.315,3.196-1.478c-0.122,0.73-0.424,1.281-0.799,1.758c0.946-0.141,2.186-0.115,2.956,0.16
				c-0.593,1.197-3.115,2.378-4.234,0.919c-0.478,0.093-1.196,0.12-1.718,0.04c0.011,0.202,0.29,0.481,0.399,0.719
				c1.44-0.412,3.007,0.316,3.834,1.039c-0.374,0.25-0.783,0.467-1.317,0.559c0.313,0.89,0.645,2.201,0.359,3.315
				c-1.046-0.543-2.201-1.677-1.718-3.236c-0.173-0.066-0.345-0.134-0.52-0.2c0.011,0.189,0.092,0.308,0.08,0.52
				c-0.281-0.066-0.582-0.111-0.799-0.24c-0.089,0.458-0.315,0.777-0.6,1.039c0.162,0.158,0.412,0.227,0.52,0.439
				c-0.506,0.306-1.058,0.567-1.798,0.639c0.767,0.619,1.493,1.277,1.958,2.197c-1.209,0.216-2.477-0.139-3.116-0.759
				c-0.146-0.142-0.194-0.497-0.479-0.319c0.096,0.503,0.498,1.046,0.479,1.797c-0.387-0.053-0.684-0.194-0.999-0.319
				c0.095,0.499,0.05,1.155-0.159,1.478c0.472-0.141,0.897-0.328,1.478-0.359c-0.141,0.658-0.411,1.186-0.759,1.638
				c0.142,0.137,0.363,0.196,0.479,0.359c0.215-0.158,0.287-0.458,0.719-0.399c-0.285-0.369-0.644-1.177,0.08-1.318
				c1.182-0.23,3.091,0.63,3.516,1.158c-0.509,0.277-1.009,0.562-1.718,0.639c0.592,0.633,1.589,1.207,1.917,2.237
				c-0.758,0.077-1.475-0.014-2.077-0.2c0.148,0.664,0.368,1.256,0.359,2.077c0.216-0.038,0.457-0.05,0.719-0.04
				c-0.21,0.668-0.53,1.227-0.958,1.678c1.146-0.041,2.133,0.078,2.916,0.399c-0.604,1.218-3.743,2.192-4.354,0.32
				c-0.439,0.041-0.663-0.136-0.959-0.24c-0.109,0.183-0.167,0.418-0.279,0.599c-0.621-0.352-1.051-1.238-1.397-1.998
				c-0.117-0.036-0.241,0.264-0.479,0.24c-0.182-0.644-0.127-1.525-0.359-2.117c-0.376,0.358-0.593,1.083-1.119,1.158
				c-0.146,0.733-0.615,1.142-1.118,1.518c-0.262-0.217-0.354-0.604-0.439-0.999c-0.314,0.392-0.517,0.895-0.919,1.199
				c-0.226-0.4-0.357-0.895-0.399-1.479c-0.152-0.071-0.261,0.244-0.479,0.24c-0.145-0.561-0.247-1.259-0.12-1.878
				c-0.826,0.478-1.53,1.08-2.677,1.239c0.28-1.385,0.825-2.646,2.078-2.957c0.118-0.029,0.266,0.007,0.399-0.04
				c0.662-0.233,1.313-0.929,2.276-0.759c0.228-0.549-0.282-0.696-0.359-1.158c0.452,0.013,0.688-0.191,0.959-0.36
				c-0.081-0.211-0.335-0.25-0.439-0.439c-0.1,0.207-0.107,0.505-0.279,0.639c-1.099,0.199-1.781-0.797-1.398-1.837
				c-0.169-0.071-0.44-0.039-0.64-0.08c0.151-0.595,0.73-1.107,1.198-1.518c-1.109-0.142-2.062-0.44-2.796-0.959
				c0.282-0.237,0.607-0.432,0.999-0.559c-0.188-0.733-0.24-1.882,0-2.597c0.598,0.294,0.985,0.799,1.358,1.318
				c0.147-0.479,0.32-1.167,0.599-1.638c-0.759-0.915-1.283-3.467,0.04-4.154c0.113-0.725,0.4-1.278,0.679-1.838
				c-0.406-0.219-0.933-0.319-1.357-0.519c-1.086,0.406-1.332-0.647-2.197-0.719c-0.011,0.118,0.329,0.23,0.439,0.359
				c-0.426,0.387-1.03,0.594-1.718,0.719c0.026,0.174,0.414,0.332,0.559,0.52c0.638-0.185,1.368,0.017,1.719,0.359
				c0.266-0.527,1.187-1.09,1.917-0.639c0.078,1.551-1.142,2.725-2.117,3.396c-0.134-0.386-0.178-0.86-0.16-1.398
				c-1.211,0.078-2.432-0.177-3.195-0.679c-0.187-0.003,0.047-0.091,0.04-0.16c-0.244-0.275-0.479-0.561-0.479-1.079
				c-0.124-0.074-0.26,0.123-0.439,0.12c0.431,0.741,0.897,1.445,0.999,2.517c-0.517-0.096-0.966-0.259-1.358-0.479
				c-0.442,0.89-0.957,1.707-1.638,2.357c0.809,0.216,1.595,0.455,2.077,0.999c-0.522,0.276-1.017,0.582-1.758,0.639
				c0.624,0.614,1.59,1.233,1.957,2.237c-1.97,0.146-3.916-0.465-3.595-2.477c-0.243-0.361-0.711-0.694-0.52-1.358
				c0.224-0.238,0.865-0.242,1.278-0.16c-0.16-1.438,0.07-2.796,1.158-3.116c-0.054-0.226-0.202-0.357-0.239-0.599
				c-0.992-0.17-1.882,0.297-2.757-0.12c-0.163,1.661-0.092,3.556-0.319,5.153c1.016,0.755,1.659,1.883,1.918,3.396
				c-0.531-0.082-0.982-0.243-1.358-0.479c-0.435,0.831-0.865,1.665-1.558,2.237c-0.014,0.094-0.064,0.15-0.041,0.28
				c-0.09-0.26-0.3,0.066-0.438,0.12c-0.388-0.899-0.227-2.5,0.319-3.076c-0.03-0.503-0.055-1.011-0.04-1.558
				c-0.292,0.806-2.085,0.709-2.796,0.12c0.145-0.387,0.515-0.55,0.759-0.839c-0.533-0.04-0.985-0.16-1.398-0.319
				c0.361-0.625,1.226-1.091,2.156-1.279c-0.823-0.83-1.674-4.024,0.36-4.314c0.335-0.789-0.292-1.392-0.479-2.118
				c-0.198,0.124-0.554,0.091-0.719-0.04c-1.419,0.764-2.512-0.473-2.357-2.038c0.42,0.007,0.726,0.126,1.039,0.24
				c-0.041-0.385-0.395-0.804-0.359-1.398c0.521,0.037,0.86,0.258,1.238,0.439c-0.317-1.122-0.894-1.983-1.438-2.876
				c-0.378,0.408-0.706,0.865-1.198,1.159c-0.354-0.757-0.245-2.239,0.16-2.836c-0.281-0.505-0.718-0.854-1.158-1.199
				c-0.688,0.022-1.083-0.249-1.519-0.479c0.045-0.208,0.225-0.282,0.319-0.439c-1.591-0.928-3.954-1.986-6.751-1.758
				c-1.261,0.103-3.972,0.219-4.314,1.159c-0.104,0.284-0.002,0.627-0.04,0.918c-0.107,0.835-1.287,1.829-2.037,1.958
				c-1.618,0.278-2.869-1.474-3.596-2.477c-2.284-3.154-3.832-7.154-4.474-11.825c0-0.413,0-0.826,0-1.238
				c0.083-1.941,1.443-2.604,2.636-3.436c-0.498-0.005-1.062,0.136-1.517,0.04c0.182-0.017,0.438,0.041,0.559-0.04
				c0.326-1.498,0.882-2.767,2.517-2.956c0.29-0.264,1.046-0.656,1.638-0.759c0.251-0.044,0.55,0.017,0.68-0.16
				c0.23-0.315-0.459-0.645-0.399-0.999c0.208-0.111,0.603-0.037,0.839-0.12c0.269-0.342-0.321-0.673-0.399-0.639
				c-0.235,1.546-2.403-0.087-1.599-1.278c-0.242-0.024-0.534,0.002-0.679-0.12c0.141-0.307,0.358-0.655,0.599-0.919
				c0.173-0.188,0.562-0.39,0.52-0.519c-0.992-0.246-2.092-0.384-2.676-1.039c0.933-0.567,2.454-1.245,3.595-0.56
				c0.192,0.116,0.36,0.425,0.56,0.52c0.244,0.116,0.581,0.115,0.839,0.2c0.84,0.275,1.461,0.739,2.037,1.198
				c1.359-0.744,2.842-1.366,4.194-2.117c0.16-0.839,0.519-1.692,0.6-2.477c-0.216,0.104-0.632,0.22-0.919,0.12
				c0.108-0.717,0.38-1.271,0.679-1.797c-0.402-0.09-0.667-0.318-1.038-0.439c-0.743,0.296-1.615,0.674-2.637,0.559
				c0.171-0.457,0.443-0.934,0.719-1.278c0.08-0.1,0.285-0.207,0.2-0.319c-1.05-0.069-2.065-0.172-2.757-0.599
				c0.697-0.682,1.559-1.251,2.677-1.238c0.451,0.005,0.73,0.237,1.158,0.359c0.031,0.009,0.119,0.04,0.12,0.04
				c1.028,0.126,1.943,0.352,2.477,1.039c-0.076-0.42-0.061-1.065,0.04-1.438c0.217-0.016,0.441,0.376,0.64,0.359
				c0.177-0.015,0.44-0.445,0.279-0.679c-0.6,0.717-1.513-0.086-1.318-1.119c0.087-0.459,0.493-0.664,0.719-0.879
				c-0.148-0.151-0.477-0.312-0.439-0.519c0.524-0.195,1.058-0.381,1.798-0.36c-0.509-0.676-1.298-1.417-1.559-2.477
				c1.758,0.134,3.122,0.661,3.316,2.357c0.239,0.203,0.406,0.681,0.679,0.719c0.12-0.182-0.076-0.399-0.159-0.56
				c-0.394-0.758-0.767-1.684-0.64-2.756c0.506,0.147,0.862,0.443,1.279,0.679c0.585-0.958,1.303-1.786,2.396-2.237
				c0.183,1.675-0.368,2.959-1.598,3.355c0.315,0.622,0.183,1.894-0.68,1.837c0.166,0.328,0.4,0.797,0.6,0.959
				c-0.258-0.287-0.086-0.855,0.359-0.799c-0.066-1.716,2.508-1.465,3.036-0.439c-0.248,0.245-0.571,0.415-0.879,0.6
				c0.229,0.143,1.376,0.354,1.358,0.639c-0.006,0.087-0.624,0.425-0.959,0.559c-1.074,0.431-2.539,0.301-2.916-0.439
				c0.62,0.898,1.107,1.928,1.757,2.796c0.774-0.251,1.735-0.316,2.478-0.599c-0.717-0.202-1.379-0.458-1.878-0.879
				c0.803-0.648,2.174-1.294,3.636-1.158c0.701,0.065,1.068,0.432,1.558,0.639c0.104,0.044,0.275,0.144,0.399,0.04
				c-0.02-0.32-0.389-0.458-0.599-0.599c-0.734-0.491-1.45-0.965-1.838-1.758c0.528-0.168,1.28-0.312,1.917-0.24
				c-0.027-0.345-0.056-0.69-0.04-1.079c-0.696-0.608-1.446-1.164-1.838-2.077c0.601-0.185,1.475,0.006,1.918,0.08
				C260.398,229.338,259.983,228.528,259.945,227.341z M263.74,238.007c0.486,0.02,0.694,0.318,0.999,0.52
				c0.042-0.158,0.198-0.202,0.2-0.4c-0.263-0.084-0.354-0.338-0.6-0.439C264.172,237.826,263.888,237.848,263.74,238.007z
				 M258.547,240.284c0.163,0.473,0.341,0.913,0.28,1.478c-0.024,0.219-0.167,0.423-0.2,0.639c-0.105,0.685,0.068,1.388-0.239,1.917
				c0.146-0.041,0.273-0.099,0.399-0.16c-0.201-1.52,0.404-2.887,1.158-3.715c0.252,0.401,0.414,0.891,0.6,1.358
				c0.434-0.216,0.601-0.734,0.959-1.079c0.457-0.44,1.216-0.846,1.997-0.599c0.255-0.131,0.493-0.279,0.599-0.559
				c-0.826,0.234-2.37,0.416-3.195,0.04c0.035-0.1,0.23-0.247,0.159-0.319C260.125,239.518,259.387,239.951,258.547,240.284z
				 M266.937,243.28c0.106-0.159,0.345-0.188,0.439-0.359c-0.058-0.01-0.067-0.066-0.12-0.08
				C267.141,242.953,266.872,243.122,266.937,243.28z M260.465,243.439c0.142-0.058,0.311-0.088,0.399-0.199
				c-0.125-0.021-0.223-0.07-0.319-0.12C260.506,243.214,260.475,243.316,260.465,243.439z M266.217,244.398
				c-0.101,0.139-0.146,0.333-0.279,0.439c0.415,1.213-0.835,1.941-1.158,2.676c0.483,0.146,0.493-0.516,0.839-0.639
				c0.165-0.727,0.527-1.257,0.919-1.757c0.218-0.088,0.351-0.262,0.359-0.56C266.657,244.518,266.452,244.443,266.217,244.398z
				 M255.192,247.714c0.008,0.219-0.161,0.566,0.079,0.6c-0.1-0.526,0.056-1.035,0.2-1.438c-0.062-0.125-0.41-0.175-0.56-0.08
				C255.045,246.994,255.178,247.352,255.192,247.714z M257.269,248.553c0.415,0.954-0.287,1.821-0.998,1.877
				c0,0.133,0.13,0.137,0.12,0.28c0.465-0.335,0.812-0.997,1.398-1.079c0.148,1.04-0.119,1.942-0.521,2.557
				c0.114,0.281,0.325,0.131,0.56,0.04c-0.139-0.863,0.1-1.645,0.6-1.998c-0.697-0.317-0.962-2.013,0-2.237
				c-0.112-0.418,0.016-0.907,0.119-1.238c-0.841,0.144-0.562,1.409-1.518,1.438C257.035,248.355,257.2,248.396,257.269,248.553z
				 M268.295,247.514c0.689,0.145,0.977,0.874,0.879,1.678c0.121-0.067,0.518-0.067,0.639,0c-0.032,0.341-0.354,0.604-0.319,0.878
				c0.365-0.125,0.757,0.068,1.078,0.12c0.32-0.187,0.672-0.341,0.959-0.56c-0.114-0.328,0.014-0.757,0.08-1.039
				c-0.868-0.197-1.469-0.662-1.718-1.478c-0.471,0.319-1.278,0.162-1.678-0.12C268.255,247.154,268.272,247.336,268.295,247.514z
				 M266.497,249.192c0.201,0.211,0.381,0.444,0.599,0.639c0.194-0.112,0.399-0.213,0.64-0.279
				c-0.177-0.608-0.657-0.914-0.959-1.398C266.746,248.562,266.557,248.812,266.497,249.192z M263.062,250.031
				c-0.389-0.047-0.693-0.335-1.119-0.399c-0.34-0.05-0.62,0.034-0.958-0.12c-0.157,0.069-0.299,0.154-0.52,0.16
				c0.039,0.232,0.354,0.521,0.52,0.759c0.146-0.487,1.094-0.84,1.238-0.12c1.184-0.076,1.576,0.92,1.398,1.958
				c0.383-0.482,0.272-1.458,0.438-2.157C263.723,249.954,263.41,250.073,263.062,250.031z M277.922,250.95
				c0.027-0.239,0.104-0.427,0.2-0.599c-0.126-0.021-0.223-0.07-0.32-0.12C277.801,250.512,277.857,250.735,277.922,250.95z
				 M252.595,250.391c0.053,0.361,0.004,0.822,0.08,1.158c0.191-0.341,0.252-0.814,0.36-1.238
				C252.864,250.313,252.741,250.364,252.595,250.391z M258.827,253.546c0.426,0.173,0.738,0.46,1.078,0.719
				c0.201-0.518,0.413-1.025,0.64-1.518c0.339,0.247,0.7,0.685,1.039,0.799c-0.546-0.607-1.008-1.486-0.84-2.677
				c-0.431,0.032-0.734-0.063-1.118-0.08C259.594,251.943,259.24,252.774,258.827,253.546z M254.793,251.109
				c-0.018-0.096,0.072-0.086,0.039-0.2c-0.069,0.003-0.124-0.009-0.16-0.04C254.69,250.972,254.729,251.053,254.793,251.109z
				 M247.802,251.349c0.226,1.478,0.309,3.1,0.599,4.514c0.449-0.216,0.93-0.401,1.438-0.56c-0.699-0.792-1.458-1.524-1.758-2.716
				c0.146,0,0.293,0,0.439,0c0.143-0.353,0.314-0.776,0.56-1.079c0.143-0.176,0.53-0.401,0.479-0.519
				C248.981,251.118,248.379,251.221,247.802,251.349z M261.942,253.906c0.264-0.283,0.513-0.58,0.84-0.799
				c-0.111-0.261-0.316-0.429-0.48-0.639C262.262,253,262.025,253.549,261.942,253.906z M251.356,254.385
				c0.202-0.185,0.525-0.593,0.919-0.719c-0.027-0.268,0.041-0.438,0.04-0.679c-0.088-0.072-0.163-0.156-0.279-0.2
				C252.104,253.59,251.606,254.034,251.356,254.385z M249.839,252.867c0.003,0.106,0.215,0.208,0.279,0.12
				c-0.054-0.026-0.074-0.085-0.079-0.16C249.926,252.794,249.935,252.884,249.839,252.867z M264.819,257.182
				c-0.228,0.159-0.547,0.226-0.879,0.28c-0.048,0.125-0.135,0.211-0.16,0.359c0.419-0.034,0.854-0.052,1.318-0.04
				C265.106,257.629,265.001,257.273,264.819,257.182z M273.208,258.26c0.19,0.102,0.48,0.105,0.599,0.28
				c-0.382,0.51-0.977,0.807-1.558,1.118c0.54,0.126,0.89,0.442,1.358,0.639c0.269-0.763,2.004-1.811,1.198-2.676
				C274.213,257.773,273.39,257.696,273.208,258.26z M269.213,259.418c0.081,0.074-0.104-0.191-0.079-0.319
				c0.266,0.014,0.594-0.035,0.799,0.04c-0.279-0.389-0.03-0.85,0.319-0.959c-0.773-0.105-1.558-0.414-2.277-0.439
				C268.397,258.29,268.787,258.873,269.213,259.418z M265.219,259.458c0.136,0.051,0.15,0.222,0.319,0.24
				c0.046-0.141,0.227-0.146,0.279-0.28c-0.103-0.069-0.048-0.297-0.199-0.319C265.529,259.263,265.342,259.329,265.219,259.458z
				 M258.667,263.933c-0.228-0.58-0.404-1.291-0.399-2.037c0.002-0.184,0.076-0.37,0.04-0.56c-0.095-0.496-0.544-0.887-0.719-1.238
				c-0.051,0.136-0.222,0.151-0.24,0.32c0.254,0.503,0.397,1.292,0.319,1.997c0.673,0.273,0.495,1.396,0.68,2.157
				C258.685,264.59,258.514,264.099,258.667,263.933z M263.261,262.614c0.38-0.059,0.376-0.418,0.68-0.479
				c0.713-0.144,1.343,0.808,1.758,1.118c0.143-0.159,0.102-0.264,0-0.439c-0.646-0.207-1.091-0.614-1.519-1.039
				c-0.227,0.28-0.948,0.063-1.118,0.399c-0.316-0.375-0.648-0.736-0.879-1.198C261.906,262,262.988,262.007,263.261,262.614z
				 M271.49,261.815c0.037,0.216,0.144,0.363,0.279,0.479c0.064-0.099,0.279-0.017,0.36,0c0.118-0.281,0.36-0.438,0.479-0.719
				c-0.114-0.005-0.261,0.021-0.319-0.04C272.261,261.894,271.742,261.789,271.49,261.815z M256.909,262.255
				c-0.267,0.603-1.393,0.789-1.957,0.32c-0.741,0.644-1.48,1.29-2.157,1.997c0.706,0,1.411,0,2.117,0
				c0.37-0.322,0.898-0.654,1.598-0.519c-0.019-0.805,0.363-1.208,0.799-1.558C257.13,262.461,257.071,262.306,256.909,262.255z
				 M267.216,264.612c0.224-0.016,0.362-0.117,0.6-0.12c-0.059-0.275-0.175-0.491-0.279-0.719c-0.226,0.012-0.404-0.022-0.56-0.08
				C267.047,264.008,267.191,264.25,267.216,264.612z M265.817,266.37c-0.013-0.263,0.23-0.735,0-0.839
				C265.875,265.834,265.609,266.174,265.817,266.37z M267.176,268.526c0.189,0.017,0.275-0.071,0.479-0.04
				c0.351-0.662,0.731-1.293,1.678-1.358c-0.045-0.194-0.1-0.38-0.08-0.639c-0.295-0.078-0.726-0.021-0.759-0.36
				c-0.354,0.077-0.809,0.045-1.078-0.08C267.291,266.874,267.734,267.894,267.176,268.526z M278.201,267.688
				c0.07,0.17,0.19,0.29,0.359,0.36c0.275-0.591,0.724-1.008,1.079-1.518c-0.271-0.047-0.426-0.214-0.68-0.28
				C278.809,266.83,278.537,267.291,278.201,267.688z M271.251,268.007c0.217,0.03,0.323-0.049,0.519-0.04
				c-0.106-0.319-0.347-0.505-0.359-0.918c-0.081-0.015-0.262-0.134-0.319-0.04C271.203,267.283,271.246,267.626,271.251,268.007z
				 M264.539,268.846c0.554-0.02,0.998-0.147,1.559-0.16c0.003-0.257-0.254-0.126-0.399-0.16c-0.379-0.088-0.686-0.237-0.919-0.319
				c-0.003-0.024-0.006-0.047-0.04-0.04C264.672,268.392,264.615,268.629,264.539,268.846z M261.264,269.046
				c-0.336-0.197-0.525-0.54-0.799-0.799c-1.183,0.029-2.262,0.162-3.436,0.2c0.693,1.051,1.575,2.32,2.357,3.436
				c0.192,0.276,0.588,1.042,0.839,1.119c0.213,0.065,0.605-0.085,0.918-0.04c0.548,0.079,1.244,0.544,1.119,1.119
				c-0.045,0.204-0.322,0.26-0.399,0.439c0.007,0.299-0.059,0.528-0.16,0.719c0.207,0.232,0.346,0.534,0.56,0.759
				c-0.334-0.648,0.155-1.151,0.199-1.558c0.061-0.557-0.265-1.085-0.279-1.718c-1.814-0.031-3.431-0.66-3.116-2.557
				c-0.283-0.315-0.62-0.579-0.56-1.238C259.172,268.284,260.65,268.903,261.264,269.046z M262.022,271.603
				c-0.111-0.435-0.161-0.931-0.239-1.398c-0.395,0.045-0.628,0.251-1.079,0.24C261.113,270.835,261.653,271.306,262.022,271.603z
				 M267.536,274.239c-0.354,0.26-0.776,0.449-1.319,0.52c-0.031,0.524,0.447,0.538,0.64,0.838c0.303-0.168,0.975-0.165,1.278,0
				c-0.081-0.973,1.729-2.088,1.798-0.559c0.247-0.079,0.151-0.378,0.2-0.559c0.108-0.411,0.343-0.77,0.559-1.039
				c-0.441,0.13-0.895,0.251-1.479,0.239c0.062-0.271,0.191-0.475,0.24-0.759c-0.218-0.009-0.48,0.028-0.64-0.04
				C269.68,273.577,268.471,274.62,267.536,274.239z M275.685,276.196c0.97,0.256,0.585,1.866,1.159,2.517
				c-0.146-0.242,0.044-0.795,0-1.159c-0.062-0.502-0.562-1.01-0.52-1.558c-0.293,0.013-0.561-0.211-0.799-0.12
				C275.602,275.96,275.654,276.068,275.685,276.196z M278.96,278.793c0.073-0.301,0.285-0.461,0.479-0.639
				c-0.298-0.048-0.6-0.093-0.879-0.16C278.677,278.277,278.798,278.557,278.96,278.793z M276.963,278.953
				c0.486,1.072,0.944,2.172,1.479,3.196c0.08-0.368-0.118-0.659,0-0.959c0.093-0.235,0.437-0.279,0.439-0.559
				C278.062,280.25,277.394,279.721,276.963,278.953z M279.32,279.872c-0.016-0.163,0.17-0.123,0.199-0.239
				c-0.141-0.059-0.241-0.158-0.359-0.24C279.2,279.565,279.22,279.759,279.32,279.872z M260.226,286.503
				c0.372-0.074,0.779,0.041,1.078,0.16c-0.125-0.981,0.207-2.418-0.319-2.996C260.942,284.824,260.648,285.729,260.226,286.503z
				 M279.439,284.306c0.011-0.124,0.041-0.226,0.08-0.32C279.328,283.995,279.261,284.235,279.439,284.306z M274.127,287.103
				c0.182-0.228,0.229,0.28,0.359,0.359c0.111-0.594,0.226-1.187,0.52-1.598c0.655,0.652,1.221,1.599,1.158,2.836
				c0.325-0.833,0.735-1.582,1.758-1.718c-0.131-0.415-0.286-0.806-0.479-1.158c-0.344,0.229-0.891,0.131-1.278,0
				c0.001,0.267,0.007,0.54-0.12,0.679c-0.557-0.335-1.026-0.758-1.397-1.278C274.55,285.901,274.26,286.597,274.127,287.103z
				 M279.88,289.02c-0.127,0.007-0.134-0.106-0.28-0.08c0.027,0.201-0.067,0.278-0.04,0.479c0.277,0.076,0.473,0.068,0.759,0
				c0.095-0.465,0.295-0.824,0.479-1.198c-0.541-0.337-0.555-1.202-0.879-1.757C279.801,287.261,280.114,288.233,279.88,289.02z
				 M278.042,288.82c0.212-0.027,0.381-0.098,0.599-0.12c-0.046-0.113-0.055-0.264-0.159-0.32
				C278.364,288.557,278.187,288.671,278.042,288.82z M275.965,289.379c0.014-0.082,0.133-0.262,0.039-0.32
				C276.02,289.198,275.79,289.322,275.965,289.379z M276.523,289.819c0.384,0.309,0.023,0.713,0.12,1.198
				c0.244,0.004,0.205-0.274,0.439-0.279c-0.224-0.38-0.019-1.087-0.04-1.239C276.907,289.643,276.664,289.68,276.523,289.819z
				 M274.806,299.486c0.114,0.192,0.38,0.233,0.56,0.359c-0.058-0.183-0.013-0.466-0.16-0.56
				C275.129,299.41,274.831,299.312,274.806,299.486z M279.76,302.002c0.557-0.309,1.177-0.554,1.797-0.799
				c-0.677-0.282-1.22-0.697-1.718-1.158C279.867,300.74,279.686,301.39,279.76,302.002z"/>
			<path d="M350.667,270.564c-1.063,0.062-1.321-1.58-0.919-2.517c-1.646-0.479-2.184-2.254-2.037-4.394
				c1.437,0.587,2.341,1.706,3.075,2.996c0.529-0.336,0.966-0.766,1.677-0.919c0.049,1.719-0.528,3.142-1.198,4.274
				c0.081,0.04,0.171,0.069,0.2,0.16c0.303-0.283,0.493-0.679,0.799-0.958c0.201-2.277,1.981-2.973,4.235-3.196
				c-0.394,1.404-1.231,2.365-2.078,3.315c1.001-0.028,1.74,0.205,2.396,0.52c0.063,0.231-0.597,0.463-0.599,0.639
				c-0.001,0.099,0.366,0.24,0.56,0.479c0.25,0.312,0.424,0.741,0.359,1.318c-0.104,0.929-0.935,1.742-1.679,0.799
				c0.051,0.176-0.107,0.318-0.079,0.479c0.031,0.176,0.371,0.474,0.439,0.479c0.273,0.021,0.498-0.487,0.799-0.479
				c0.164,0.51,0.136,1.306,0.08,1.917c0.514-0.588,1.236-1.063,2.197-1.278c0.315-0.07,0.681-0.026,1.038-0.12
				c0.373-0.097,0.641-0.421,1.159-0.479c1.006-0.112,1.826,0.217,2.516,0.599c0.486,0.27,1.008,0.605,1.238,1.039
				c-0.937,0.515-2.188,0.714-3.595,0.759c0.404,0.568,1.047,1.243,1.239,2.158c-1.412,0.039-2.404-0.34-3.316-0.799
				c-0.456,0.183-0.8,0.479-1.318,0.6c0.354,0.763,0.74,1.496,0.878,2.477c-0.483,0.005-0.832-0.125-1.238-0.2
				c0.259,1.113,0.552,2.191,0.84,3.276c1.765,0.952,3.572,1.86,5.353,2.796c0.941-0.909,2.085-1.617,3.676-1.877
				c0.914-1.658,4.167-0.928,5.232,0.08c-0.812,0.813-2.162,1.086-3.516,1.358c0.504,0.495,1.241,1.104,1.519,1.958
				c-0.219,0.102-0.582,0.058-0.839,0.12c0.455,1.315-0.218,2.578-1.638,2.517c-0.283-0.17-0.406-0.499-0.44-0.919
				c-0.13,0.083-0.386,0.386-0.599,0.52c0.006,0.181,0.098,0.275,0.12,0.439c0.345,0.054,0.753,0.045,1.078,0.12
				c-0.049,0.647-0.826,0.871-0.519,1.518c1.346-0.014,2.168,0.494,2.955,1.039c2.089,0.309,2.789,2.005,3.196,3.995
				c-0.429,0.002-0.839-0.013-1.198-0.08c0.76,0.693,1.824,1.218,2.517,2.077c0.703,0.874,0.869,2.31,0.799,3.915
				c-0.095,2.158-0.588,4.194-1.159,6.112c-1.054,3.544-2.542,7.053-4.553,9.907c-0.862,1.222-2.4,3.284-4.154,3.236
				c-0.777-0.022-1.418-0.539-1.918-0.959c-0.545-0.457-1.004-0.998-1.078-1.797c-0.047-0.5,0.042-0.873-0.121-1.199
				c-0.317-0.635-1.458-0.889-2.437-1.079c-1.43-0.277-2.725-0.467-4.274-0.399c-3.05,0.134-5.31,1.171-7.23,2.357
				c0.033,0.246,0.263,0.296,0.319,0.52c-0.375,0.381-0.888,0.618-1.478,0.719c-0.148,0.025-0.328-0.017-0.479,0.04
				c-0.55,0.205-1.035,1.08-1.398,1.518c0.508,0.924,0.63,2.641,0.24,3.795c-0.668-0.358-1.11-0.94-1.519-1.558
				c-0.793,1.124-1.425,2.41-1.917,3.835c0.511-0.235,0.976-0.515,1.638-0.599c-0.059,0.754-0.3,1.325-0.56,1.877
				c0.36-0.053,0.828-0.344,1.398-0.319c0.167,1.918-1.164,3.852-2.956,2.677c-0.229,0.169-0.73,0.312-0.959,0.04
				c-0.205,0.975-1.006,1.72-0.639,2.796c2.488,0.445,1.718,4.546,0.438,5.752c1.227,0.266,2.12,0.863,2.836,1.638
				c-0.426,0.346-1.136,0.409-1.797,0.52c0.179,0.328,0.774,0.583,0.919,1.079c-0.724,0.729-3.105,1.108-3.475-0.2
				c0.011,0.75-0.244,1.402-0.081,2.157c0.058,0.262,0.29,0.533,0.399,0.839c0.315,0.876,0.338,2.067,0.04,3.196
				c-0.267-0.027-0.338-0.249-0.56-0.32c0,0.093,0,0.187,0,0.28c-0.062-0.07-0.053-0.213-0.08-0.319
				c-0.759-0.933-1.525-1.855-1.957-3.116c-0.53,0.268-1.061,0.538-1.758,0.639c0.246-1.826,1.122-3.658,2.438-4.434
				c-0.316-2.134-0.254-4.646-0.399-6.951c-1.015,0.625-2.223-0.024-3.476,0.2c-0.198,0.174-0.181,0.565-0.399,0.719
				c1.352,0.502,1.771,2.307,1.479,4.194c0.606-0.074,1.402-0.1,1.677,0.28c0.15,0.797-0.296,1.321-0.719,1.678
				c0.661,2.491-2.074,3.661-4.554,3.355c0.548-1.29,1.568-2.107,2.557-2.956c-0.967-0.086-1.635-0.469-2.277-0.879
				c0.605-0.7,1.621-0.989,2.597-1.318c-0.696-0.834-1.579-1.83-1.957-3.116c-0.476,0.165-1.098,0.526-1.758,0.639
				c-0.006-1.337,0.668-2.341,1.198-3.276c-0.108-0.145-0.327-0.179-0.479-0.28c-0.109,0.583-0.285,1.1-0.639,1.438
				c-0.111,0.116,0.131,0.104,0.079,0.279c-1.093,0.524-2.482,1.113-4.114,0.839c0.017,0.581-0.071,1.354-0.2,1.918
				c-0.973-0.619-2.442-2.234-2.756-3.675c-0.4-1.839,2.241-0.961,2.437,0c0.386-0.225,0.683-0.499,1.238-0.559
				c0.319-0.035,0.664,0.1,0.959,0.04c0.397-0.081,0.546-0.521,0.839-0.639c-0.507-0.028-1.313-0.332-1.798-0.6
				c-0.161-0.089-0.473-0.253-0.479-0.32c-0.023-0.241,0.513-0.271,0.6-0.519c-0.354,0.006-0.529,0.19-0.839,0.24
				c-0.322,0.534-1.061,1.019-1.958,0.719c-0.6,0.211-1.185,0.439-1.797,0.639c0.345,0.76,0.747,1.462,0.879,2.437
				c1.66,0.943,1.071,4.273,0.079,5.513c0.276,0.698,0.588,1.476,0.72,2.197c0.477-0.521,0.967-1.377,1.758-1.718
				c0.314,0.946,0.197,2.369,0.039,3.396c0.382,0.257,0.826,0.453,1.199,0.719c-0.794,0.817-2.146,1.077-3.477,1.358
				c0.479,0.507,1.171,1.147,1.519,1.917c-0.188,0.157-0.588,0.104-0.879,0.16c0.473,1.314-0.22,2.588-1.638,2.516
				c-0.28-0.159-0.372-0.507-0.439-0.879c-0.184,0.03-0.369,0.404-0.639,0.479c0.296,0.303,0.645,0.553,1.237,0.56
				c0.006,0.55-0.684,0.738-0.479,1.518c1.321-0.003,2.146,0.492,2.916,1.038c2.094,0.304,2.799,1.996,3.196,3.995
				c-1.426-0.265-2.384-0.998-3.396-1.678c0.111,0.873,0.02,1.845-0.2,2.517c-0.215-0.104-0.377-0.261-0.559-0.399
				c-0.094,0.745-0.224,1.454-0.52,1.998c-0.517-0.389-0.832-0.979-1.118-1.598c-0.188,0.451-0.293,0.986-0.56,1.358
				c-0.703-0.428-1.234-1.029-1.478-1.917c-0.58-0.295-1.028-1.043-1.398-1.678c-0.348,0.785-0.239,2.024-0.52,2.876
				c-0.26-0.073-0.4-0.265-0.599-0.399c-0.379,1.113-0.94,2.042-1.718,2.756c-0.147-0.265-0.297-0.528-0.36-0.878
				c-0.359,0.172-0.676,0.389-1.237,0.36c-0.711,2.485-4.729,1.181-5.553-0.399c0.937-0.461,2.196-0.6,3.635-0.56
				c-0.349-0.61-0.964-1.3-1.118-2.237c0.315-0.009,0.606,0.006,0.839,0.08c0.094-0.998,0.258-1.925,0.519-2.756
				c-0.628,0.149-1.789,0.429-2.676,0.2c0.531-1.28,1.562-2.06,2.517-2.917c-0.935-0.104-1.61-0.466-2.237-0.879
				c0.744-0.719,2.655-1.726,4.314-1.518c1.002,0.126,0.736,1.146,0.239,1.717c0.453,0.04,0.715,0.271,0.88,0.6
				c0.22-0.152,0.349-0.397,0.679-0.439c-0.433-0.647-0.808-1.35-0.999-2.237c0.726,0.047,1.298,0.246,1.837,0.479
				c-0.108-0.441-0.361-1.262-0.159-1.917c-0.352,0.035-0.782,0.336-1.278,0.359c0.068-0.93,0.359-1.638,0.68-2.317
				c-0.025-0.122-0.216-0.078-0.24-0.2c-0.792,1.18-2.321,1.831-4.354,1.638c0.492-1.306,1.477-2.118,2.438-2.956
				c-0.894-0.159-1.648-0.455-2.277-0.879c0.166-0.246,0.433-0.393,0.68-0.559c-0.338-0.368-0.688-0.725-0.72-1.398
				c-0.294,0.145-0.669,0.21-0.999,0.32c-0.11-0.192,0.01-0.497,0.04-0.68c-0.155-0.008-0.431,0.208-0.679,0.24
				c0.726,1.833-0.878,3.702-2.197,4.314c-0.295-1.514,0.053-3.189,0.479-4.354c-0.596-0.23-1.223-0.429-1.678-0.799
				c0.826-0.834,3.333-2.012,4.833-1.358c0.267-0.267,0.386-0.68,0.64-0.959c-0.596,0.081-1.606,0.122-2.237-0.08
				c-1.331,1.998-4.582,0.34-5.433-1.119c0.831-0.507,2.594-0.468,3.756-0.28c-0.43-0.689-0.86-1.378-0.999-2.357
				c1.735,0.249,3.01,0.958,3.995,1.958c0.378-0.207,0.666-0.505,1.078-0.679c0-0.546,0.133-0.958,0.199-1.438
				c-0.881-0.131-1.698-0.325-2.396-0.639c0.784-1.174,2.063-1.852,3.396-2.477c0.037-0.774,0.292-1.333,0.599-1.838
				c-0.374-0.007-0.25,0.313-0.319,0.479c-1.163,2.814-6.008,1.462-7.271-0.399c1.017-0.595,2.34-0.883,3.756-1.078
				c-0.104-0.602-0.25-1.162-0.24-1.878c-0.547,0.091-1.341,0.134-1.877,0c0.268-0.759,0.864-1.406,1.558-2.037
				c0.562-0.512,1.565-1.518,2.517-1.198c0.529,0.717,0.084,1.959-0.399,2.396c0.828,0.21,1.611,0.467,2.317,0.799
				c0.106-0.04,0.131-0.161,0.2-0.239c-0.394-0.102-0.662-0.49-1.079-0.44c0.008-0.406-0.234-0.634-0.279-0.999
				c-0.061-0.487,0.179-0.95,0.079-1.478c-0.11-0.587-0.533-1.102-0.479-1.758c-0.576,1.129-1.515,1.895-2.797,2.317
				c-0.795,1.4-3.758,1.189-5.034,0.359c0.814-0.917,2.013-1.45,3.356-1.837c-0.721-0.465-1.414-0.956-1.838-1.718
				c0.814-0.383,2.356-0.404,3.396-0.2c0.379-0.313,0.664-0.72,1.118-0.958c-0.593-0.605-1.106-1.29-1.518-2.077
				c1.077-0.384,2.698-0.116,3.715,0.16c0.252-0.095,0.343-0.35,0.52-0.519c-2.954-0.094-4.035-2.758-4.555-5.273
				c1.932,0.332,3.217,1.311,4.555,2.237c-0.182-1.114-0.066-2.479,0.239-3.355c0.205,0.021,0.257,0.197,0.44,0.239
				c0.238-0.613,0.508-1.331,0.918-1.998c0.354-0.572,0.905-1.456,1.798-1.438c0.698,0.42,0.699,2,0.16,2.597
				c0.585,0.281,1.002,0.729,1.237,1.358c0.492-0.627,1.134-1.104,1.479-1.877c-1.359-0.016-2.083-0.869-1.878-2.317
				c-0.52-0.112-0.919-0.949-1.238-1.518c-0.229,1.476-0.991,2.418-1.958,3.156c-0.538,1.603-2.44,2.231-4.594,1.958
				c0.535-1.276,1.576-2.046,2.557-2.876c-0.917-0.135-1.595-0.509-2.237-0.918c0.729-0.789,1.924-1.113,3.156-1.398
				c0.295-0.384,0.437-0.922,0.76-1.278c-0.778-0.421-1.562-0.836-2.078-1.518c0.68-0.399,1.465-0.692,2.396-0.839
				c0.087-0.153,0.124-0.355,0.16-0.559c-2.343-0.427-3.597-1.943-4.594-3.715c1.682-0.414,3.587,0.145,4.953,0.559
				c-0.332-0.853-0.766-1.951-0.759-3.276c0.666,0.133,1.192,0.406,1.678,0.719c0.337-1.008,0.503-2.186,0.799-3.235
				c-0.473,0.873-1.068,1.621-1.877,2.157c-0.45-1.242-0.239-3.312,0.199-4.394c-0.624-0.188-1.265-0.36-1.758-0.679
				c0.817-0.92,2.17-1.624,3.755-1.837c0.157-0.021,0.528,0.045,0.56-0.24c-0.321-0.064-0.71,0.127-1.158,0.16
				c-0.231,0.017-0.502-0.04-0.72,0c-0.371,0.069-0.633,0.32-0.958,0.36c-1.808,0.223-2.949-0.877-3.875-1.877
				c0.901-0.459,2.329-0.597,3.675-0.479c-0.366-0.606-0.938-1.351-1.118-2.277c1.407,0.057,2.394,0.536,3.315,1.079
				c0.409-0.204,0.812-0.413,1.318-0.52c-0.292-0.773-0.643-1.488-0.679-2.517c1.398,0.185,2.335,0.833,3.315,1.438
				c0.188-0.064,0.277-0.229,0.398-0.36c-2.025-0.818-2.603-3.681-2.196-6.431c1.323,0.66,2.167,1.801,2.996,2.956
				c0.312-0.221,0.626-0.44,0.958-0.639c0.277-0.602,0.518-1.242,0.999-1.638c0.156,0.297,0.379,0.526,0.479,0.878
				c0.393-0.073,0.697-0.234,1.199-0.2c0.514-0.937,0.892-2.01,1.357-2.996c-0.271,0.074-0.433,0.26-0.799,0.24
				c-0.346-1.729,0.109-3.693,2.117-3.315c0.13-0.163,0.195-0.39,0.279-0.599c-1.066,0.095-1.644-0.3-2.037-0.879
				c-1.01,1.351-3.772,0.62-4.713-0.28c0.953-0.843,2.331-1.264,4.034-1.358c-0.029-0.472-0.08-1.364,0-1.958
				c1.507,0.824,2.676,1.985,3.195,3.795c0.191-0.009,0.288-0.111,0.399-0.2c-0.265-0.534-0.541-1.056-0.719-1.678
				c-1.655-0.688-1.532-3.892-0.679-5.393c0.911,0.654,1.399,2.134,1.797,3.436c0.431-0.729,0.962-1.567,1.679-1.877
				c0.065,0.266,0.135,0.53,0.199,0.799c1.009-0.699,2.679,0.156,2.637,1.278c-0.015,0.384-0.416,0.567-0.839,0.679
				c0.62,0.312,0.801,1.063,1.238,1.558c-0.134-0.706-0.361-1.528-0.239-2.357c0.651,0.188,1.162,0.516,1.638,0.879
				c-0.344-0.766-0.199-2.02,0.04-2.796c0.098-0.321,0.304-0.629,0.359-0.919c0.04-0.208-0.021-0.442,0-0.639
				c0.178-1.741,1.882-2.709,3.315-3.236c-0.009,1.589-0.604,2.591-1.079,3.715c0.646-0.176,1.648-0.3,2.397-0.12
				c-0.48,1.198-1.401,1.954-2.317,2.716c0.004,0.497,0.013,0.998-0.08,1.398c0.888,0.071,1.783,0.135,2.478,0.399
				c-0.702,1.295-1.936,2.06-3.116,2.876c0,0.107,0,0.213,0,0.32c0.987-0.256,1.521-0.997,2.956-0.999
				c1.617-0.002,3.188,0.704,4.155,1.598c-0.669,0.517-1.514,0.858-2.397,1.159c1.004,0.315,2.162,0.474,3.196,0.759
				C348.723,274.026,349.653,272.254,350.667,270.564z M335.127,276.236c0.105,0.161,0.173,0.36,0.319,0.479
				c0.274-0.378,0.697-0.607,1.198-0.759c-0.268-0.145-0.559-0.267-0.839-0.399C335.679,275.883,335.321,275.979,335.127,276.236z
				 M340.279,278.194c-1.167,0.399-3.063,0.144-4.074-0.08c0.202,0.294,0.421,0.635,0.799,0.679c0.178,0.021,0.319-0.073,0.48-0.08
				c0.943-0.042,1.685,0.536,2.116,0.999c0.384,0.41,0.554,1.089,1.198,1.318c0.148-0.69,0.362-1.316,0.76-1.758
				c0.877,1.174,1.695,2.955,1.398,4.914c0.196,0.043,0.307,0.172,0.519,0.2c-0.236-0.692-0.4-1.634-0.279-2.557
				c-0.487-0.712-0.254-2.102,0.079-2.796c-1.076-0.415-2.056-1.139-3.275-1.278C340.121,277.874,340.226,278.008,340.279,278.194z
				 M332.689,282.988c-0.147-0.225-0.283-0.462-0.56-0.559c-0.011,0.081-0.106,0.078-0.119,0.16
				C332.259,282.673,332.492,282.985,332.689,282.988z M340.279,282.988c0.204,0.037,0.423,0.269,0.6,0.2
				c-0.066-0.093-0.104-0.215-0.119-0.359C340.565,282.848,340.434,282.928,340.279,282.988z M333.449,284.466
				c-0.216,0.131-0.535,0.158-0.799,0.24c0.041,0.105,0.047,0.245,0.039,0.399c0.774,0.65,1.307,1.543,1.598,2.677
				c0.29,0.203,0.453,0.532,0.64,0.838c0.122-0.005,0.347,0.146,0.44-0.04c0.044-0.091-0.278-0.4-0.44-0.6
				c-0.594-0.733-1.523-1.879-1.038-2.876C333.691,284.942,333.673,284.601,333.449,284.466z M343.436,289.219
				c0.881,0.306,0.988,1.652,0.52,2.437c-0.12,0.201-0.521,0.524-0.52,0.599c0.001,0.031,0.482,0.549,0.56,0.719
				c0.236,0.518,0.278,1.269,0.2,1.917c0.189,0.049,0.323,0.156,0.52,0.2c0.043-0.116,0.127-0.192,0.199-0.28
				c-0.537-0.751-0.945-2.191-0.6-3.435c0.696,0.369,1.143,0.987,1.678,1.518c0.024-0.175,0.145-0.255,0.2-0.399
				c-1.317-0.026-1.902-2.039-0.959-2.916c-0.139-0.184-0.354-0.077-0.52-0.16c-0.329-0.164-0.43-0.55-0.519-0.958
				c-0.382-0.204-0.359-0.813-0.92-0.839C343.402,288.072,343.548,288.656,343.436,289.219z M347.431,289.699
				c0.302-0.016,0.126-0.291,0.12-0.479c-0.018-0.55,0.125-1.219,0.319-1.598C346.452,287.407,347.873,288.862,347.431,289.699z
				 M328.775,288.141c-0.236,1.109-1.066,1.624-2.117,1.918c0.125,0.428,0.18,0.928,0.119,1.438
				c0.448,0.218,0.826,0.506,1.278,0.719c0.3-0.232,0.986-0.248,1.398-0.239c-0.21-0.35-0.413-0.705-0.52-1.159
				c0.296-0.085,0.551,0.01,0.88,0c-0.268-1.08,0.225-1.983,1.078-2.197c-0.065-0.249,0.163-0.593,0-0.679
				C330.462,288.4,329.418,288.42,328.775,288.141z M331.611,291.337c0.3,0.087,0.537,0.235,0.799,0.359
				c0.247-0.312,0.58-0.539,0.799-0.879c-0.244-0.368-0.254-0.971-0.479-1.358C332.477,290.204,331.75,290.477,331.611,291.337z
				 M338.482,291.537c-0.445,0.562-1.557,0.299-2.237,0.559c0.085,0.437,0.132,1.004,0.2,1.518c0.066,0.508,0.016,1.128,0.439,1.318
				c-0.385-1.416,0.247-2.659,1.718-2.597c0.212-0.994,1.381-0.374,1.638,0.16c0.116-0.393,0.555-0.666,0.599-0.999
				C340.179,291.194,339.273,291.423,338.482,291.537z M318.389,292.375c0.121,0.238,0.171,0.548,0.28,0.799
				c0.033-0.326,0.092-0.626,0.159-0.919C318.64,292.253,318.584,292.384,318.389,292.375z M350.786,294.013
				c-0.027-0.573,0.039-1.053,0.04-1.598c-0.216,0.003-0.332-0.094-0.559-0.08C350.444,292.89,350.478,293.589,350.786,294.013z
				 M339.401,296.77c0.412-0.4,0.94-0.896,1.358-1.158c0.247,0.658,0.54,1.271,0.759,1.957c0.448-0.336,0.93-0.642,1.358-0.999
				c-0.543-1.015-0.889-2.228-1.039-3.635c-0.35,0.143-0.864,0.121-1.358,0.12C340.748,294.593,339.955,295.925,339.401,296.77z
				 M347.99,293.134c0.016,0.104,0.021,0.219,0.079,0.28c0.053-0.107,0.107-0.212,0.16-0.32
				C348.107,293.065,348.112,293.164,347.99,293.134z M356.02,295.372c0.174,0.026,0.451-0.052,0.559,0.04
				c-0.167,0.762-0.571,1.382-0.959,1.957c-0.397,0.591-0.87,1.086-1.238,1.598c0.652,0.213,1.211,0.521,1.877,0.719
				c0.165-2.02,0.501-4.08,0.641-5.992c-0.771-0.148-1.537-0.3-2.277-0.479C355.204,293.816,355.743,294.462,356.02,295.372z
				 M346.472,293.614c-0.029-0.122,0.069-0.118,0.04-0.24c-0.066,0-0.133,0-0.199,0
				C346.337,293.482,346.391,293.561,346.472,293.614z M337.843,296.011c0.013,0.11,0.483,0.403,0.6,0.519
				c0.222,0.222,0.366,0.424,0.56,0.56c-0.299-0.527-0.357-1.294-0.56-1.917C338.471,295.461,337.818,295.79,337.843,296.011z
				 M351.186,295.931c0.047,0.273,0.039,0.6,0.079,0.879c0.334,0.154,0.661,0.391,0.88,0.639c0.103,0.117,0.16,0.353,0.279,0.279
				c-0.038-0.201-0.267-0.303-0.399-0.479c-0.307-0.405-0.478-0.94-0.479-1.638c0.022,0,0.045-0.032,0-0.04
				C351.463,295.728,351.248,295.753,351.186,295.931z M353.981,295.971c0.143-0.058,0.312-0.088,0.399-0.2
				c-0.143,0.01-0.146-0.12-0.279-0.12C354.049,295.744,354.035,295.878,353.981,295.971z M342.037,298.687
				c0.021-0.059,0.06-0.101,0.08-0.16c-0.058,0.021-0.206-0.047-0.2,0.04C341.993,298.572,341.945,298.699,342.037,298.687z
				 M334.887,302.242c0.629-0.017,1.209,0.016,1.758,0.08c-0.053-0.2-0.165-0.341-0.239-0.519c-0.534,0.002-0.831-0.234-1.238-0.36
				C335.107,301.744,334.969,301.964,334.887,302.242z M322.224,302.762c0.51,1.074,1.287,1.882,1.917,2.836
				c0.537-0.33,1.126-0.606,1.679-0.919c-0.798-0.348-1.521-0.77-1.958-1.478c0.255-0.118,0.523-0.223,0.799-0.32
				c-0.107-0.119-0.191-0.261-0.239-0.439c-0.606-0.152-1.216-0.302-1.837-0.439C322.532,302.325,322.329,302.495,322.224,302.762z
				 M329.693,304.479c0.539-0.793,1.092-1.572,1.638-2.357c-0.997,0.241-2.048,0.428-2.996,0.719
				c0.549,0.023,0.781,0.756,0.44,1.198c0.307-0.014,0.749-0.102,1.039,0C329.812,304.199,329.63,304.387,329.693,304.479z
				 M334.048,304.479c0.137,0.103,0.222,0.258,0.399,0.32c0.064-0.163,0.282-0.17,0.32-0.36c-0.214-0.12-0.353-0.314-0.56-0.439
				C334.158,304.164,334.061,304.279,334.048,304.479z M343.556,307.036c-0.056,0.41,0.068,0.856,0.04,1.278
				c-0.055,0.8-0.272,1.496-0.479,2.157c0.17,0.189,0.049,0.67,0.279,0.799c0.054,0,0.107,0,0.16,0
				c0.165-1.06,0.011-2.439,0.799-2.876c-0.058-1.108,0.135-1.867,0.439-2.677c-0.083-0.183-0.217-0.315-0.399-0.399
				C344.324,305.891,343.646,306.372,343.556,307.036z M337.483,308.115c-0.051-0.123-0.136-0.21-0.2-0.32
				c-0.428,0.099-0.86-0.08-1.198-0.2c-0.22,0.214-0.489,0.472-0.878,0.759c-0.351,0.258-0.835,0.42-1.039,0.599
				c-0.244,0.214-0.139,0.447,0.04,0.559c0.491-0.433,1.264-1.599,2.157-1.478c0.399,0.054,0.444,0.502,0.839,0.639
				c0.322-0.031,0.268-0.423,0.56-0.639c0.102-0.075,0.212-0.031,0.318-0.08c0.527-0.238,0.732-0.919,0.521-1.479
				C338.381,307.175,337.891,307.604,337.483,308.115z M325.38,307.355c0.223,0.283,0.421,0.591,0.64,0.879
				c0.146-0.071,0.362-0.035,0.519,0c0.071-0.222,0.241-0.345,0.28-0.6c-0.311-0.072-0.968,0.099-1.039-0.399
				C325.691,307.322,325.451,307.254,325.38,307.355z M345.273,308.195c-0.098,0.182-0.354,0.205-0.439,0.399
				c0.638,0.347,1.027,0.943,0.998,1.957c0.645-0.032,1.051,0.038,1.479,0.28c0.25,0.141,0.431,0.387,0.64,0.439
				c0.827,0.206,1.655-0.15,2.636,0c-0.798-0.867-1.817-1.857-2.796-2.676C346.924,309.433,345.697,308.773,345.273,308.195z
				 M331.812,310.232c-0.104,0.309-0.268,0.559-0.32,0.918c0.271,0.023,0.444,0.143,0.72,0.16c0.056-0.387,0.354-0.947,0.279-1.198
				C332.31,310.197,332.05,310.205,331.812,310.232z M334.048,313.708c0.213-0.274-0.039-0.812-0.08-1.199
				C333.808,312.806,334.008,313.354,334.048,313.708z M331.931,313.228c-0.287,0.188-0.945,0.214-1.317,0.08
				c-0.022,0.471-0.593,0.393-0.959,0.519c0.031,0.338-0.074,0.54-0.08,0.839c1.17,0.122,1.682,0.901,2.077,1.798
				c0.251,0.002,0.468,0.038,0.679,0.08C331.525,315.747,332.241,314.23,331.931,313.228z M316.432,313.867
				c0.479,0.666,1.026,1.263,1.397,2.037c0.216-0.09,0.322-0.291,0.44-0.479c-0.396-0.562-0.761-1.157-0.959-1.917
				C316.983,313.593,316.78,313.803,316.432,313.867z M326.938,314.506c-0.056,0.544-0.317,0.881-0.52,1.279
				c0.247-0.023,0.528,0.096,0.68,0.04c-0.011-0.503,0.189-1.009,0.159-1.398C327.184,314.486,327.067,314.503,326.938,314.506z
				 M335.207,316.224c-0.021-0.047-0.043-0.09-0.08-0.12c-0.32,0.278-0.758,0.44-1.397,0.399c0.005,0.099-0.063,0.124-0.081,0.2
				c0.672,0.075,1.293,0.198,1.998,0.24c-0.103-0.297-0.145-0.654-0.279-0.919C335.307,316.084,335.295,316.192,335.207,316.224z
				 M338.282,324.413c0.041,0.302,0.308,0.561,0.359,0.879c0.065,0.395,0.011,0.869-0.119,1.119
				c0.071,0.037,0.248-0.233,0.359-0.399c0.127-0.189,0.225-0.439,0.359-0.559c-0.097-0.33-0.218-0.635-0.2-1.079
				c-1.505-0.852,0.792-2.526,2.158-1.878c1.308-2.048,2.713-3.997,3.994-6.072c-1.477-0.108-2.989-0.181-4.435-0.319
				c-0.046,0.242-0.285,0.433-0.479,0.639c-0.13,0.138-0.5,0.5-0.398,0.479c0.761-0.192,2.411-0.958,3.235-0.399
				c0.688,0.467-0.204,1.568-0.52,1.917c0.389,2.508-1.651,3.273-3.955,3.356C338.661,322.842,338.187,323.69,338.282,324.413z
				 M338.882,320.698c0.475-0.617,1.084-1.1,1.678-1.598c-0.525-0.073-0.968-0.23-1.397-0.399
				C339.09,319.361,338.907,320.124,338.882,320.698z M329.374,322.376c0.085,0.302,0.304,0.682,0.28,0.958
				c-0.726,0.073-1.322-0.196-1.798-0.239c0.205,0.268,0.418,0.568,0.559,0.958c0.138,0.382,0.062,0.917,0.399,1.159
				c-0.038-2.2,2.37-0.475,2.277,0.679c0.399-0.193,1.168-0.228,1.559,0c0.319-0.32,0.856-0.422,0.878-1.039
				c-0.277-0.085-0.533-0.177-0.878-0.319c-0.243-0.1-0.565-0.36-0.84-0.399c-0.158-0.023-0.351,0.082-0.519,0.08
				c-0.75-0.009-1.546-0.604-1.519-1.198c0.015-0.329,0.396-0.507,0.359-0.679C329.836,322.305,329.657,322.392,329.374,322.376z
				 M319.986,328.568c-0.028,0.357,0.122,0.752,0.08,1.078c-0.194,1.536-1.552,2.277-2.637,2.917
				c-0.021,0.395,0.479,0.51,0.56,0.879c0.094,0.429-0.183,0.802,0.039,1.159c0.54-1.245,1.223-2.883,1.798-4.195
				c0.211-0.48,0.539-0.965,0.64-1.398c0.183-0.788,0.104-1.753,0.64-2.197c0.108-0.089,0.311-0.071,0.399-0.16
				c0.135-0.135,0.043-0.3,0.159-0.439c-0.366,0.073-0.71,0.168-1.039,0.28C320.689,327.24,320.03,328.027,319.986,328.568z
				 M316.671,329.327c0.332,0.174,0.521,0.492,0.679,0.839c0.103-0.367,0.488-0.867,0.439-1.119
				C317.498,329.222,317.011,329.201,316.671,329.327z M316.592,331.284c0.13,0.069,0.188,0.211,0.319,0.28
				c0.013-0.214,0.192-0.472,0.12-0.639C316.939,331.1,316.737,331.164,316.592,331.284z M339.841,337.796
				c-0.042,0.912-0.116,2.047-0.04,2.836c0.303-0.229,0.763-0.302,1.318-0.28c-0.567-1.003-0.836-2.307-0.999-3.715
				C339.771,336.843,339.864,337.273,339.841,337.796z M316.751,337.556c-0.016-0.175,0.114-0.206,0.12-0.36
				c-0.1-0.022-0.226-0.224-0.28-0.16C316.695,337.159,316.646,337.434,316.751,337.556z M323.502,341.151
				c-0.304-0.748-0.567-1.536-0.679-2.477c-0.55,0.636-1.03,1.34-1.878,1.677c-0.059-0.273-0.068-0.597-0.12-0.879
				c-0.433,0.225-1.175,0.265-1.638,0.041c-0.184,0.496-0.4,0.957-0.56,1.478c1.315,0.23,1.828,1.263,2.277,2.357
				c-0.153-1.756,0.59-2.949,1.479-3.795c0.327,0.592,0.464,1.373,0.64,2.118c0.12-0.199,0.164-0.474,0.358-0.6
				C323.464,341.037,323.462,341.274,323.502,341.151z M315.832,341.031c-0.084,0.757-0.531,1.193-0.879,1.718
				c0.341,0.378,0.47,0.968,0.64,1.518c0.354,0.08,0.607,0.072,0.958,0c-0.002-0.251-0.037-0.468-0.079-0.679
				c-0.124-0.002-0.248,0.202-0.32,0.12c-0.376-1.026,0.188-2.44-0.119-3.396C315.87,340.526,315.866,340.723,315.832,341.031z
				 M317.71,343.309c0.288-0.008,0.591,0.18,0.799,0.12c-0.276-0.124-0.396-0.403-0.639-0.56
				C317.818,343.018,317.741,343.141,317.71,343.309z M321.145,344.188c0.157-0.101-0.121-0.358-0.159-0.52
				C321.048,343.832,320.993,344.113,321.145,344.188z M319.707,345.985c0.25,0.056,0.247,0.365,0.52,0.4
				c0.192-0.623-0.325-1.218,0.199-1.638c-0.278-0.095-0.586-0.373-0.799-0.399C319.922,344.689,319.851,345.53,319.707,345.985z
				 M321.904,358.129c0.161-0.225,0.523-0.249,0.679-0.479c0-0.04,0-0.079,0-0.12c-0.193-0.06-0.387-0.12-0.6-0.16
				C321.988,357.628,321.865,357.97,321.904,358.129z M313.994,359.967c0.909,0.197,1.578,0.632,2.317,0.999
				c0.061-0.801-0.169-1.769-0.079-2.597c-0.01-0.031-0.034-0.046-0.081-0.04C315.614,359.056,314.749,359.457,313.994,359.967z"/>
		</g>
	</g>
</g>
</svg>
