<?xml version="1.0" encoding="utf-8"?>
<!-- Generator: Adobe Illustrator 14.0.0, SVG Export Plug-In . SVG Version: 6.00 Build 43363)  -->
<!DOCTYPE svg PUBLIC "-//W3C//DTD SVG 1.1//EN" "http://www.w3.org/Graphics/SVG/1.1/DTD/svg11.dtd">
<svg version="1.1" id="Layer_1" xmlns="http://www.w3.org/2000/svg" xmlns:xlink="http://www.w3.org/1999/xlink" x="0px" y="0px"
	 width="100px" height="171.333px" viewBox="0 0 100 171.333" enable-background="new 0 0 100 171.333" xml:space="preserve">
<g>
	<defs>
		<rect id="SVGID_1_" x="-0.458" width="100.271" height="171.333"/>
	</defs>
	<clipPath id="SVGID_2_">
		<use xlink:href="#SVGID_1_"  overflow="visible"/>
	</clipPath>
	<g clip-path="url(#SVGID_2_)">
		<g>
			<g>
				<path d="M17.353,4.524c0.04,0.692-0.48,1.643-1.117,1.872c-0.16,0.057-0.345,0.057-0.531,0.056
					c0.06,0.621-0.233,1.249-0.698,1.201c-0.647-0.068-0.651-2.103-0.419-2.764c0.322,0.152,0.541,0.408,0.725,0.698
					C15.906,5.145,16.488,4.692,17.353,4.524z"/>
				<path d="M2.081,7.178C2.708,7.591,3.462,8.639,2.946,9.58c0.456,0.05,1.352,1.443,0.168,1.34
					c-0.818-0.072-1.646-0.688-2.094-1.117C1.285,9.64,1.612,9.539,2.024,9.523C1.836,8.867,1.812,7.763,2.081,7.178z"/>
				<path d="M-1.633,12.483c0.59,0.401,1.171,1.683,0.586,2.484c0.322,0.266,0.747,0.691,0.53,1.312
					c-0.566,0.222-1.074-0.151-1.451-0.391c-0.41-0.261-0.828-0.579-1.034-0.978c0.303-0.079,0.62-0.145,1.005-0.139
					C-2.034,13.959-1.942,13.042-1.633,12.483z"/>
				<path d="M1.41,14.465c0.021,0.327-0.123,0.491-0.195,0.726c0.326-0.083,0.577-0.243,1.005-0.224
					c-0.179,0.684-0.742,1.764-1.703,1.759c-0.4-0.002-0.984-0.31-0.587-0.726C-0.614,15.033,0.364,14.277,1.41,14.465z"/>
				<path d="M-5.989,18.095c1.07,0.102,1.977,0.368,2.122,1.396c0.54-0.112,1.36,0.084,1.285,0.614
					c-0.074,0.519-1.544,0.783-2.178,0.781c-0.16,0-0.368-0.049-0.503-0.056c0.151-0.333,0.365-0.602,0.615-0.836
					C-5.225,19.49-5.78,18.966-5.989,18.095z"/>
				<path d="M82.382,28.913c0.704,0.084,1.532,0.529,2.095,0.949c0.122,0.091,0.482,0.474,0.503,0.474
					c0.065,0,0.379-0.461,0.446-0.53c0.188-0.196,0.313-0.322,0.531-0.419c0.167,0.568,0.23,1.238,0.167,2.038
					c-0.044,0.556-0.203,1.54-0.643,1.619c-0.565,0.104-1.094-0.854-0.921-1.563C83.076,31.383,82.641,30.236,82.382,28.913z"/>
				<path d="M101.955,35.502c0.455,0.084,0.883,0.196,1.256,0.364c-0.496,0.616-1.661,1.458-2.708,1.536
					c-1.331,0.097-0.448-1.667,0.251-1.732c-0.615-1.311,0.299-2.632,1.089-3.238C102.238,33.156,102.172,34.632,101.955,35.502z"/>
				<path d="M91.122,35.698c0.359-0.209,0.729-0.406,1.2-0.502c-0.244-0.222-0.591-0.34-0.782-0.614
					c0.581-0.901,2.673-1.147,2.708,0.391c0.706,0.112,0.33,0.948,0,1.228C93.427,36.901,91.538,36.327,91.122,35.698z"/>
				<path d="M107.036,42.482c0.439,0.063,0.937,0.069,1.283,0.224c-0.199,0.45-0.641,0.811-1.088,1.145
					c-0.505,0.376-1.108,0.818-1.954,0.726c-0.473-0.617,0.104-1.563,0.614-1.758c-0.814-1.029-0.057-2.755,0.67-3.351
					C106.981,40.195,107.134,41.328,107.036,42.482z"/>
				<path d="M12.215,41.659c0.334,0.502-0.05,1.089-0.279,1.48c-0.25,0.426-0.521,0.896-0.921,1.089
					c-0.073-0.317-0.196-0.586-0.168-1.005C10.048,43.356,9.084,43.262,8.503,43c0.403-0.605,1.612-1.269,2.485-0.699
					C11.203,41.909,11.585,41.546,12.215,41.659z"/>
				<path d="M102.708,42.091c1.427-0.165,2.587,0.731,1.899,2.04c0.402,0.434-0.008,0.876-0.531,0.949
					c-1.396,0.192-2.088-1.365-2.401-2.29c0.496-0.067,0.937,0.161,1.312,0.307C102.881,42.776,102.716,42.513,102.708,42.091z"/>
				<path d="M112.146,46.949c-0.31,1.078-0.941,1.833-1.704,2.457c0.256,0.377,0.603,0.664,0.754,1.146
					c-0.761,0.114-1.631,0.029-2.373-0.224c-0.442-0.15-0.991-0.417-1.033-0.753c-0.077-0.618,0.863-0.981,1.591-0.782
					C109.655,47.531,110.653,46.993,112.146,46.949z"/>
				<path d="M10.54,49.199c1.01-0.044,2.227,0.508,1.759,1.591c-0.102,0.02-0.213,0.048-0.307,0c-0.678,0.65-1.622-0.005-1.675-0.81
					c0.131-0.087,0.444-0.062,0.615-0.027C10.88,49.732,10.587,49.514,10.54,49.199z"/>
				<path d="M18.553,50.985c1.122,0.06,1.993,0.372,2.15,1.396c0.576-0.155,1.309,0.094,1.284,0.558
					c-0.028,0.528-1.347,0.771-1.926,0.811c-0.235,0.016-0.516-0.01-0.727-0.028c0.045-0.318,0.344-0.623,0.586-0.837
					C19.335,52.381,18.81,51.818,18.553,50.985z"/>
				<path d="M12.328,51.096c0.328,0.796-0.15,1.806-0.503,2.289c-0.21-0.17-0.296-0.467-0.392-0.753
					c-0.522,0.19-1.266,0.41-1.954,0.251c0.346-0.609,0.892-1.295,1.899-1.061C11.501,51.403,11.772,50.992,12.328,51.096z"/>
				<path d="M14.533,53.051c-0.457-0.037-0.75-0.237-1.062-0.419c0.101,0.534,0.12,1.263-0.056,1.731
					c-0.686-0.298-1.545-2.02-0.475-2.512c-0.001-0.395,0.065-0.769,0.364-0.782c0.309-0.015,0.645,0.512,0.809,0.81
					C14.339,52.284,14.492,52.682,14.533,53.051z"/>
				<path d="M111.392,53.511c0.094-0.064,0.306-0.01,0.446-0.029C111.745,53.546,111.532,53.493,111.392,53.511z"/>
				<path d="M12.41,54.586c0.159,1.233-1.426,1.181-2.038,0.67c0.12-0.262,0.364-0.4,0.559-0.587
					c-0.398-0.012-0.717-0.102-1.005-0.223c0.274-0.387,1.046-1.011,1.954-0.894C12.38,53.619,13.117,54.283,12.41,54.586z"/>
				<path d="M16.515,54.392c-0.354,0.194-0.688,0.409-1.201,0.446c0.044,0.161,0.233,0.225,0.364,0.334
					c0.368,0.31,0.772,0.73,0.977,1.229c-1.33,0.17-2.866-0.458-2.485-1.731c-0.21-0.228-0.459-0.415-0.418-0.894
					C14.505,53.266,16.07,53.946,16.515,54.392z"/>
				<path d="M14.504,56.904c-0.386-0.042-0.685-0.171-0.949-0.335c-0.157,0.262-0.26,0.579-0.446,0.81
					c0.648,0.412,1.043,1.078,1.173,2.011c-0.41-0.064-0.721-0.229-1.005-0.419c0.005,0.255,0.046,0.717,0.027,1.089
					c1.014-0.293,2.083,0.215,2.708,0.67c-0.298,0.271-0.735,0.401-1.2,0.502c0.422,0.424,1.085,0.851,1.339,1.536
					c-1.393,0.146-2.781-0.373-2.484-1.731c-0.173-0.144-0.318-0.315-0.392-0.559c-0.048,0.053-0.059,0.146-0.083,0.223
					c-0.73-0.347-1.516-1.979-0.475-2.54c0-0.075,0-0.15,0-0.224c-0.141,0.083-0.326,0.362-0.559,0.447
					c-0.122,0.529-0.252,1.05-0.614,1.34c-0.127-0.246-0.27-0.475-0.334-0.782c-0.505,0.23-1.267,0.407-1.955,0.278
					c0.322-0.626,0.951-1.331,1.897-1.061c0.103-0.437,0.357-0.722,0.838-0.782c0.003-0.081-0.015-0.182,0.029-0.223
					c-0.363-0.176-0.463,0.209-0.81,0.251c-0.618,0.075-0.941-0.461-1.118-1.089c0.114-0.103,0.483-0.058,0.642-0.028
					c-0.133-0.267-0.368-0.433-0.419-0.782c0.918,0.041,1.648,0.27,1.843,1.033c0.187-0.232,0.336-0.501,0.669-0.585
					c-0.426-0.613-0.089-1.844,0.643-1.201C13.969,55.191,14.397,56.168,14.504,56.904z"/>
				<path d="M25.394,58.328c0.01,0.141-0.007,0.253-0.056,0.335c0.575,0.699,0.051,1.719-0.781,1.759
					c0.205,0.2,0.404,0.846,0.11,1.117c-0.107,0.004-0.206,0-0.278-0.029c-0.645,0.669-1.633,0.025-1.647-0.838
					c0.211-0.044,0.395-0.015,0.614,0c-0.08-0.2-0.358-0.442-0.418-0.754c0.112,0,0.224,0,0.335,0
					c0.111-0.521,0.328-1.129,0.698-1.479C24.275,58.152,24.994,57.896,25.394,58.328z M23.774,60.031
					c0.153,0.005,0.223,0.093,0.363,0.112c-0.008-0.119,0.136-0.354,0.028-0.391C24.063,59.873,23.852,59.885,23.774,60.031z"/>
				<path d="M28.381,59.25c-0.279,0.138-0.585,0.252-0.949,0.306c0.212,0.602,0.281,1.639,0.084,2.317
					c-0.7-0.371-1.479-1.363-1.005-2.374c-0.488-0.154-0.834-0.45-0.81-1.117c0.11-0.168,0.351-0.2,0.67-0.168
					C27.128,58.293,28.123,58.847,28.381,59.25z"/>
				<path d="M11.909,60.953c0.045,0.336-0.12,0.698-0.335,0.866c0.209,0.172,0.438,0.325,0.53,0.614
					c0.059-0.053,0.144-0.08,0.224-0.112c-0.417-0.56-0.11-1.87,0.642-1.2c0.49,0.436,0.929,1.422,1.033,2.149
					c-0.396-0.031-0.683-0.173-0.949-0.334c-0.251,0.531-0.534,1.031-0.921,1.424c-0.106,0.563-0.265,1.075-0.614,1.396
					c-0.122-0.251-0.281-0.462-0.334-0.781c-0.511,0.217-1.213,0.379-1.955,0.278c0.306-0.638,0.948-1.342,1.899-1.061
					c0.014-0.425,0.4-0.476,0.419-0.894c-0.698,0.396-1.427-0.24-1.48-1.005c0.233-0.029,0.376-0.017,0.614,0
					c-0.069-0.312-0.489-0.516-0.809-0.67c0.11-0.252,0.345-0.379,0.531-0.558c-0.355-0.063-0.716-0.122-1.005-0.251
					c0.316-0.361,1.051-0.991,1.954-0.894C11.87,59.976,12.618,60.65,11.909,60.953z"/>
				<path d="M24.221,64.135c-0.165-0.215-0.304-0.458-0.362-0.782c-0.528,0.204-1.209,0.386-1.954,0.28
					c0.304-0.652,0.887-1.3,1.87-1.089c0.149-0.393,0.405-0.821,0.949-0.726C25.08,62.606,24.594,63.625,24.221,64.135z"/>
				<path d="M26.931,63.801c-0.408-0.086-0.758-0.229-1.034-0.448c0.073,0.543,0.097,1.262-0.056,1.732
					c-0.753-0.29-1.527-1.991-0.474-2.514c-0.03-0.47,0.094-0.832,0.474-0.753c0.276,0.057,0.542,0.556,0.698,0.837
					C26.757,63.047,26.922,63.415,26.931,63.801z"/>
				<path d="M14.253,65.42c-0.407-0.086-0.757-0.229-1.034-0.447c0.081,0.521,0.102,1.284-0.055,1.732
					c-0.747-0.305-1.521-1.982-0.475-2.513c-0.023-0.465,0.098-0.825,0.475-0.753c0.284,0.053,0.539,0.553,0.697,0.836
					C14.078,64.662,14.261,65.025,14.253,65.42z"/>
				<path d="M28.967,64.135c-0.105,0.5-0.374,0.834-0.642,1.173c0.731-0.044,1.496,0.048,2.038,0.278
					c-0.446,0.832-2.604,1.533-3.043,0.224c-0.36-0.03-0.77-0.106-0.837-0.363c-0.125-0.471,0.603-0.791,0.948-0.949
					C27.968,64.254,28.434,64.124,28.967,64.135z"/>
				<path d="M25.98,66.425c0.041,0.135,0.036,0.314-0.056,0.39c0.705,0.842-0.108,1.894-1.172,1.816
					c-0.01-0.281,0.002-0.537,0.083-0.727c-0.268,0.077-0.562,0.369-0.977,0.391C23.912,67.194,24.794,65.758,25.98,66.425z"/>
				<path d="M28.996,67.402c-0.288,0.131-0.601,0.237-0.948,0.307c0.189,0.623,0.301,1.667,0.054,2.318
					c-0.657-0.403-1.432-1.308-1.004-2.345c-0.463-0.042-1.314-1.276-0.392-1.341C27.52,66.284,28.63,66.938,28.996,67.402z"/>
				<path d="M12.104,67.458c-0.042,0.07-0.117,0.105-0.194,0.139c0.095,0.898-1.038,0.909-1.536,0.531
					c0.056-0.213,0.225-0.313,0.391-0.419c-0.226-0.1-0.57-0.08-0.754-0.222C10.331,66.934,11.954,66.367,12.104,67.458z"/>
				<path d="M14.952,67.458c-0.247,0.163-0.508,0.312-0.893,0.334c0.35,0.376,0.812,0.64,1.005,1.173
					c-1.014,0.078-2.042-0.207-1.871-1.312c-0.172-0.142-0.368-0.386-0.279-0.698C13.622,66.703,14.529,67.069,14.952,67.458z"/>
				<path d="M13.444,69.357c-0.258-0.057-0.496-0.137-0.698-0.251c-0.196,0.334-0.385,0.676-0.475,1.117
					c-0.096,0.006-0.2,0.093-0.279,0.029c-0.279,0.188-0.494,0.446-0.865,0.446c-0.599,0-0.993-0.617-1.144-1.117
					c0.17-0.09,0.43-0.09,0.698-0.084c-0.175-0.291-0.493-0.437-0.587-0.81c0.616-0.082,1.281-0.005,1.648,0.251
					c0.182-0.08,0.246-0.274,0.474-0.307c-0.268-0.32-0.222-1.132,0.279-1.033c0.249,0.048,0.476,0.504,0.614,0.753
					C13.299,68.694,13.454,69.022,13.444,69.357z"/>
				<path d="M24.221,68.659c0.981-0.044,2.256,0.504,1.76,1.591c-0.084,0.039-0.223,0.039-0.307,0
					c-0.66,0.648-1.649,0.014-1.647-0.836c0.19-0.044,0.42-0.029,0.614,0C24.554,69.219,24.284,68.969,24.221,68.659z"/>
				<path d="M14.059,74.02c-0.851-0.311-1.985-1.88-0.921-2.736c0.075,0.018,0.221-0.036,0.251,0.028
					c-0.21-0.155-0.458-1.219,0-1.34c0.399-0.105,0.889,0.515,1.088,0.782c0.315,0.42,0.521,0.821,0.615,1.228
					c-0.676,0.007-1.103-0.237-1.507-0.503C13.962,72.09,14.188,73.077,14.059,74.02z"/>
				<path d="M12.131,73.182c-0.243-0.203-0.404-0.488-0.53-0.809c-0.566,0.319-1.277,0.637-2.122,0.585
					c0.317-0.792,0.789-1.574,1.927-1.451c-0.069-0.592,1.042-1.529,1.173-0.475C12.669,71.769,12.421,72.719,12.131,73.182z"/>
				<path d="M26.008,70.558c0.331,0.769-0.097,1.834-0.531,2.29c-0.138-0.225-0.292-0.433-0.334-0.755
					c-0.536,0.196-1.211,0.382-1.955,0.28c0.298-0.657,0.885-1.304,1.871-1.089C25.193,70.875,25.459,70.458,26.008,70.558z"/>
				<path d="M28.214,72.512c-0.449-0.034-0.746-0.221-1.033-0.419c0.001,0.268,0.066,0.474,0.056,0.755
					c0.368-0.079,0.667-0.226,1.144-0.196c-0.104,0.499-0.371,0.839-0.642,1.173c0.803-0.031,1.491,0.055,2.038,0.279
					c-0.431,0.834-2.616,1.544-3.043,0.222c-0.4,0.012-0.649-0.132-0.837-0.334c-0.047-0.502,0.324-0.588,0.586-0.782
					c-0.441-0.436-0.545-1.717,0.167-1.926c-0.051-0.397,0.082-0.812,0.475-0.727c0.109,0.025,0.333,0.257,0.419,0.363
					C27.853,71.302,28.159,72.021,28.214,72.512z"/>
				<path d="M11.88,75.667c-0.235-0.486-0.437-2.276,0.419-2.122c0.334,0.06,0.597,0.482,0.614,0.81
					C12.948,75.033,12.302,75.487,11.88,75.667z"/>
				<path d="M24.166,77.174c-0.009-0.289,0-0.558,0.083-0.754c-0.268,0.078-0.555,0.376-0.978,0.39
					c0.06-1.095,0.939-2.533,2.123-1.87c0.048,0.147,0.019,0.32-0.056,0.419C26.07,76.206,25.176,77.213,24.166,77.174z"/>
				<path d="M28.41,75.917c-0.286,0.134-0.593,0.246-0.95,0.307c0.19,0.623,0.302,1.666,0.056,2.316
					c-0.662-0.398-1.433-1.308-1.005-2.345c-0.356-0.199-0.886-0.486-0.81-1.033c0.036-0.254,0.303-0.32,0.698-0.279
					C27.132,74.96,28.154,75.514,28.41,75.917z"/>
				<path d="M13.947,78.235c-0.707-0.122-1.526-1.354-0.866-1.955c0.046-0.042,0.098-0.069,0.223-0.056
					C13.801,76.279,13.963,77.537,13.947,78.235z"/>
				<path d="M23.607,78.487c-0.124-0.229-0.488-0.461-0.586-0.81c1.19-0.163,2.589,0.293,2.177,1.535
					c-0.084,0.038-0.213,0.029-0.334,0.028c-0.53,0.861-1.846,0.214-1.956-0.67C23.075,78.494,23.414,78.444,23.607,78.487z"/>
				<path d="M90.507,79.058c0.996-0.788,2.718,0.114,3.184,0.921c-0.73,0.341-1.975,0.501-2.932,0.279
					c-0.041,0.49-0.118,0.944-0.252,1.341c-0.397-0.211-0.791-0.717-1.115-1.285c-0.272-0.474-0.686-1.199-0.588-1.788
					C88.945,77.689,90.512,78.461,90.507,79.058z"/>
				<path d="M28.019,81.39c-0.504,0.001-0.849-0.157-1.201-0.307c0.131,0.55,0.315,1.276,0.167,1.928
					c-0.856-0.301-1.969-1.958-0.892-2.765c-0.082-0.489,0.007-0.932,0.446-0.865c0.142,0.021,0.36,0.201,0.475,0.307
					C27.434,80.081,27.904,80.824,28.019,81.39z"/>
				<path d="M25.198,81.92c1.092,0.358,0.554,1.924-0.363,2.15c-0.283-0.515-0.319-1.626,0.055-2.066
					c-0.136-0.198-0.265-0.404-0.362-0.642c-0.582,0.321-1.192,0.613-2.122,0.586c0.312-0.786,0.854-1.606,1.926-1.451
					c0.046-0.331,0.39-1.132,0.921-0.978c0.218,0.063,0.277,0.543,0.28,0.81C25.538,80.913,25.368,81.541,25.198,81.92z"/>
				<path d="M25.785,88.51c-0.569-0.408-1.024-0.931-1.062-1.871c-0.158-0.008-0.248,0.051-0.419,0.028
					c0.042-0.74,0.34-1.793,1.118-1.843c-0.229-0.511-0.043-1.39,0.418-1.424c0.61-0.045,0.908,1.47,0.95,2.038
					c0.014,0.195-0.009,0.444-0.029,0.614c-0.405-0.143-0.686-0.412-0.977-0.67c0.113,0.146-0.034,0.414-0.028,0.559
					c0.008,0.165,0.103,0.344,0.14,0.531C26.021,87.098,26.027,87.933,25.785,88.51z"/>
				<path d="M91.122,88.188c-0.09,0.441-0.366,0.695-0.559,1.033c0.238-0.055,0.583-0.09,0.809,0
					c-0.015,1.009-1.203,2.04-2.065,1.089c-0.105,0.041-0.313,0.041-0.42,0C88.297,88.948,89.767,88.149,91.122,88.188z"/>
				<path d="M25.059,91.302c-0.475-0.291-1.233-1.101-1.061-2.038c0.043-0.241,0.385-0.849,0.809-0.727
					C25.346,88.694,25.308,90.744,25.059,91.302z"/>
				<path d="M80.902,90.588c-0.302,1.085-0.938,1.836-1.702,2.457c0.256,0.376,0.605,0.658,0.752,1.146
					c-0.83,0.139-1.627,0.006-2.373-0.252c-0.414-0.144-1.016-0.354-1.033-0.781c-0.021-0.572,0.883-0.928,1.619-0.727
					C78.405,91.144,79.429,90.642,80.902,90.588z"/>
				<path d="M90.033,91.706c1.22-0.378,2.086,0.624,2.401,1.424c-0.885,0.114-1.817-0.065-2.429-0.392
					c-0.143,0.361-0.267,0.74-0.476,1.033c-0.394-0.386-0.775-1.34-0.838-2.149c-0.03-0.395-0.021-0.937,0.335-0.948
					C89.541,90.654,89.956,91.212,90.033,91.706z"/>
				<path d="M88.05,91.677c1.332,0.67,0.354,2.92-0.586,3.379c-0.229-0.576-0.2-1.58-0.084-2.262
					c-0.361,0.15-0.767,0.498-1.34,0.531c0.094-0.727,0.615-2.002,1.174-2.457C87.724,90.451,88.122,90.949,88.05,91.677z"/>
				<path d="M91.903,95.167c-0.355,0.168-0.769,0.276-1.257,0.308c0.146,0.228,0.565,0.422,0.67,0.782
					c-0.808,0.699-2.784,0.682-2.597-0.895c-0.831-0.363,0.015-1.251,0.615-1.367C90.478,93.775,91.514,94.655,91.903,95.167z"/>
				<path d="M86.515,95.447c0.354,1.833-1.419,2.506-3.184,2.316c0.378-0.887,1.078-1.453,1.76-2.038
					c-0.627-0.108-1.146-0.324-1.563-0.642c0.542-0.467,1.772-1.153,2.931-1.062c0.148,0.013,0.417,0.066,0.504,0.168
					C87.309,94.6,86.73,95.232,86.515,95.447z"/>
				<path d="M91.68,97.625c-0.044,0.979-1.243,2.08-2.065,1.061c-0.072,0.067-0.221,0.058-0.363,0.056
					c-0.022,0.135,0.043,0.18,0.027,0.307c0.572,0.125,0.95,0.445,1.033,1.062c1.231-0.37,2.024,0.577,2.43,1.396
					c-0.895,0.168-1.854-0.058-2.457-0.364c-0.131,0.373-0.262,0.744-0.475,1.033c-0.418-0.411-0.591-1.065-0.754-1.73
					c-0.244-0.213-0.491-0.422-0.698-0.67c-0.04,0.076,0.014,0.185-0.028,0.307c1.344,0.667,0.363,2.926-0.585,3.379
					c-0.026-0.105-0.063-0.199-0.085-0.309c-0.108,0.311-0.293,0.545-0.503,0.754c0.328,1.818-1.341,2.484-3.183,2.318
					c0.371-0.895,1.072-1.458,1.76-2.038c-0.625-0.112-1.149-0.323-1.564-0.644c0.549-0.509,1.875-1.161,2.96-1.061
					c0.188,0.017,0.306,0.087,0.475,0.168c-0.072-0.477,0.009-1.006,0.056-1.452c-0.347,0.155-0.764,0.483-1.312,0.531
					c0.199-1.179,0.619-2.136,1.507-2.626c-0.191-0.356-0.412-0.685-0.53-1.115c-0.383,0.186-0.73,0.404-1.257,0.445
					c0.196-1.051,0.704-2.402,1.452-2.959c0.88-0.656,1.188,1.071,0.67,1.675c0.378,0.171,0.647,0.45,0.838,0.81
					c0.294-0.961,1.153-1.358,2.4-1.367c-0.128,0.412-0.369,0.709-0.586,1.033C91.073,97.564,91.46,97.533,91.68,97.625z"/>
				<path d="M74.899,102.427c0.148,0,0.299,0,0.447,0c-0.098,0.434-0.367,0.693-0.559,1.033c0.256-0.05,0.566-0.078,0.81,0
					c-0.028,1.005-1.208,2.054-2.066,1.088c-0.097,0.043-0.254,0.025-0.392,0.027c-0.371-0.367-0.129-1.18,0.168-1.451
					c-0.97-0.094-1.862-1.382-0.977-2.29c-0.375-0.548,0.215-0.856,0.781-0.81C74.194,100.116,74.779,101.527,74.899,102.427z
					 M73.81,102.734c0.194-0.04,0.352-0.114,0.504-0.195c-0.217-0.071-0.42-0.307-0.613-0.307
					C73.772,102.363,73.792,102.549,73.81,102.734z"/>
				<path d="M70.823,101.869c0.615,1.23-0.426,2.685-1.283,3.183c-0.275-0.905-0.17-2.222,0.083-3.071
					c-0.431-0.129-0.876-0.24-1.229-0.446c0.254-0.381,0.756-0.663,1.313-0.921c0.44-0.205,2.035-0.883,2.148-0.084
					C71.948,101.172,71.286,101.779,70.823,101.869z"/>
				<path d="M92.546,103.627c-0.364,0.159-0.77,0.275-1.257,0.308c0.147,0.206,0.518,0.43,0.67,0.725
					c-0.159,0.197-0.433,0.275-0.67,0.392c-0.144,0.173-0.273,0.362-0.392,0.559c0.221-0.04,0.591-0.048,0.81,0
					c-0.079,0.86-0.898,1.962-1.871,1.257c-0.046,0.521,0.505,0.688,0.531,1.229c1.229-0.357,1.992,0.602,2.429,1.396
					c-0.847,0.214-1.828-0.062-2.456-0.334c-0.166,0.346-0.271,0.753-0.504,1.033c-0.224-0.263-0.353-0.533-0.476-0.838
					c-0.123-0.312-0.139-0.683-0.277-1.005c-0.127-0.295-0.45-0.553-0.643-0.866c-0.207-0.338-0.357-0.669-0.476-1.033
					c-0.382,0.186-0.732,0.402-1.257,0.447c0.088-0.887,0.713-2.271,1.313-2.848c0.136-0.13,0.456-0.343,0.726-0.224
					c0.464,0.206,0.41,1.423,0.083,1.786c0.079,0.062,0.188,0.094,0.279,0.141c0.177-0.308,0.372-0.596,0.698-0.754
					c-0.239-0.302-0.479-0.602-0.447-1.174c-0.189-0.143-0.42-0.166-0.363-0.529c0.08-0.51,0.667-0.839,1.229-0.865
					C91.266,102.377,92.227,103.161,92.546,103.627z"/>
				<path d="M72.275,105.945c1.342,0.698,0.335,2.91-0.614,3.351c-0.182-0.601-0.189-1.596-0.056-2.262
					c-0.364,0.148-0.767,0.501-1.341,0.53c0.085-0.726,0.615-2.009,1.173-2.457C71.96,104.687,72.347,105.21,72.275,105.945z"/>
				<path d="M74.257,105.945c1.213-0.348,2.031,0.567,2.402,1.424c-0.882,0.129-1.831-0.061-2.43-0.391
					c-0.148,0.354-0.274,0.731-0.475,1.033c-0.374-0.395-1.071-1.826-0.838-2.765c0.029-0.116,0.122-0.208,0.195-0.308
					C73.845,104.925,74.112,105.375,74.257,105.945z"/>
				<path d="M88.386,108.095c1.333,0.65,0.348,2.933-0.615,3.35c-0.184-0.603-0.184-1.59-0.056-2.26
					c-0.331,0.18-0.796,0.469-1.312,0.559c0.017-0.732,0.58-1.997,1.116-2.459C88.039,106.838,88.462,107.323,88.386,108.095z"/>
				<path d="M69.817,110.244c-0.504,1.736-3.332,0.839-3.908-0.279c0.685-0.302,1.557-0.418,2.568-0.391
					c-0.283-0.377-0.651-0.912-0.809-1.507c-0.006-0.024,0.012-0.026,0.027-0.028c0.023-0.004,0.028-0.027,0.056-0.027
					c0.616,0.016,1.214,0.205,1.899,0.53c0.482,0.229,1.283,0.606,1.201,1.173C70.796,110.097,70.292,110.212,69.817,110.244z"/>
				<path d="M74.174,113.567c-0.519-0.077-0.843-0.35-1.229-0.558c0.067,0.305,0.134,0.611,0.111,1.004
					c-1.329,0.066-2.468-1.326-1.508-2.373c-0.285-0.455,0.054-0.789,0.587-0.809C73.446,110.787,74.058,112.388,74.174,113.567z"/>
				<path d="M70.041,112.703c0.644,1.197-0.44,2.641-1.228,3.154c-0.355-0.797-0.206-2.297,0.055-3.07
					c-0.449-0.109-0.895-0.222-1.228-0.447c0.571-0.625,1.565-1.234,2.652-1.34c0.254-0.026,0.563-0.041,0.698,0.111
					c0.301,0.341-0.113,1.059-0.364,1.285C70.468,112.541,70.263,112.621,70.041,112.703z"/>
				<path d="M91.791,112.479c-0.245,0.154-0.579,0.22-0.948,0.251c0.073,0.149,0.371,0.316,0.475,0.529
					c-0.471,0.616-2.11,0.553-1.927-0.586c-0.675-0.436,0.11-1.124,0.865-1.061C90.939,111.671,91.522,112.179,91.791,112.479z"/>
				<path d="M88.106,111.808c0.097,0.416-0.151,0.699-0.363,0.895c0.247,1.395-1.038,1.85-2.373,1.758
					c0.236-0.703,0.798-1.08,1.284-1.535c-0.447-0.093-0.837-0.242-1.146-0.475C85.97,111.972,87.333,111.381,88.106,111.808z"/>
				<path d="M89,113.986c0.196,0.119,0.424,0.207,0.502,0.446c0.508-0.316,1.397-0.499,2.206-0.335
					c-0.189,0.415-0.492,0.719-0.782,1.034c0.354,0,0.677,0.03,0.921,0.14c-0.228,0.566-0.594,1.342-1.283,1.452
					c-0.599,0.095-0.901-0.272-1.257-0.559c-0.163,0.014-0.29-0.009-0.392-0.056c-0.148-0.156-0.068-0.354-0.112-0.531
					c-0.084-0.344-0.413-0.58-0.446-0.949c-0.307,0.123-0.581,0.276-0.949,0.335c0.101-0.739,0.51-1.75,1.006-2.177
					C89.138,112.161,89.383,113.48,89,113.986z"/>
				<path d="M73.728,114.042c-0.131,0.4-0.357,0.703-0.588,1.004c0.246-0.029,0.598-0.051,0.838,0
					c-0.03,1.016-1.219,2.059-2.094,1.09c-0.096,0.066-0.264,0.065-0.391,0.027C70.862,114.766,72.422,113.957,73.728,114.042z"/>
				<path d="M86.683,121.162c-0.244-1.221,0.094-2.63,0.587-3.378c-0.46,0.304-1.104,0.665-1.928,0.698
					c0.079-0.539,0.358-1.09,0.754-1.646c0.245-0.346,0.925-1.222,1.424-1.033c0.503,0.188,0.329,1.475-0.056,1.73
					c0.396-0.154,0.773,0.352,0.865,0.727C88.655,119.577,87.429,120.71,86.683,121.162z"/>
				<path d="M72.61,117.533c1.286-0.315,2.025,0.584,2.43,1.424c-0.899,0.162-1.82-0.082-2.457-0.363
					c-0.125,0.378-0.27,0.736-0.476,1.033c-0.409-0.544-0.923-1.621-0.838-2.596C71.36,115.994,72.669,116.837,72.61,117.533z"/>
				<path d="M89.977,117.812c1.508-0.139,2.089,0.887,2.485,1.953c-1.165,0.012-1.945-0.361-2.681-0.781
					c-0.201,0.387-0.367,0.805-0.698,1.061c-0.358-0.649-0.66-1.787-0.559-2.819c0.029-0.292,0.143-0.671,0.419-0.697
					C89.535,116.47,89.95,117.234,89.977,117.812z"/>
				<path d="M68.646,119.18c0.104-0.845,0.568-1.932,1.117-2.431c0.533-0.482,0.98,0.057,0.865,0.755
					c0.893,0.312,0.776,1.961,0.224,2.569c0.296,0.252,0.802,0.455,0.753,0.92c-0.041,0.39-0.553,0.548-1.061,0.559
					c-0.477,1.754-3.324,0.838-3.881-0.277c0.672-0.286,1.613-0.453,2.568-0.363c-0.266-0.414-0.687-0.915-0.811-1.564
					c0.525-0.054,1.037,0.132,1.452,0.279c0.052-0.33,0.015-0.748,0.112-1.033C69.603,118.851,69.195,119.087,68.646,119.18z"/>
				<path d="M89.391,123.339c-0.573-0.256-1.336-0.908-1.284-1.759c0.024-0.41,0.513-1.227,1.089-1.034
					C89.879,120.777,89.702,122.802,89.391,123.339z"/>
				<path d="M74.899,124.875c-0.502-0.084-0.834-0.338-1.2-0.559c0.004,0.234,0.181,0.668,0.083,1.006
					c-1.312,0.057-2.422-1.305-1.507-2.373c-0.26-0.51,0.108-0.795,0.614-0.811C74.177,122.097,74.819,123.675,74.899,124.875z"/>
				<path d="M70.796,124.009c0.615,1.209-0.423,2.682-1.285,3.154c-0.263-0.902-0.188-2.258,0.112-3.07
					c-0.474-0.096-0.896-0.238-1.257-0.447c0.617-0.58,1.667-1.35,2.818-1.367C72.45,122.257,71.526,123.99,70.796,124.009z"/>
				<path d="M86.794,126.775c-0.053-0.885,0.147-2.484,0.81-2.709c0.355-0.121,0.61,0.619,0.614,0.893
					C88.229,125.896,87.407,126.46,86.794,126.775z"/>
				<path d="M75.235,126.021c-0.14,0.463-0.51,0.699-0.755,1.061c0.345-0.01,0.677-0.006,0.894,0.111
					c-0.115,1.082-1.695,2.117-2.429,0.893c-0.466,0.115-0.641-0.141-0.586-0.67C72.472,126.322,73.966,125.767,75.235,126.021z"/>
				<path d="M71.325,129.427c1.373,1.01,0.007,3.215-1.088,3.654c-0.25-0.779,0.006-1.846,0.194-2.539
					c-0.398,0.15-0.936,0.404-1.562,0.42c0.216-0.838,0.991-2.264,1.759-2.627C71.263,128.039,71.485,128.783,71.325,129.427z"/>
				<path d="M73.531,129.734c1.418-0.156,2.104,0.889,2.485,1.955c-1.178,0.023-1.951-0.357-2.68-0.783
					c-0.149,0.279-0.266,0.594-0.476,0.811c0.462,0.586,0.429,2.096,0.084,2.791c-0.513-0.266-1.198-0.777-1.284-1.508
					c-0.078-0.664,0.307-1.086,0.809-1.311c-0.292-0.814-0.666-2.307-0.166-3.156C73.063,128.365,73.464,129.025,73.531,129.734z"/>
				<path d="M72.163,135.513c0.595-0.102,0.906,0.543,1.117,1.006c0.207,0.451,0.371,0.928,0.336,1.424
					c-0.208,0.012-0.374-0.02-0.531-0.057c-0.044,1.139-0.598,2.006-1.368,2.514c-0.232-0.727-0.335-1.891-0.14-2.793
					c0.044-0.207,0.188-0.408,0.194-0.586c0.01-0.207-0.181-0.537-0.055-0.754c-0.335,0.252-0.714,0.699-1.229,0.865
					c-0.079-1.127,0.16-2.564,0.67-3.238C71.857,132.97,72.685,134.664,72.163,135.513z"/>
				<path d="M72.722,144.113c-0.018,0-0.037,0-0.056,0c-0.101-0.301-0.196-0.666-0.222-1.061c-0.062-0.902,0.031-2.521,0.586-2.625
					c0.492-0.092,0.917,0.607,0.976,1.033c0.176,1.27-0.679,2.035-1.229,2.568C72.771,144.068,72.731,144.076,72.722,144.113z"/>
				<path d="M12.438,4.441c0.018,0,0.038,0,0.056,0c0.871,0.367,1.782,0.842,1.759,2.011c0.265,0.467,0.517,1.347,0.223,1.954
					c0.257-0.079,0.542-0.371,0.922-0.418c0.02,0.467-0.048,0.846-0.14,1.2C15.47,9.036,15.6,8.562,15.9,8.406
					c-1.065-0.261,0.204-1.662,1.005-1.033c0.072-0.124,0.082-0.31,0.14-0.447c0.382,0.25,0.683,0.582,0.893,1.005
					c0.264-0.677,0.463-1.417,1.005-1.816c0.46,0.769,0.539,2.554-0.391,2.849C18.48,9.312,18.33,9.58,18.161,9.83
					c0.026,0.086,0.156,0.069,0.195,0.141c0.34-0.927,0.939-1.592,1.787-2.011c0.047,0.295,0.039,0.709,0,1.006
					c0.875,0.112,1.726,0.248,2.206,0.753c-0.508,0.455-2.006,0.851-2.541,0.14c-0.253,0.261-0.615,0.554-1.145,0.447
					c0.023,0.134,0.09,0.227,0.139,0.334c1.082-0.23,1.368,0.8,1.173,1.76c-0.162-0.024-0.278-0.093-0.418-0.139
					c0.211,0.542,0.474,1.033,0.697,1.564c0.264-0.013,0.461,0.042,0.642,0.111c0.118-0.143,0.206-0.316,0.308-0.474
					c0.244,0.22,0.414,0.516,0.53,0.865c0.19,0.098,0.36,0.218,0.53,0.335c0.48-0.581,0.915-1.209,1.647-1.536
					c0.264,1.469-0.123,2.95-1.174,3.377c0.04,0.083,0.13,0.113,0.168,0.196c0.558-0.327,1.1-0.669,1.87-0.782
					c-0.062,0.505-0.197,0.938-0.391,1.312c0.223,0.104,0.486,0.164,0.698,0.279c0.561-0.231,1.039-0.543,1.843-0.53
					c-0.113,0.482-0.357,0.834-0.615,1.173c0.786-0.023,1.513,0.013,2.039,0.251c-0.516,0.546-1.15,1.097-2.094,1.005
					c-0.193-0.019-0.349-0.156-0.558-0.196c-0.35-0.067-0.719,0.008-1.034-0.083c-0.026,0.2,0.223,0.099,0.307,0.112
					c0.807,0.135,1.556,0.484,2.066,0.949c-0.244,0.194-0.581,0.293-0.948,0.364c0.156,0.529,0.305,1.606,0.111,2.317
					c-0.494-0.195-0.748-0.628-1.033-1.033c0.102,0.549,0.264,1.039,0.364,1.592c0.285-0.033,0.556-0.317,0.949-0.335
					c0.007,0.714-0.183,1.232-0.42,1.703c0.702-0.179,1.762-0.489,2.737-0.306c-0.534,0.955-1.215,1.763-2.513,1.954
					c-0.007,0.118,0.025,0.198,0.055,0.278c0.465,0.142,0.963,0.246,1.34,0.475c-0.276,0.355-0.679,0.587-1.117,0.782
					c0.109,0.246,0.258,0.45,0.364,0.697c0.695,0.133,1.342,0.315,1.759,0.727c-0.33,0.221-0.68,0.419-1.172,0.475
					c0.038,0.165,0.233,0.227,0.363,0.334c0.372,0.31,0.752,0.72,1.005,1.173c-0.956,0.169-1.945-0.064-2.374-0.642
					c-0.074-0.101-0.09-0.232-0.167-0.334c-0.095-0.127-0.244-0.191-0.363-0.307c-0.371-0.362-0.62-0.794-0.699-1.368
					c-0.208,0.272-0.378,0.712-0.698,0.782c0.107,0.744-0.258,1.246-1.033,1.2c0.175,0.43,0.546,0.664,0.81,1.006
					c0.148-0.3,0.316-0.578,0.67-0.67c-0.334-0.465-0.253-1.741,0.474-1.341c0.529,0.291,0.867,1.176,1.117,1.731
					c0.056,0.046,0.141-0.119,0.25-0.111c0.169,0.445,0.212,1.136,0.14,1.731c0.693-0.405,1.441-0.997,2.486-1.146
					c-0.137,0.926-0.61,1.896-1.257,2.401c-0.295,0.23-0.666,0.382-1.201,0.363c-0.033,0.089,0.145,0.208,0.223,0.278
					c0.578-0.139,1.396-0.241,2.065-0.112c-0.199,0.443-0.501,0.783-0.81,1.117c0.19,0.163,0.391,0.318,0.559,0.503
					c0.617-0.083,1.41-0.091,1.899,0.111c-0.23,0.394-0.596,0.652-0.977,0.894c0.685,0.235,1.338,0.505,1.815,0.949
					c-0.626,0.477-2.313,0.603-2.736-0.139c-0.687-0.235-1.264-0.58-1.536-1.229c-0.015,0.322-0.262,0.614-0.306,0.949
					c-0.031,0.228,0.069,0.438,0.055,0.669c-0.013,0.237-0.141,0.381-0.167,0.614c-0.226-0.063-0.328,0.203-0.587,0.196
					c0.016,0.058,0.059,0.09,0.083,0.139c0.35-0.098,0.811-0.325,1.285-0.391c-0.182-0.193-0.531-0.905-0.194-1.284
					c0.575-0.1,1.102,0.344,1.452,0.67c0.334,0.312,0.635,0.674,0.781,1.033c-0.276,0.086-0.721,0.067-1.004,0
					c-0.058,0.324-0.068,0.695-0.168,0.977c0.747,0.137,1.515,0.253,2.066,0.586c-0.64,0.924-3.236,1.709-3.965,0.278
					c-0.052-0.102,0.008-0.265-0.167-0.306c0.07,0.209,0.3,0.5,0.278,0.893c0.661,0.419,1.472,0.688,1.872,1.368
					c-0.391,0.15-0.789,0.292-1.313,0.307c0.043,0.245,0.116,0.461,0.112,0.755c0.183,0.134,0.406,0.227,0.558,0.391
					c0.586-0.504,1.259-0.919,2.234-1.034c-0.085,0.511-0.296,0.896-0.558,1.229c0.661-0.098,1.528-0.081,2.066,0.112
					c-0.415,0.836-2.177,1.663-2.959,0.643c-0.334,0.064-0.835,0.083-1.201,0.027c0.008,0.142,0.203,0.336,0.279,0.502
					c1.006-0.288,2.101,0.221,2.68,0.726c-0.262,0.175-0.547,0.327-0.921,0.391c0.219,0.622,0.451,1.539,0.25,2.317
					c-0.73-0.379-1.538-1.173-1.2-2.262c-0.122-0.047-0.242-0.094-0.364-0.14c0.007,0.132,0.064,0.215,0.056,0.364
					c-0.196-0.046-0.407-0.078-0.559-0.168c-0.062,0.32-0.22,0.543-0.419,0.727c0.113,0.11,0.288,0.158,0.363,0.307
					c-0.354,0.213-0.739,0.396-1.256,0.447c0.536,0.433,1.043,0.893,1.368,1.536c-0.845,0.15-1.731-0.098-2.177-0.531
					c-0.103-0.1-0.136-0.347-0.335-0.222c0.067,0.351,0.348,0.73,0.335,1.256c-0.27-0.037-0.478-0.136-0.699-0.223
					c0.067,0.349,0.035,0.807-0.111,1.033c0.33-0.099,0.626-0.229,1.034-0.251c-0.099,0.46-0.288,0.83-0.531,1.146
					c0.1,0.095,0.254,0.137,0.334,0.251c0.151-0.11,0.201-0.321,0.503-0.279c-0.199-0.257-0.45-0.822,0.056-0.92
					c0.826-0.161,2.16,0.439,2.457,0.81c-0.355,0.193-0.705,0.392-1.201,0.446c0.414,0.442,1.111,0.843,1.34,1.563
					c-0.529,0.054-1.031-0.01-1.452-0.139c0.104,0.464,0.257,0.877,0.251,1.451c0.151-0.026,0.32-0.035,0.502-0.027
					c-0.146,0.467-0.37,0.857-0.669,1.172c0.801-0.029,1.491,0.055,2.038,0.278c-0.422,0.852-2.616,1.533-3.043,0.224
					c-0.307,0.029-0.463-0.096-0.67-0.168c-0.076,0.128-0.116,0.292-0.194,0.419c-0.434-0.246-0.735-0.865-0.977-1.396
					c-0.082-0.026-0.168,0.185-0.334,0.168c-0.127-0.45-0.089-1.066-0.251-1.479c-0.263,0.25-0.414,0.756-0.782,0.809
					c-0.102,0.512-0.43,0.797-0.781,1.061c-0.184-0.152-0.248-0.422-0.307-0.698c-0.22,0.273-0.362,0.626-0.642,0.837
					c-0.158-0.279-0.25-0.625-0.279-1.033c-0.106-0.049-0.182,0.17-0.334,0.168c-0.101-0.392-0.173-0.881-0.084-1.313
					c-0.577,0.334-1.069,0.755-1.871,0.867c0.195-0.968,0.576-1.85,1.452-2.066c0.082-0.021,0.186,0.004,0.279-0.029
					c0.462-0.163,0.917-0.648,1.59-0.53c0.16-0.384-0.196-0.487-0.25-0.81c0.316,0.009,0.481-0.134,0.67-0.251
					c-0.057-0.147-0.234-0.175-0.306-0.307c-0.07,0.145-0.075,0.352-0.195,0.446c-0.769,0.139-1.245-0.557-0.978-1.285
					c-0.118-0.049-0.307-0.027-0.447-0.056c0.105-0.415,0.51-0.773,0.837-1.061c-0.775-0.099-1.442-0.307-1.955-0.67
					c0.198-0.166,0.425-0.302,0.699-0.391c-0.132-0.512-0.168-1.316,0-1.815c0.417,0.206,0.688,0.558,0.949,0.921
					c0.102-0.334,0.224-0.816,0.419-1.145c-0.531-0.64-0.897-2.424,0.027-2.904c0.079-0.507,0.28-0.894,0.475-1.284
					c-0.284-0.153-0.653-0.224-0.949-0.363c-0.759,0.284-0.931-0.453-1.536-0.502c-0.007,0.082,0.231,0.161,0.308,0.25
					c-0.298,0.271-0.72,0.416-1.201,0.503c0.018,0.121,0.289,0.231,0.39,0.363c0.446-0.129,0.957,0.012,1.202,0.251
					c0.186-0.369,0.829-0.763,1.339-0.447c0.055,1.084-0.798,1.905-1.479,2.373c-0.093-0.27-0.124-0.601-0.111-0.977
					c-0.846,0.055-1.7-0.124-2.233-0.474c-0.13-0.003,0.033-0.064,0.028-0.112c-0.171-0.192-0.334-0.392-0.334-0.754
					c-0.087-0.052-0.182,0.086-0.307,0.084c0.302,0.517,0.626,1.01,0.698,1.759c-0.361-0.067-0.675-0.181-0.95-0.335
					c-0.309,0.623-0.669,1.193-1.145,1.647c0.566,0.151,1.115,0.318,1.452,0.698c-0.364,0.193-0.711,0.407-1.229,0.447
					c0.436,0.428,1.111,0.861,1.368,1.563c-1.377,0.102-2.737-0.325-2.513-1.731c-0.169-0.252-0.497-0.485-0.363-0.95
					c0.157-0.166,0.604-0.168,0.893-0.111c-0.111-1.005,0.049-1.955,0.81-2.178c-0.038-0.158-0.141-0.25-0.167-0.418
					c-0.693-0.119-1.316,0.208-1.927-0.084c-0.114,1.161-0.064,2.486-0.223,3.602c0.71,0.528,1.159,1.316,1.34,2.374
					c-0.371-0.058-0.687-0.169-0.949-0.334c-0.304,0.581-0.604,1.164-1.089,1.563c-0.009,0.066-0.045,0.105-0.028,0.196
					c-0.063-0.182-0.21,0.046-0.306,0.083c-0.271-0.628-0.159-1.748,0.223-2.15c-0.021-0.351-0.038-0.707-0.028-1.089
					c-0.204,0.563-1.458,0.496-1.954,0.084c0.101-0.271,0.36-0.385,0.531-0.586c-0.373-0.028-0.689-0.112-0.978-0.223
					c0.253-0.437,0.857-0.762,1.507-0.894c-0.576-0.58-1.17-2.812,0.251-3.015c0.234-0.552-0.204-0.973-0.334-1.48
					c-0.138,0.086-0.388,0.064-0.502-0.028c-0.993,0.535-1.756-0.331-1.648-1.424c0.293,0.005,0.507,0.089,0.726,0.168
					c-0.028-0.269-0.276-0.562-0.251-0.978c0.365,0.026,0.601,0.18,0.866,0.307c-0.222-0.784-0.625-1.385-1.005-2.01
					c-0.265,0.284-0.494,0.604-0.838,0.81c-0.247-0.53-0.17-1.565,0.112-1.982c-0.197-0.354-0.502-0.597-0.81-0.838
					c-0.48,0.015-0.756-0.174-1.062-0.334c0.031-0.146,0.158-0.198,0.223-0.307C7.166,34.03,5.514,33.29,3.56,33.45
					c-0.881,0.072-2.776,0.153-3.016,0.81c-0.072,0.199-0.001,0.438-0.028,0.642c-0.075,0.584-0.9,1.279-1.424,1.369
					c-1.13,0.194-2.005-1.031-2.513-1.732c-1.596-2.204-2.678-5-3.127-8.265c0-0.288,0-0.578,0-0.866
					c0.059-1.356,1.009-1.819,1.843-2.401c-0.348-0.003-0.743,0.095-1.061,0.028c0.127-0.012,0.307,0.029,0.391-0.028
					c0.228-1.047,0.616-1.935,1.759-2.066c0.204-0.185,0.732-0.458,1.146-0.53c0.175-0.031,0.384,0.012,0.475-0.112
					c0.161-0.22-0.321-0.451-0.279-0.698c0.145-0.077,0.421-0.026,0.586-0.084c0.188-0.239-0.224-0.47-0.279-0.446
					c-0.164,1.081-1.679-0.062-1.118-0.894c-0.169-0.017-0.373,0.002-0.474-0.084c0.098-0.214,0.25-0.458,0.417-0.642
					c0.122-0.132,0.393-0.273,0.364-0.363c-0.693-0.172-1.462-0.269-1.87-0.726c0.652-0.396,1.715-0.87,2.512-0.392
					c0.135,0.082,0.252,0.297,0.392,0.364c0.17,0.081,0.405,0.08,0.586,0.14c0.587,0.193,1.021,0.516,1.424,0.837
					c0.949-0.52,1.986-0.954,2.931-1.479c0.111-0.586,0.363-1.182,0.419-1.731c-0.152,0.072-0.442,0.154-0.643,0.084
					c0.076-0.501,0.266-0.888,0.475-1.256c-0.281-0.063-0.466-0.222-0.726-0.307c-0.52,0.206-1.128,0.471-1.843,0.39
					C1,12.692,1.19,12.359,1.383,12.118c0.056-0.07,0.2-0.145,0.14-0.223c-0.734-0.048-1.443-0.12-1.928-0.418
					c0.488-0.477,1.09-0.875,1.872-0.865c0.315,0.002,0.511,0.165,0.81,0.25C2.299,10.868,2.36,10.89,2.36,10.89
					c0.719,0.088,1.358,0.246,1.731,0.726c-0.053-0.293-0.043-0.744,0.028-1.004c0.152-0.012,0.309,0.262,0.448,0.25
					c0.123-0.01,0.307-0.311,0.195-0.475c-0.42,0.501-1.057-0.06-0.921-0.782c0.06-0.321,0.344-0.464,0.502-0.614
					C4.24,8.886,4.011,8.773,4.037,8.628c0.367-0.136,0.74-0.266,1.257-0.251c-0.356-0.472-0.908-0.991-1.09-1.731
					c1.229,0.093,2.182,0.461,2.317,1.646c0.168,0.142,0.284,0.476,0.475,0.503C7.08,8.668,6.943,8.516,6.885,8.404
					C6.61,7.875,6.349,7.227,6.438,6.478C6.792,6.581,7.04,6.787,7.332,6.952c0.408-0.668,0.91-1.248,1.674-1.563
					C9.134,6.56,8.749,7.457,7.889,7.734c0.221,0.434,0.128,1.324-0.475,1.283c0.116,0.229,0.28,0.558,0.419,0.67
					c-0.18-0.2-0.06-0.597,0.251-0.559c-0.046-1.198,1.753-1.023,2.122-0.306c-0.173,0.171-0.399,0.29-0.614,0.419
					c0.161,0.1,0.962,0.247,0.949,0.447c-0.004,0.061-0.437,0.297-0.67,0.39c-0.751,0.302-1.775,0.21-2.038-0.307
					C8.266,10.4,8.606,11.12,9.06,11.727c0.542-0.176,1.213-0.221,1.732-0.419c-0.501-0.141-0.964-0.319-1.312-0.614
					c0.562-0.453,1.52-0.904,2.541-0.81c0.49,0.046,0.747,0.303,1.089,0.447c0.072,0.031,0.192,0.101,0.278,0.028
					c-0.014-0.224-0.271-0.321-0.418-0.419c-0.512-0.343-1.013-0.674-1.284-1.229c0.369-0.118,0.895-0.218,1.34-0.168
					c-0.02-0.241-0.04-0.482-0.028-0.753c-0.486-0.425-1.011-0.813-1.284-1.453c0.419-0.128,1.03,0.005,1.34,0.056
					C12.755,5.838,12.465,5.271,12.438,4.441z M15.091,11.896c0.34,0.015,0.484,0.223,0.697,0.364
					c0.03-0.11,0.139-0.141,0.141-0.279c-0.184-0.059-0.248-0.236-0.42-0.307C15.393,11.771,15.195,11.786,15.091,11.896z
					 M11.461,13.488c0.114,0.331,0.239,0.639,0.196,1.034c-0.017,0.153-0.117,0.295-0.14,0.446c-0.074,0.479,0.048,0.97-0.167,1.34
					c0.102-0.029,0.19-0.069,0.279-0.111c-0.141-1.063,0.282-2.019,0.809-2.597c0.176,0.281,0.29,0.623,0.419,0.949
					c0.303-0.151,0.42-0.513,0.67-0.754c0.32-0.308,0.85-0.592,1.396-0.418c0.178-0.091,0.345-0.195,0.418-0.391
					c-0.578,0.163-1.656,0.291-2.233,0.028c0.024-0.069,0.161-0.172,0.112-0.222C12.564,12.953,12.048,13.256,11.461,13.488z
					 M17.326,15.582c0.074-0.111,0.241-0.131,0.307-0.251c-0.041-0.007-0.047-0.045-0.084-0.056
					C17.468,15.354,17.28,15.471,17.326,15.582z M12.802,15.693c0.1-0.041,0.217-0.062,0.278-0.139
					c-0.087-0.015-0.155-0.049-0.222-0.085C12.831,15.536,12.809,15.607,12.802,15.693z M16.822,16.363
					c-0.07,0.098-0.102,0.233-0.195,0.307c0.291,0.848-0.583,1.357-0.809,1.871c0.338,0.102,0.345-0.361,0.586-0.447
					c0.115-0.508,0.369-0.878,0.642-1.228c0.152-0.062,0.245-0.184,0.25-0.392C17.13,16.447,16.986,16.395,16.822,16.363z
					 M9.116,18.681c0.006,0.153-0.112,0.396,0.056,0.42c-0.07-0.368,0.039-0.724,0.139-1.005c-0.043-0.087-0.287-0.122-0.391-0.056
					C9.014,18.178,9.106,18.428,9.116,18.681z M10.568,19.268c0.29,0.666-0.201,1.272-0.697,1.312c0,0.093,0.09,0.095,0.083,0.195
					c0.325-0.233,0.568-0.696,0.978-0.754c0.104,0.727-0.083,1.357-0.364,1.787c0.08,0.197,0.228,0.091,0.392,0.028
					c-0.097-0.603,0.07-1.15,0.419-1.396c-0.487-0.222-0.672-1.407,0-1.563c-0.078-0.292,0.011-0.633,0.083-0.866
					c-0.588,0.101-0.393,0.986-1.061,1.005C10.405,19.129,10.52,19.158,10.568,19.268z M18.274,18.542
					c0.482,0.101,0.683,0.611,0.614,1.172c0.084-0.046,0.362-0.046,0.446,0c-0.021,0.239-0.247,0.422-0.222,0.614
					c0.255-0.087,0.529,0.048,0.753,0.084c0.224-0.131,0.47-0.238,0.67-0.392c-0.08-0.229,0.009-0.528,0.056-0.727
					c-0.606-0.137-1.026-0.462-1.201-1.032c-0.329,0.222-0.893,0.112-1.173-0.085C18.247,18.29,18.258,18.417,18.274,18.542z
					 M17.018,19.714c0.141,0.147,0.266,0.31,0.418,0.447c0.136-0.078,0.279-0.149,0.448-0.195c-0.125-0.425-0.459-0.638-0.67-0.977
					C17.192,19.274,17.06,19.449,17.018,19.714z M14.617,20.301c-0.272-0.033-0.484-0.234-0.782-0.28
					c-0.237-0.034-0.433,0.025-0.67-0.083c-0.109,0.048-0.209,0.108-0.363,0.112c0.027,0.162,0.247,0.364,0.363,0.53
					c0.102-0.34,0.765-0.587,0.865-0.084c0.828-0.053,1.102,0.643,0.978,1.369c0.268-0.336,0.19-1.019,0.306-1.508
					C15.079,20.247,14.86,20.33,14.617,20.301z M25.003,20.942c0.019-0.167,0.072-0.298,0.14-0.418
					c-0.088-0.015-0.156-0.049-0.224-0.084C24.918,20.637,24.958,20.792,25.003,20.942z M7.302,20.552
					c0.037,0.252,0.003,0.575,0.055,0.81c0.134-0.239,0.176-0.569,0.252-0.866C7.489,20.498,7.404,20.533,7.302,20.552z
					 M11.657,22.757c0.297,0.122,0.515,0.322,0.753,0.503c0.141-0.362,0.289-0.716,0.448-1.061c0.237,0.173,0.489,0.479,0.726,0.558
					c-0.381-0.424-0.705-1.038-0.587-1.87c-0.302,0.022-0.513-0.044-0.782-0.056C12.193,21.637,11.946,22.218,11.657,22.757z
					 M8.837,21.054c-0.012-0.067,0.051-0.06,0.027-0.14c-0.048,0.002-0.086-0.006-0.112-0.027
					C8.765,20.958,8.792,21.015,8.837,21.054z M3.951,21.222c0.158,1.033,0.216,2.167,0.418,3.155
					c0.314-0.151,0.65-0.281,1.005-0.392c-0.488-0.554-1.019-1.065-1.229-1.899c0.102,0,0.205,0,0.307,0
					c0.1-0.246,0.22-0.542,0.392-0.753c0.1-0.123,0.37-0.28,0.334-0.363C4.775,21.06,4.354,21.132,3.951,21.222z M13.834,23.009
					c0.185-0.198,0.359-0.405,0.587-0.559c-0.078-0.182-0.221-0.299-0.336-0.447C14.058,22.376,13.893,22.76,13.834,23.009z
					 M6.435,23.344c0.142-0.129,0.367-0.415,0.643-0.502c-0.019-0.188,0.028-0.306,0.027-0.475c-0.062-0.05-0.113-0.109-0.195-0.139
					C6.958,22.788,6.61,23.098,6.435,23.344z M5.375,22.283c0.002,0.074,0.151,0.145,0.195,0.083
					c-0.038-0.018-0.052-0.059-0.055-0.112C5.436,22.231,5.442,22.294,5.375,22.283z M15.845,25.299
					c-0.159,0.11-0.382,0.158-0.614,0.195c-0.033,0.087-0.094,0.147-0.112,0.251c0.293-0.023,0.598-0.036,0.921-0.027
					C16.045,25.611,15.972,25.362,15.845,25.299z M21.708,26.052c0.133,0.071,0.335,0.074,0.418,0.195
					c-0.267,0.356-0.683,0.564-1.089,0.782c0.377,0.087,0.622,0.309,0.949,0.447c0.188-0.534,1.401-1.266,0.837-1.87
					C22.411,25.711,21.836,25.658,21.708,26.052z M18.916,26.862c0.057,0.052-0.072-0.134-0.055-0.223
					c0.186,0.01,0.416-0.025,0.559,0.028c-0.195-0.272-0.022-0.594,0.222-0.67c-0.541-0.074-1.089-0.289-1.591-0.307
					C18.345,26.073,18.619,26.481,18.916,26.862z M16.125,26.889c0.096,0.035,0.105,0.155,0.223,0.167
					c0.032-0.098,0.159-0.102,0.194-0.195c-0.071-0.049-0.033-0.208-0.138-0.223C16.341,26.753,16.21,26.799,16.125,26.889z
					 M11.545,30.017c-0.159-0.405-0.282-0.902-0.279-1.424c0.001-0.129,0.053-0.259,0.029-0.391
					c-0.067-0.347-0.381-0.62-0.503-0.865c-0.035,0.095-0.155,0.105-0.167,0.224c0.177,0.351,0.277,0.902,0.223,1.395
					c0.47,0.191,0.346,0.976,0.475,1.508C11.558,30.477,11.438,30.133,11.545,30.017z M14.756,29.095
					c0.266-0.041,0.263-0.292,0.476-0.334c0.499-0.101,0.939,0.564,1.229,0.781c0.1-0.111,0.071-0.185,0-0.307
					c-0.452-0.145-0.763-0.429-1.062-0.726c-0.159,0.196-0.662,0.044-0.781,0.279c-0.221-0.262-0.453-0.515-0.614-0.837
					C13.809,28.667,14.565,28.67,14.756,29.095z M20.508,28.537c0.026,0.151,0.1,0.254,0.195,0.334c0.044-0.069,0.194-0.012,0.251,0
					c0.083-0.196,0.251-0.306,0.334-0.502c-0.079-0.003-0.182,0.015-0.223-0.027C21.046,28.592,20.684,28.519,20.508,28.537z
					 M10.317,28.844c-0.187,0.422-0.974,0.552-1.368,0.224c-0.518,0.451-1.034,0.902-1.508,1.396c0.494,0,0.986,0,1.48,0
					c0.259-0.225,0.628-0.457,1.117-0.363c-0.013-0.562,0.254-0.845,0.558-1.089C10.471,28.988,10.429,28.88,10.317,28.844z
					 M17.52,30.491c0.157-0.011,0.253-0.082,0.42-0.083c-0.042-0.192-0.123-0.344-0.195-0.503c-0.158,0.009-0.282-0.016-0.392-0.056
					C17.402,30.07,17.503,30.239,17.52,30.491z M16.542,31.72c-0.008-0.184,0.161-0.514,0-0.586
					C16.583,31.346,16.397,31.583,16.542,31.72z M17.492,33.227c0.132,0.012,0.192-0.049,0.334-0.028
					c0.246-0.462,0.511-0.904,1.173-0.95c-0.031-0.135-0.07-0.265-0.056-0.446c-0.206-0.055-0.507-0.015-0.53-0.251
					c-0.247,0.053-0.565,0.031-0.753-0.056C17.573,32.072,17.883,32.786,17.492,33.227z M25.198,32.642
					c0.049,0.119,0.132,0.203,0.251,0.251c0.192-0.412,0.506-0.704,0.753-1.061c-0.189-0.033-0.297-0.149-0.475-0.195
					C25.623,32.042,25.433,32.364,25.198,32.642z M20.34,32.864c0.152,0.022,0.226-0.034,0.363-0.027
					c-0.074-0.223-0.243-0.354-0.25-0.641c-0.057-0.011-0.184-0.094-0.224-0.029C20.307,32.359,20.337,32.598,20.34,32.864z
					 M15.649,33.451c0.387-0.014,0.698-0.103,1.089-0.112c0.003-0.179-0.178-0.088-0.278-0.112
					c-0.265-0.062-0.479-0.165-0.643-0.223c-0.001-0.017-0.004-0.033-0.027-0.028C15.742,33.134,15.703,33.299,15.649,33.451z
					 M13.36,33.59c-0.235-0.137-0.367-0.377-0.559-0.559c-0.827,0.021-1.581,0.113-2.401,0.141c0.485,0.734,1.101,1.621,1.647,2.401
					c0.135,0.192,0.412,0.728,0.586,0.782c0.149,0.045,0.423-0.06,0.642-0.029c0.384,0.056,0.87,0.381,0.782,0.782
					c-0.031,0.144-0.225,0.182-0.278,0.307c0.005,0.209-0.041,0.369-0.112,0.502c0.145,0.163,0.241,0.373,0.392,0.531
					c-0.234-0.453,0.108-0.805,0.139-1.089c0.043-0.389-0.185-0.758-0.195-1.201c-1.268-0.021-2.398-0.46-2.179-1.787
					c-0.197-0.22-0.433-0.404-0.391-0.866C11.898,33.058,12.932,33.491,13.36,33.59z M13.89,35.378
					c-0.077-0.304-0.112-0.65-0.167-0.977c-0.276,0.032-0.439,0.175-0.754,0.167C13.255,34.841,13.632,35.17,13.89,35.378z
					 M17.744,37.22c-0.248,0.182-0.542,0.314-0.922,0.363c-0.021,0.367,0.313,0.377,0.448,0.586c0.212-0.118,0.681-0.115,0.893,0
					c-0.056-0.681,1.208-1.46,1.257-0.391c0.172-0.055,0.105-0.264,0.139-0.391c0.076-0.287,0.24-0.538,0.39-0.726
					c-0.308,0.091-0.625,0.175-1.033,0.167c0.043-0.189,0.134-0.333,0.168-0.531c-0.153-0.007-0.336,0.019-0.448-0.028
					C19.242,36.757,18.397,37.486,17.744,37.22z M23.44,38.588c0.677,0.179,0.408,1.304,0.81,1.759c-0.102-0.169,0.031-0.555,0-0.81
					c-0.043-0.352-0.393-0.707-0.363-1.088c-0.205,0.008-0.392-0.147-0.558-0.085C23.381,38.423,23.418,38.499,23.44,38.588z
					 M25.729,40.403c0.051-0.21,0.199-0.322,0.335-0.447c-0.208-0.033-0.419-0.064-0.614-0.111
					C25.531,40.042,25.615,40.238,25.729,40.403z M24.333,40.515c0.34,0.749,0.66,1.518,1.034,2.233c0.056-0.257-0.082-0.46,0-0.67
					c0.065-0.164,0.306-0.195,0.307-0.39C25.101,41.422,24.634,41.052,24.333,40.515z M25.98,41.157
					c-0.011-0.113,0.119-0.086,0.139-0.167c-0.099-0.041-0.169-0.11-0.251-0.168C25.896,40.942,25.911,41.078,25.98,41.157z
					 M12.635,45.792c0.259-0.051,0.544,0.028,0.753,0.112c-0.087-0.686,0.145-1.69-0.224-2.094
					C13.135,44.619,12.93,45.251,12.635,45.792z M26.063,44.256c0.008-0.087,0.029-0.158,0.056-0.224
					C25.986,44.039,25.939,44.207,26.063,44.256z M22.351,46.211c0.127-0.159,0.16,0.196,0.251,0.25
					c0.078-0.415,0.157-0.829,0.363-1.117c0.458,0.456,0.853,1.118,0.81,1.982c0.227-0.582,0.513-1.106,1.229-1.201
					c-0.091-0.29-0.2-0.563-0.334-0.809c-0.24,0.16-0.623,0.091-0.894,0c0.001,0.186,0.005,0.376-0.084,0.474
					c-0.389-0.233-0.716-0.53-0.976-0.893C22.646,45.371,22.443,45.857,22.351,46.211z M26.372,47.551
					c-0.089,0.005-0.094-0.074-0.196-0.056c0.019,0.141-0.046,0.194-0.027,0.334c0.193,0.053,0.33,0.047,0.529,0
					c0.067-0.325,0.207-0.576,0.335-0.837c-0.378-0.236-0.388-0.84-0.614-1.229C26.316,46.321,26.535,47.001,26.372,47.551z
					 M25.087,47.411c0.148-0.019,0.266-0.068,0.418-0.084c-0.031-0.079-0.038-0.185-0.11-0.224
					C25.312,47.228,25.188,47.307,25.087,47.411z M23.635,47.802c0.009-0.058,0.093-0.183,0.027-0.224
					C23.673,47.675,23.513,47.762,23.635,47.802z M24.025,48.109c0.269,0.216,0.016,0.498,0.083,0.837
					c0.17,0.003,0.144-0.192,0.307-0.195c-0.157-0.266-0.014-0.76-0.028-0.866C24.294,47.986,24.124,48.012,24.025,48.109z
					 M22.826,54.866c0.079,0.134,0.265,0.163,0.391,0.251c-0.041-0.128-0.009-0.326-0.112-0.391
					C23.051,54.813,22.843,54.744,22.826,54.866z M26.288,56.625c0.389-0.216,0.823-0.388,1.256-0.558
					c-0.473-0.198-0.853-0.487-1.201-0.81C26.363,55.743,26.236,56.197,26.288,56.625z"/>
				<path d="M95.114,34.888c-0.743,0.043-0.923-1.104-0.642-1.759c-1.151-0.335-1.526-1.575-1.424-3.071
					c1.004,0.411,1.636,1.192,2.149,2.094c0.369-0.234,0.675-0.535,1.172-0.642c0.033,1.202-0.37,2.196-0.838,2.987
					c0.057,0.027,0.119,0.048,0.14,0.112c0.212-0.198,0.345-0.475,0.559-0.67c0.141-1.592,1.385-2.078,2.96-2.233
					c-0.274,0.981-0.86,1.653-1.452,2.316c0.699-0.019,1.216,0.144,1.675,0.363c0.044,0.163-0.418,0.324-0.419,0.447
					c-0.001,0.069,0.256,0.168,0.392,0.335c0.175,0.218,0.296,0.518,0.251,0.921c-0.072,0.649-0.653,1.218-1.174,0.559
					c0.036,0.123-0.075,0.222-0.055,0.334c0.021,0.123,0.259,0.332,0.307,0.334c0.19,0.015,0.349-0.34,0.559-0.334
					c0.114,0.356,0.095,0.913,0.056,1.34c0.359-0.412,0.863-0.744,1.535-0.894c0.221-0.049,0.477-0.018,0.726-0.083
					c0.261-0.068,0.448-0.295,0.811-0.335c0.702-0.079,1.276,0.151,1.759,0.418c0.339,0.188,0.704,0.423,0.864,0.726
					c-0.654,0.36-1.528,0.5-2.513,0.531c0.283,0.396,0.732,0.868,0.866,1.507c-0.986,0.027-1.68-0.237-2.317-0.558
					c-0.318,0.127-0.56,0.335-0.921,0.42c0.247,0.532,0.517,1.045,0.613,1.731c-0.338,0.003-0.581-0.087-0.865-0.14
					c0.181,0.777,0.386,1.531,0.587,2.29c1.233,0.665,2.497,1.299,3.741,1.954c0.658-0.635,1.458-1.13,2.569-1.312
					c0.64-1.158,2.913-0.648,3.657,0.056c-0.567,0.568-1.512,0.759-2.458,0.949c0.353,0.346,0.868,0.772,1.062,1.369
					c-0.152,0.071-0.406,0.041-0.586,0.083c0.318,0.919-0.152,1.802-1.145,1.759c-0.198-0.119-0.284-0.348-0.308-0.642
					c-0.091,0.057-0.27,0.269-0.419,0.363c0.004,0.126,0.068,0.193,0.084,0.308c0.241,0.037,0.526,0.031,0.754,0.083
					c-0.034,0.452-0.578,0.609-0.363,1.061c0.941-0.009,1.516,0.346,2.065,0.727c1.46,0.216,1.949,1.402,2.233,2.793
					c-0.299,0.001-0.586-0.01-0.837-0.056c0.531,0.484,1.275,0.851,1.76,1.451c0.49,0.611,0.606,1.615,0.558,2.737
					c-0.066,1.508-0.41,2.931-0.81,4.271c-0.736,2.477-1.776,4.929-3.183,6.924c-0.603,0.854-1.678,2.295-2.903,2.261
					c-0.543-0.015-0.991-0.376-1.34-0.67c-0.381-0.32-0.702-0.698-0.754-1.256c-0.033-0.35,0.029-0.61-0.085-0.838
					c-0.221-0.444-1.019-0.621-1.703-0.753c-0.999-0.194-1.904-0.326-2.987-0.279c-2.132,0.094-3.711,0.818-5.053,1.647
					c0.022,0.172,0.184,0.208,0.223,0.364c-0.262,0.267-0.62,0.432-1.033,0.503c-0.104,0.017-0.229-0.012-0.335,0.027
					c-0.384,0.144-0.724,0.755-0.977,1.062c0.355,0.646,0.44,1.846,0.167,2.652c-0.467-0.25-0.775-0.657-1.061-1.089
					c-0.555,0.785-0.996,1.685-1.34,2.68c0.356-0.164,0.682-0.359,1.145-0.418c-0.041,0.527-0.21,0.926-0.392,1.312
					c0.251-0.037,0.579-0.24,0.977-0.223c0.117,1.34-0.813,2.693-2.065,1.872c-0.16,0.118-0.51,0.218-0.671,0.027
					c-0.143,0.682-0.703,1.203-0.446,1.955c1.739,0.312,1.201,3.177,0.307,4.021c0.857,0.186,1.481,0.603,1.982,1.145
					c-0.299,0.242-0.795,0.286-1.256,0.364c0.125,0.229,0.54,0.407,0.642,0.753c-0.506,0.51-2.17,0.774-2.429-0.139
					c0.008,0.525-0.171,0.98-0.057,1.507c0.041,0.184,0.202,0.373,0.279,0.587c0.22,0.611,0.236,1.443,0.027,2.232
					c-0.187-0.019-0.235-0.173-0.392-0.223c0,0.064,0,0.131,0,0.195c-0.043-0.049-0.037-0.148-0.056-0.223
					c-0.53-0.651-1.065-1.296-1.368-2.178c-0.37,0.187-0.741,0.376-1.229,0.446c0.172-1.276,0.784-2.557,1.704-3.099
					c-0.221-1.492-0.177-3.248-0.278-4.858c-0.71,0.437-1.554-0.017-2.43,0.14c-0.139,0.122-0.127,0.396-0.279,0.502
					c0.945,0.352,1.238,1.613,1.034,2.932c0.423-0.052,0.979-0.07,1.172,0.195c0.105,0.557-0.207,0.924-0.502,1.173
					c0.462,1.741-1.45,2.559-3.184,2.345c0.384-0.901,1.096-1.473,1.787-2.066c-0.676-0.06-1.143-0.328-1.591-0.614
					c0.423-0.49,1.133-0.692,1.814-0.921c-0.486-0.583-1.103-1.279-1.368-2.178c-0.332,0.115-0.767,0.368-1.229,0.447
					c-0.004-0.935,0.467-1.637,0.838-2.291c-0.076-0.101-0.229-0.124-0.335-0.195c-0.076,0.408-0.199,0.769-0.446,1.005
					c-0.077,0.081,0.091,0.073,0.055,0.195c-0.764,0.366-1.734,0.778-2.875,0.587c0.012,0.405-0.049,0.946-0.14,1.34
					c-0.681-0.433-1.707-1.562-1.927-2.569c-0.279-1.285,1.566-0.672,1.703,0c0.27-0.157,0.478-0.349,0.865-0.391
					c0.223-0.024,0.465,0.07,0.671,0.027c0.277-0.056,0.382-0.364,0.587-0.446c-0.355-0.019-0.918-0.232-1.258-0.419
					c-0.111-0.062-0.33-0.177-0.334-0.224c-0.016-0.168,0.357-0.189,0.42-0.363c-0.248,0.005-0.371,0.134-0.588,0.168
					c-0.225,0.374-0.741,0.713-1.368,0.502c-0.419,0.148-0.828,0.307-1.256,0.447c0.241,0.532,0.522,1.021,0.614,1.703
					c1.16,0.66,0.748,2.987,0.055,3.854c0.193,0.487,0.412,1.032,0.504,1.536c0.334-0.365,0.676-0.963,1.229-1.202
					c0.22,0.661,0.138,1.656,0.027,2.374c0.268,0.18,0.577,0.316,0.838,0.502c-0.555,0.571-1.5,0.754-2.43,0.949
					c0.335,0.354,0.818,0.803,1.062,1.341c-0.133,0.109-0.412,0.072-0.615,0.111c0.33,0.918-0.154,1.809-1.145,1.759
					c-0.196-0.111-0.261-0.354-0.307-0.614c-0.129,0.02-0.258,0.282-0.447,0.334c0.207,0.212,0.451,0.387,0.865,0.393
					c0.004,0.384-0.479,0.516-0.336,1.061c0.924-0.002,1.5,0.344,2.038,0.725c1.464,0.213,1.957,1.396,2.234,2.793
					c-0.997-0.186-1.666-0.697-2.374-1.173c0.078,0.61,0.014,1.29-0.139,1.759c-0.15-0.072-0.264-0.182-0.392-0.279
					c-0.065,0.521-0.156,1.018-0.363,1.396c-0.362-0.271-0.581-0.684-0.781-1.116c-0.132,0.315-0.205,0.689-0.392,0.949
					c-0.491-0.3-0.862-0.72-1.033-1.34c-0.405-0.206-0.719-0.729-0.977-1.173c-0.244,0.549-0.167,1.414-0.363,2.01
					c-0.182-0.051-0.279-0.186-0.419-0.278c-0.265,0.778-0.657,1.427-1.2,1.926c-0.104-0.186-0.209-0.368-0.252-0.613
					c-0.252,0.12-0.473,0.272-0.865,0.252c-0.496,1.736-3.305,0.825-3.881-0.279c0.654-0.322,1.535-0.42,2.541-0.392
					c-0.244-0.426-0.674-0.908-0.782-1.563c0.221-0.006,0.424,0.005,0.587,0.056c0.066-0.697,0.181-1.345,0.363-1.926
					c-0.439,0.104-1.251,0.3-1.871,0.141c0.371-0.896,1.092-1.441,1.76-2.04c-0.654-0.072-1.126-0.325-1.564-0.614
					c0.521-0.502,1.855-1.206,3.016-1.061c0.7,0.088,0.515,0.801,0.168,1.199c0.316,0.029,0.499,0.19,0.614,0.42
					c0.153-0.105,0.243-0.277,0.475-0.307c-0.303-0.453-0.564-0.943-0.698-1.564c0.508,0.033,0.906,0.173,1.283,0.336
					c-0.074-0.309-0.252-0.883-0.111-1.34c-0.245,0.024-0.545,0.234-0.893,0.251c0.047-0.649,0.251-1.146,0.476-1.619
					c-0.019-0.086-0.151-0.055-0.168-0.141c-0.554,0.825-1.622,1.28-3.043,1.146c0.345-0.913,1.032-1.481,1.704-2.067
					c-0.625-0.109-1.152-0.317-1.592-0.613c0.116-0.172,0.303-0.275,0.476-0.391c-0.236-0.258-0.481-0.506-0.503-0.978
					c-0.205,0.102-0.468,0.147-0.698,0.224c-0.077-0.133,0.007-0.347,0.028-0.475c-0.109-0.006-0.303,0.145-0.476,0.167
					c0.508,1.281-0.614,2.586-1.535,3.015c-0.206-1.058,0.037-2.229,0.335-3.043c-0.417-0.161-0.855-0.299-1.173-0.559
					c0.577-0.583,2.329-1.406,3.378-0.949c0.186-0.187,0.27-0.475,0.447-0.67c-0.417,0.056-1.123,0.084-1.563-0.056
					c-0.931,1.396-3.202,0.237-3.798-0.782c0.581-0.354,1.812-0.327,2.625-0.195c-0.3-0.482-0.601-0.964-0.697-1.647
					c1.212,0.173,2.104,0.669,2.791,1.368c0.265-0.145,0.466-0.353,0.754-0.474c0-0.382,0.093-0.67,0.14-1.005
					c-0.616-0.091-1.187-0.228-1.675-0.447c0.548-0.82,1.441-1.294,2.373-1.731c0.026-0.541,0.205-0.932,0.419-1.284
					c-0.262-0.005-0.175,0.218-0.223,0.334c-0.813,1.967-4.2,1.022-5.082-0.279c0.711-0.416,1.636-0.617,2.625-0.753
					c-0.072-0.42-0.175-0.812-0.167-1.312c-0.383,0.063-0.938,0.094-1.312,0c0.188-0.53,0.604-0.982,1.089-1.424
					c0.393-0.357,1.094-1.061,1.759-0.837c0.37,0.501,0.059,1.369-0.278,1.675c0.579,0.147,1.126,0.326,1.619,0.559
					c0.074-0.028,0.091-0.112,0.14-0.167c-0.275-0.072-0.463-0.343-0.754-0.308c0.006-0.284-0.163-0.443-0.194-0.698
					c-0.044-0.34,0.124-0.664,0.054-1.033c-0.076-0.41-0.371-0.77-0.334-1.229c-0.402,0.789-1.059,1.324-1.955,1.62
					c-0.555,0.978-2.626,0.831-3.518,0.25c0.568-0.64,1.406-1.013,2.346-1.283c-0.505-0.326-0.988-0.669-1.285-1.201
					c0.568-0.268,1.646-0.283,2.373-0.14c0.266-0.219,0.465-0.503,0.782-0.67c-0.415-0.422-0.773-0.901-1.062-1.451
					c0.753-0.269,1.886-0.082,2.596,0.112c0.178-0.067,0.24-0.245,0.364-0.363c-2.064-0.066-2.82-1.928-3.183-3.686
					c1.35,0.232,2.248,0.916,3.183,1.564c-0.127-0.779-0.046-1.733,0.167-2.345c0.144,0.014,0.18,0.137,0.308,0.167
					c0.167-0.429,0.354-0.93,0.642-1.396c0.248-0.4,0.633-1.017,1.256-1.005c0.488,0.294,0.489,1.398,0.112,1.815
					c0.409,0.197,0.7,0.51,0.865,0.95c0.344-0.438,0.792-0.772,1.033-1.312c-0.949-0.012-1.456-0.607-1.312-1.62
					c-0.363-0.079-0.643-0.664-0.864-1.062c-0.161,1.032-0.693,1.69-1.369,2.206c-0.376,1.121-1.705,1.56-3.211,1.369
					c0.373-0.893,1.102-1.431,1.787-2.011c-0.641-0.094-1.114-0.355-1.563-0.642c0.51-0.551,1.345-0.778,2.206-0.978
					c0.206-0.268,0.305-0.644,0.531-0.893c-0.545-0.294-1.092-0.584-1.453-1.061c0.477-0.279,1.023-0.484,1.676-0.587
					c0.061-0.106,0.086-0.248,0.111-0.391c-1.639-0.298-2.515-1.358-3.211-2.596c1.176-0.29,2.507,0.101,3.461,0.39
					c-0.231-0.596-0.535-1.364-0.529-2.289c0.465,0.093,0.833,0.284,1.172,0.502c0.236-0.705,0.352-1.528,0.559-2.261
					c-0.33,0.609-0.746,1.132-1.312,1.507c-0.313-0.868-0.166-2.315,0.14-3.071c-0.437-0.131-0.884-0.251-1.229-0.474
					c0.571-0.644,1.517-1.136,2.624-1.285c0.11-0.015,0.369,0.031,0.393-0.168c-0.225-0.044-0.496,0.089-0.81,0.112
					c-0.162,0.012-0.351-0.027-0.504,0c-0.259,0.048-0.442,0.224-0.669,0.251c-1.264,0.157-2.062-0.613-2.709-1.312
					c0.63-0.321,1.628-0.417,2.568-0.335c-0.256-0.423-0.655-0.944-0.781-1.591c0.984,0.04,1.674,0.375,2.316,0.755
					c0.287-0.144,0.568-0.29,0.922-0.364c-0.204-0.54-0.449-1.04-0.475-1.759c0.977,0.129,1.633,0.582,2.316,1.005
					c0.133-0.045,0.194-0.16,0.279-0.251c-1.416-0.572-1.82-2.573-1.535-4.495c0.925,0.461,1.515,1.259,2.094,2.067
					c0.219-0.155,0.438-0.309,0.67-0.447c0.193-0.421,0.362-0.868,0.698-1.145c0.108,0.208,0.265,0.367,0.335,0.613
					c0.274-0.05,0.486-0.163,0.838-0.139c0.359-0.655,0.623-1.405,0.948-2.094c-0.189,0.052-0.304,0.181-0.558,0.168
					c-0.243-1.209,0.075-2.582,1.479-2.317c0.091-0.114,0.136-0.272,0.194-0.418c-0.745,0.066-1.148-0.21-1.424-0.614
					c-0.706,0.944-2.637,0.433-3.294-0.196c0.666-0.589,1.629-0.884,2.819-0.95c-0.021-0.33-0.056-0.953,0-1.368
					c1.053,0.575,1.87,1.387,2.233,2.652c0.133-0.007,0.201-0.078,0.278-0.141c-0.185-0.373-0.378-0.737-0.502-1.172
					c-1.157-0.48-1.071-2.72-0.475-3.769c0.637,0.457,0.978,1.491,1.256,2.401c0.301-0.509,0.672-1.095,1.173-1.312
					c0.046,0.186,0.095,0.371,0.14,0.558c0.705-0.489,1.872,0.109,1.843,0.894c-0.01,0.268-0.291,0.396-0.586,0.474
					c0.434,0.219,0.56,0.744,0.865,1.089c-0.094-0.493-0.253-1.068-0.167-1.647c0.455,0.131,0.812,0.36,1.145,0.614
					c-0.24-0.535-0.139-1.412,0.027-1.954c0.069-0.225,0.214-0.44,0.252-0.643c0.027-0.145-0.016-0.309,0-0.447
					c0.124-1.217,1.315-1.893,2.316-2.262c-0.006,1.111-0.422,1.812-0.754,2.596c0.451-0.123,1.151-0.209,1.675-0.083
					c-0.335,0.837-0.979,1.365-1.618,1.897c0.002,0.348,0.009,0.697-0.057,0.978c0.621,0.05,1.246,0.094,1.731,0.279
					c-0.49,0.905-1.353,1.439-2.178,2.01c0,0.075,0,0.149,0,0.224c0.69-0.179,1.063-0.697,2.066-0.699
					c1.13-0.001,2.229,0.493,2.904,1.117c-0.468,0.361-1.059,0.6-1.676,0.811c0.702,0.22,1.511,0.331,2.233,0.53
					C93.756,37.308,94.406,36.069,95.114,34.888z M84.253,38.852c0.074,0.113,0.121,0.252,0.224,0.335
					c0.19-0.265,0.486-0.424,0.837-0.531c-0.188-0.101-0.391-0.187-0.587-0.278C84.639,38.605,84.389,38.672,84.253,38.852z
					 M87.854,40.221c-0.815,0.278-2.142,0.101-2.848-0.056c0.142,0.206,0.294,0.444,0.559,0.475
					c0.124,0.014,0.223-0.052,0.335-0.056c0.659-0.03,1.178,0.374,1.479,0.698c0.27,0.287,0.388,0.762,0.838,0.921
					c0.104-0.482,0.253-0.92,0.531-1.229c0.612,0.82,1.185,2.065,0.978,3.435c0.137,0.03,0.214,0.12,0.362,0.14
					c-0.165-0.484-0.279-1.142-0.195-1.788c-0.34-0.497-0.177-1.469,0.056-1.954c-0.752-0.291-1.438-0.796-2.289-0.894
					C87.744,39.997,87.816,40.091,87.854,40.221z M82.55,43.572c-0.104-0.158-0.198-0.323-0.392-0.391
					c-0.008,0.057-0.074,0.054-0.084,0.111C82.249,43.351,82.412,43.569,82.55,43.572z M87.854,43.572
					c0.143,0.025,0.295,0.187,0.419,0.139c-0.047-0.064-0.072-0.15-0.083-0.251C88.055,43.474,87.962,43.53,87.854,43.572z
					 M83.081,44.604c-0.151,0.092-0.375,0.11-0.559,0.168c0.028,0.074,0.032,0.172,0.027,0.279c0.54,0.454,0.913,1.079,1.116,1.871
					c0.203,0.142,0.316,0.372,0.447,0.585c0.085-0.002,0.243,0.103,0.308-0.027c0.031-0.064-0.194-0.28-0.308-0.419
					c-0.415-0.513-1.064-1.313-0.726-2.01C83.25,44.937,83.237,44.699,83.081,44.604z M90.061,47.927
					c0.616,0.213,0.69,1.155,0.363,1.704c-0.084,0.14-0.364,0.366-0.363,0.417c0.001,0.022,0.337,0.384,0.392,0.503
					c0.165,0.362,0.194,0.887,0.14,1.34c0.132,0.034,0.226,0.109,0.363,0.139c0.03-0.081,0.089-0.134,0.14-0.195
					c-0.376-0.525-0.661-1.532-0.42-2.401c0.486,0.258,0.799,0.69,1.173,1.062c0.017-0.123,0.102-0.178,0.14-0.279
					c-0.92-0.018-1.329-1.425-0.67-2.038c-0.098-0.128-0.248-0.053-0.363-0.112c-0.23-0.115-0.301-0.384-0.363-0.669
					c-0.267-0.144-0.251-0.569-0.643-0.587C90.037,47.125,90.139,47.533,90.061,47.927z M92.853,48.262
					c0.212-0.011,0.088-0.203,0.084-0.335c-0.013-0.384,0.087-0.853,0.223-1.117C92.169,46.66,93.162,47.677,92.853,48.262z
					 M79.813,47.173c-0.164,0.775-0.745,1.135-1.479,1.341c0.087,0.299,0.126,0.648,0.083,1.004
					c0.312,0.153,0.577,0.354,0.893,0.502c0.211-0.162,0.689-0.173,0.979-0.167c-0.147-0.244-0.289-0.493-0.364-0.81
					c0.206-0.06,0.386,0.007,0.615,0c-0.188-0.755,0.157-1.386,0.753-1.535c-0.045-0.175,0.114-0.415,0-0.475
					C80.992,47.354,80.263,47.368,79.813,47.173z M81.796,49.406c0.21,0.062,0.375,0.165,0.559,0.251
					c0.173-0.218,0.405-0.376,0.559-0.614c-0.171-0.256-0.178-0.678-0.335-0.949C82.4,48.615,81.893,48.806,81.796,49.406z
					 M86.599,49.547c-0.312,0.393-1.089,0.209-1.564,0.391c0.06,0.306,0.093,0.702,0.141,1.061c0.046,0.355,0.011,0.789,0.307,0.921
					c-0.27-0.99,0.172-1.858,1.2-1.815c0.148-0.695,0.966-0.261,1.146,0.112c0.081-0.274,0.388-0.465,0.418-0.698
					C87.784,49.307,87.151,49.466,86.599,49.547z M72.554,50.132c0.086,0.166,0.12,0.382,0.196,0.559
					c0.023-0.228,0.064-0.438,0.111-0.643C72.729,50.046,72.69,50.138,72.554,50.132z M95.198,51.277
					c-0.02-0.401,0.026-0.737,0.027-1.118c-0.15,0.003-0.231-0.065-0.391-0.056C94.959,50.492,94.982,50.98,95.198,51.277z
					 M87.24,53.204c0.288-0.28,0.657-0.627,0.949-0.81c0.173,0.46,0.377,0.889,0.53,1.368c0.313-0.235,0.65-0.449,0.949-0.698
					c-0.379-0.709-0.621-1.557-0.726-2.541c-0.245,0.101-0.604,0.085-0.95,0.084C88.182,51.682,87.628,52.613,87.24,53.204z
					 M93.243,50.662c0.012,0.073,0.015,0.154,0.056,0.197c0.037-0.075,0.074-0.149,0.111-0.224
					C93.325,50.614,93.329,50.684,93.243,50.662z M98.855,52.227c0.122,0.019,0.315-0.036,0.392,0.029
					c-0.117,0.532-0.399,0.965-0.671,1.368c-0.277,0.412-0.608,0.759-0.865,1.117c0.456,0.149,0.847,0.364,1.312,0.502
					c0.115-1.412,0.351-2.852,0.449-4.188c-0.54-0.104-1.075-0.209-1.592-0.334C98.285,51.139,98.662,51.59,98.855,52.227z
					 M92.183,50.998c-0.021-0.085,0.048-0.082,0.027-0.168c-0.045,0-0.093,0-0.139,0C92.088,50.906,92.126,50.961,92.183,50.998z
					 M86.151,52.673c0.01,0.078,0.338,0.283,0.42,0.363c0.154,0.156,0.255,0.296,0.391,0.392c-0.209-0.369-0.249-0.905-0.391-1.34
					C86.59,52.29,86.134,52.519,86.151,52.673z M95.477,52.618c0.034,0.19,0.027,0.42,0.056,0.614
					c0.233,0.107,0.462,0.274,0.615,0.447c0.072,0.081,0.111,0.246,0.195,0.194c-0.027-0.141-0.187-0.212-0.279-0.335
					c-0.215-0.283-0.334-0.657-0.335-1.145c0.016,0,0.031-0.022,0-0.028C95.671,52.476,95.521,52.493,95.477,52.618z M97.431,52.646
					c0.1-0.041,0.218-0.062,0.279-0.14c-0.1,0.007-0.103-0.084-0.195-0.084C97.479,52.487,97.469,52.58,97.431,52.646z
					 M89.083,54.544c0.014-0.042,0.041-0.07,0.056-0.112c-0.041,0.015-0.144-0.033-0.14,0.028
					C89.052,54.463,89.019,54.553,89.083,54.544z M84.085,57.029c0.439-0.012,0.846,0.011,1.229,0.055
					c-0.036-0.14-0.114-0.238-0.166-0.362c-0.373,0.001-0.581-0.164-0.865-0.252C84.239,56.681,84.143,56.834,84.085,57.029z
					 M75.235,57.392c0.356,0.751,0.898,1.315,1.34,1.982c0.375-0.23,0.786-0.423,1.174-0.642c-0.559-0.244-1.064-0.539-1.369-1.033
					c0.178-0.083,0.365-0.156,0.559-0.224c-0.075-0.083-0.134-0.183-0.168-0.307c-0.422-0.106-0.85-0.211-1.283-0.307
					C75.45,57.086,75.309,57.205,75.235,57.392z M80.455,58.592c0.377-0.554,0.764-1.099,1.146-1.647
					c-0.697,0.168-1.432,0.299-2.095,0.502c0.384,0.016,0.546,0.529,0.308,0.838c0.215-0.01,0.523-0.071,0.727,0
					C80.539,58.397,80.411,58.528,80.455,58.592z M83.499,58.592c0.096,0.072,0.155,0.18,0.279,0.224
					c0.044-0.114,0.196-0.119,0.223-0.252c-0.149-0.084-0.246-0.219-0.391-0.307C83.576,58.372,83.508,58.452,83.499,58.592z
					 M90.145,60.379c-0.039,0.287,0.048,0.599,0.027,0.894c-0.038,0.559-0.189,1.045-0.334,1.508
					c0.118,0.132,0.034,0.468,0.195,0.558c0.037,0,0.074,0,0.111,0c0.115-0.741,0.008-1.705,0.559-2.01
					c-0.041-0.774,0.095-1.305,0.307-1.871c-0.058-0.128-0.151-0.221-0.279-0.279C90.682,59.579,90.208,59.915,90.145,60.379z
					 M85.9,61.134c-0.036-0.086-0.096-0.147-0.141-0.224c-0.299,0.069-0.601-0.056-0.837-0.14c-0.153,0.15-0.342,0.33-0.613,0.531
					c-0.245,0.18-0.584,0.293-0.727,0.419c-0.171,0.149-0.097,0.312,0.028,0.391c0.343-0.303,0.883-1.118,1.507-1.034
					c0.279,0.039,0.311,0.351,0.587,0.447c0.226-0.021,0.187-0.295,0.391-0.447c0.072-0.052,0.148-0.021,0.223-0.056
					c0.369-0.167,0.512-0.642,0.364-1.033C86.527,60.476,86.185,60.776,85.9,61.134z M77.44,60.602
					c0.156,0.198,0.295,0.413,0.447,0.614c0.103-0.05,0.254-0.024,0.363,0c0.05-0.155,0.168-0.241,0.195-0.42
					c-0.217-0.05-0.677,0.07-0.726-0.278C77.658,60.579,77.491,60.532,77.44,60.602z M91.345,61.189
					c-0.068,0.128-0.248,0.144-0.307,0.279c0.445,0.242,0.718,0.659,0.697,1.368c0.45-0.022,0.734,0.026,1.033,0.195
					c0.175,0.099,0.302,0.271,0.448,0.307c0.578,0.144,1.156-0.105,1.842,0c-0.558-0.606-1.271-1.298-1.954-1.87
					C92.498,62.055,91.641,61.593,91.345,61.189z M81.937,62.613c-0.073,0.216-0.188,0.391-0.224,0.642
					c0.188,0.016,0.31,0.101,0.503,0.112c0.039-0.271,0.248-0.662,0.195-0.837C82.284,62.588,82.103,62.594,81.937,62.613z
					 M83.499,65.042c0.148-0.191-0.027-0.567-0.056-0.838C83.331,64.412,83.471,64.795,83.499,65.042z M82.02,64.707
					c-0.201,0.132-0.66,0.149-0.921,0.056c-0.016,0.329-0.414,0.275-0.67,0.363c0.021,0.236-0.052,0.378-0.056,0.587
					c0.817,0.084,1.175,0.629,1.451,1.256c0.176,0.001,0.327,0.027,0.475,0.056C81.736,66.467,82.236,65.407,82.02,64.707z
					 M71.187,65.154c0.335,0.466,0.717,0.882,0.977,1.423c0.15-0.063,0.226-0.204,0.307-0.335c-0.275-0.392-0.531-0.808-0.67-1.339
					C71.572,64.961,71.431,65.109,71.187,65.154z M78.529,65.601c-0.039,0.379-0.222,0.615-0.363,0.894
					c0.173-0.017,0.37,0.067,0.476,0.027c-0.008-0.351,0.132-0.705,0.111-0.978C78.701,65.586,78.62,65.598,78.529,65.601z
					 M84.31,66.801c-0.016-0.033-0.03-0.063-0.057-0.084c-0.224,0.194-0.529,0.307-0.976,0.279c0.003,0.069-0.045,0.087-0.057,0.141
					c0.47,0.052,0.903,0.138,1.396,0.167c-0.072-0.208-0.102-0.457-0.195-0.642C84.379,66.703,84.37,66.778,84.31,66.801z
					 M86.458,72.524c0.029,0.212,0.216,0.393,0.251,0.614c0.046,0.277,0.008,0.607-0.083,0.782c0.05,0.026,0.173-0.162,0.251-0.278
					c0.089-0.132,0.157-0.307,0.251-0.391c-0.068-0.23-0.152-0.444-0.14-0.755c-1.052-0.595,0.554-1.765,1.508-1.312
					c0.914-1.432,1.896-2.794,2.792-4.244c-1.032-0.076-2.089-0.127-3.1-0.223c-0.032,0.169-0.2,0.302-0.335,0.447
					c-0.091,0.096-0.35,0.35-0.278,0.334c0.531-0.134,1.686-0.669,2.261-0.278c0.481,0.326-0.143,1.096-0.363,1.339
					c0.272,1.752-1.153,2.288-2.765,2.346C86.724,71.427,86.393,72.019,86.458,72.524z M86.878,69.928
					c0.332-0.432,0.757-0.769,1.172-1.117c-0.366-0.051-0.676-0.161-0.976-0.278C87.022,68.993,86.896,69.526,86.878,69.928z
					 M80.232,71.1c0.06,0.212,0.212,0.477,0.196,0.67c-0.508,0.051-0.925-0.137-1.257-0.167c0.143,0.187,0.292,0.396,0.39,0.669
					c0.097,0.267,0.043,0.641,0.279,0.81c-0.026-1.537,1.656-0.332,1.592,0.475c0.278-0.135,0.816-0.16,1.09,0
					c0.223-0.224,0.598-0.295,0.613-0.727c-0.193-0.059-0.373-0.124-0.613-0.222c-0.17-0.07-0.396-0.253-0.588-0.28
					c-0.11-0.016-0.245,0.057-0.362,0.056c-0.524-0.005-1.081-0.422-1.062-0.837c0.011-0.23,0.277-0.354,0.252-0.475
					C80.555,71.051,80.431,71.112,80.232,71.1z M73.671,75.428c-0.02,0.249,0.086,0.526,0.057,0.753
					c-0.137,1.074-1.086,1.591-1.844,2.039c-0.015,0.275,0.335,0.356,0.392,0.614c0.065,0.3-0.128,0.561,0.027,0.81
					c0.377-0.87,0.854-2.016,1.257-2.932c0.146-0.335,0.376-0.674,0.446-0.977c0.128-0.552,0.073-1.226,0.448-1.536
					c0.074-0.062,0.217-0.05,0.278-0.112c0.095-0.094,0.03-0.209,0.111-0.307c-0.256,0.052-0.497,0.118-0.727,0.197
					C74.163,74.501,73.702,75.05,73.671,75.428z M71.354,75.958c0.232,0.122,0.364,0.344,0.475,0.587
					c0.072-0.256,0.341-0.606,0.308-0.782C71.932,75.886,71.591,75.871,71.354,75.958z M71.298,77.327
					c0.092,0.048,0.133,0.147,0.224,0.196c0.009-0.149,0.134-0.33,0.084-0.447C71.542,77.198,71.4,77.243,71.298,77.327z
					 M87.548,81.877c-0.029,0.638-0.081,1.431-0.028,1.982c0.212-0.16,0.534-0.21,0.922-0.195c-0.396-0.701-0.584-1.612-0.698-2.596
					C87.499,81.211,87.564,81.513,87.548,81.877z M71.409,81.71c-0.01-0.122,0.08-0.144,0.084-0.252
					c-0.069-0.015-0.158-0.156-0.195-0.112C71.37,81.433,71.337,81.625,71.409,81.71z M76.128,84.223
					c-0.212-0.522-0.396-1.073-0.475-1.73c-0.384,0.444-0.72,0.936-1.312,1.172c-0.041-0.19-0.047-0.417-0.084-0.614
					c-0.303,0.157-0.82,0.185-1.145,0.028c-0.129,0.346-0.279,0.669-0.392,1.033c0.919,0.161,1.278,0.883,1.592,1.648
					c-0.106-1.228,0.412-2.062,1.033-2.652c0.229,0.414,0.324,0.959,0.448,1.479c0.083-0.139,0.114-0.331,0.25-0.419
					C76.102,84.144,76.101,84.309,76.128,84.223z M70.768,84.14c-0.059,0.528-0.372,0.833-0.614,1.2
					c0.238,0.265,0.328,0.677,0.447,1.062c0.248,0.057,0.424,0.05,0.669,0c-0.001-0.176-0.026-0.327-0.056-0.474
					c-0.086-0.001-0.173,0.141-0.223,0.083c-0.263-0.717,0.131-1.705-0.083-2.373C70.794,83.786,70.792,83.924,70.768,84.14z
					 M72.08,85.731c0.201-0.005,0.413,0.125,0.558,0.084c-0.191-0.087-0.275-0.282-0.445-0.391
					C72.155,85.528,72.102,85.614,72.08,85.731z M74.48,86.346c0.11-0.072-0.084-0.25-0.11-0.364
					C74.413,86.097,74.374,86.293,74.48,86.346z M73.476,87.602c0.175,0.039,0.173,0.255,0.363,0.279
					c0.135-0.436-0.227-0.852,0.139-1.146c-0.193-0.065-0.409-0.261-0.558-0.278C73.626,86.696,73.576,87.284,73.476,87.602z
					 M75.012,96.089c0.112-0.157,0.364-0.174,0.474-0.335c0-0.028,0-0.056,0-0.084c-0.135-0.042-0.27-0.083-0.418-0.112
					C75.07,95.739,74.984,95.978,75.012,96.089z M69.483,97.375c0.635,0.138,1.103,0.441,1.619,0.697
					c0.043-0.56-0.119-1.236-0.055-1.814c-0.008-0.021-0.024-0.033-0.057-0.028C70.615,96.738,70.011,97.018,69.483,97.375z"/>
			</g>
		</g>
	</g>
</g>
</svg>
