<?xml version="1.0" encoding="utf-8"?>
<!-- Generator: Adobe Illustrator 14.0.0, SVG Export Plug-In . SVG Version: 6.00 Build 43363)  -->
<!DOCTYPE svg PUBLIC "-//W3C//DTD SVG 1.1//EN" "http://www.w3.org/Graphics/SVG/1.1/DTD/svg11.dtd">
<svg version="1.1" id="Layer_1" xmlns="http://www.w3.org/2000/svg" xmlns:xlink="http://www.w3.org/1999/xlink" x="0px" y="0px"
	 width="192px" height="252.662px" viewBox="0 -52.667 192 252.662" enable-background="new 0 -52.667 192 252.662"
	 xml:space="preserve">
<g id="Layer_1_1_">
	<polyline fill="none" stroke="#000000" stroke-width="3" points="0.015,155.075 18.021,155.075 18.021,137.444 25.401,137.444 
		25.401,155.075 166.374,155.075 166.374,137.444 173.55,137.444 173.55,155.075 192,155.075 	"/>
	<polyline fill="none" stroke="#000000" stroke-width="3" points="0.015,-18.248 18.021,-18.248 18.021,-0.617 25.401,-0.617 
		25.401,-18.248 166.374,-18.248 166.374,-0.617 173.55,-0.617 173.55,-18.248 192,-18.248 	"/>
	<polyline fill="none" stroke="#000000" stroke-width="3" points="179.32,166.167 179.089,149.223 161.047,149.167 161.066,141.956 
		179.109,142.006 179.254,-4.867 161.213,-4.918 161.232,-11.931 179.273,-11.879 179.32,-30.535 	"/>
	<polyline fill="none" stroke="#000000" stroke-width="3" points="11.768,166.034 11.768,149.065 29.81,149.065 29.81,141.85 
		11.768,141.85 11.768,-5.026 29.81,-5.026 29.81,-12.035 11.768,-12.035 11.768,-30.667 	"/>
	<rect x="1.445" y="-29.268" fill="none" stroke="#000000" stroke-width="4" width="189.504" height="194.298"/>
	<ellipse fill="none" stroke="#000000" stroke-width="3" cx="95.396" cy="-23.698" rx="4.512" ry="4.408"/>
	<polyline fill="none" stroke="#000000" stroke-width="2" points="90.889,-23.698 30.849,-23.698 30.849,-28.663 	"/>
	<polyline fill="none" stroke="#000000" stroke-width="2" points="100.686,-23.698 159.771,-23.698 159.771,-28.663 	"/>
	<ellipse fill="none" stroke="#000000" stroke-width="3" cx="95.677" cy="160.021" rx="4.511" ry="4.405"/>
	<polyline fill="none" stroke="#000000" stroke-width="2" points="91.166,160.022 31.128,160.022 31.128,163.985 	"/>
	<polyline fill="none" stroke="#000000" stroke-width="2" points="100.962,160.022 160.051,160.022 160.051,163.985 	"/>
	<ellipse fill="none" stroke="#000000" stroke-width="3" cx="7.256" cy="78.872" rx="4.511" ry="4.406"/>
	<polyline fill="none" stroke="#000000" stroke-width="2" points="7.256,83.28 7.256,136.042 2.201,136.042 	"/>
	<polyline fill="none" stroke="#000000" stroke-width="2" points="7.256,73.709 7.256,0.941 2.201,0.941 	"/>
	<ellipse fill="none" stroke="#000000" stroke-width="3" cx="184.652" cy="76.289" rx="4.508" ry="4.407"/>
	<polyline fill="none" stroke="#000000" stroke-width="2" points="184.652,71.881 184.652,1.122 189.71,1.122 	"/>
	<polyline fill="none" stroke="#000000" stroke-width="2" points="184.652,81.456 184.652,136.218 189.71,136.218 	"/>
</g>
<g id="Layer_2">
</g>
<rect x="0.015" y="-52.667" width="191.985" height="23.399"/>
<rect x="-5.5" y="165.03" width="199.898" height="34.965"/>
</svg>
